<?xml version="1.0" encoding="UTF-8"?>
<!-- Generator: visioncortex VTracer 0.6.5 -->
<svg version="1.1" xmlns="http://www.w3.org/2000/svg" width="1024" height="1024">
<g transform="translate(512,512) scale(1.15) translate(-512,-512)">
<path d="M0 0 C1.01 -0 2.02 -0 3.06 -0 C5.19 -0 7.32 -0 9.45 0 C12.65 0.01 15.85 0 19.05 -0 C35.8 -0.01 52.24 0.65 68.87 2.82 C69.52 2.91 70.17 2.99 70.85 3.08 C137.4 11.86 137.4 11.86 156.92 33.22 C169.67 50.11 174.53 72.92 179.6 93.1 C180.35 96.02 181.2 98.92 182.06 101.82 C183.93 108.3 185.6 114.84 187.25 121.38 C187.5 122.39 187.75 123.4 188.02 124.43 C189.38 129.92 190.63 135.41 191.69 140.97 C191.97 142.4 192.3 143.83 192.65 145.25 C194.63 153.26 193.6 159.82 189.62 166.95 C183.85 177.98 183.77 190.85 187.13 202.71 C189.63 210.02 192.63 217.09 195.78 224.14 C197.43 227.83 198.94 231.56 200.43 235.32 C200.88 236.44 201.33 237.57 201.8 238.73 C204.13 244.73 206.31 250.79 208.37 256.9 C208.87 258.38 209.37 259.86 209.89 261.34 C219.52 289.28 221.24 319.21 223.72 348.45 C224.13 353.32 224.59 358.18 225.06 363.04 C225.8 370.84 226.35 378.62 226.73 386.44 C227.02 392.17 227.58 397.86 228.18 403.57 C228.51 406.76 228.82 409.94 229.12 413.13 C229.23 414.25 229.35 415.37 229.46 416.52 C229.8 422.4 228.8 426.25 225.18 430.95 C208.5 448.62 180.83 456.42 158.12 463.13 C158.12 467.59 159.42 470.45 161.25 474.38 C164.63 481.88 167.58 489.47 170.4 497.2 C171.08 499.01 171.77 500.81 172.48 502.61 C207.34 592.34 207.34 592.34 193.05 628.86 C191.89 631.1 190.61 633.09 189.12 635.13 C188.89 635.46 188.89 635.46 187.73 637.13 C182.25 644.2 174.11 649.04 166.23 653.11 C162.19 655.23 159.87 656.88 158.12 661.13 C157.24 666.46 156.65 672.47 159.34 677.33 C160.49 678.59 161.7 679.8 162.93 680.98 C178.07 695.85 190.01 722.39 190.37 743.63 C190.4 744.55 190.42 745.47 190.45 746.41 C190.04 749.78 189.22 751.46 187.12 754.13 C171.17 765 151.26 766.29 132.58 766.3 C131.16 766.3 129.75 766.31 128.34 766.31 C125.37 766.32 122.41 766.32 119.45 766.32 C116.46 766.32 113.47 766.32 110.48 766.34 C85.53 766.45 61.95 765.09 37.56 759.54 C33.43 758.62 29.31 757.78 25.12 757.13 C24.88 757.59 24.88 757.59 23.68 759.88 C20.44 764.7 15.11 766.42 9.62 767.72 C6.89 768.19 4.18 768.55 1.43 768.86 C0.91 768.92 0.91 768.92 -1.7 769.22 C-15.04 770.65 -28.41 770.63 -41.82 770.57 C-43.17 770.57 -44.52 770.57 -45.87 770.56 C-66.09 770.52 -85.95 769.81 -105.88 766.13 C-107.15 765.9 -108.42 765.66 -109.73 765.42 C-116.55 764.13 -123.25 762.7 -129.82 760.45 C-130.19 760.32 -130.19 760.32 -132.06 759.68 C-137.41 757.8 -142.54 755.58 -147.63 753.07 C-148.27 752.75 -148.92 752.44 -149.58 752.11 C-155 749.32 -160.65 746.1 -162.88 740.13 C-163.74 730.1 -162.45 720.31 -160.69 710.45 C-160.47 709.15 -160.24 707.85 -160.01 706.52 C-158.26 696.61 -156.07 686.87 -153.43 677.17 C-149.63 663.13 -149.63 663.13 -150.88 659.13 C-152.88 656.77 -155.08 654.76 -157.36 652.66 C-172.62 637.33 -175.25 614.85 -175.25 594.3 C-175.05 583.03 -173.09 572.16 -170.88 561.13 C-170.59 559.58 -170.3 558.02 -170 556.46 C-163.07 521.14 -147.1 486.14 -127.9 455.91 C-126.88 454.13 -126.88 454.13 -125.88 451.13 C-126.67 451.06 -127.47 451 -128.29 450.93 C-133.09 449.86 -137 447.76 -141.32 445.45 C-142.14 445.02 -142.96 444.6 -143.8 444.17 C-150.84 440.44 -157.08 436.31 -161.19 429.32 C-161.66 428.55 -162.13 427.78 -162.62 426.99 C-166.03 419.27 -166.55 410.62 -167.5 402.32 C-167.64 401.2 -167.77 400.08 -167.91 398.93 C-168.42 394.62 -168.88 390.47 -168.88 386.13 C-169.74 385.88 -170.6 385.63 -171.48 385.37 C-181.23 381.83 -194.25 374.1 -199.88 365.13 C-203.18 357.77 -203.58 350.28 -204 342.32 C-204.04 341.74 -204.04 341.74 -204.23 338.82 C-205.63 315.48 -206.04 292.13 -206.01 268.76 C-206.01 265.12 -206.01 261.48 -206.01 257.84 C-206.02 251.74 -206.01 245.65 -206.01 239.55 C-206 232.57 -206.01 225.59 -206.01 218.61 C-206.02 212.53 -206.02 206.46 -206.01 200.38 C-206.01 196.79 -206.01 193.2 -206.02 189.6 C-206.03 168.34 -205.74 147.21 -203.4 126.06 C-203.04 122.77 -202.74 119.48 -202.48 116.18 C-200.96 97.25 -198.28 73.59 -183.82 59.7 C-163.7 44.09 -138.35 32.63 -114.43 24.41 C-111.61 23.39 -108.84 22.32 -106.06 21.2 C-90.8 15.05 -75.37 10.9 -59.26 7.64 C-56.45 7.04 -53.7 6.29 -50.94 5.51 C-41.18 2.97 -30.89 2.22 -20.88 1.13 C-20.15 1.05 -19.42 0.96 -18.67 0.87 C-12.43 0.18 -6.28 -0.01 0 0 Z " fill="#030403" transform="translate(503.87890625,123.8671875)"/>
<path d="M0 0 C3.71 0.01 7.41 0 11.12 -0.01 C29.77 -0.01 47.8 0.45 66.19 3.66 C68.57 4.07 70.95 4.47 73.34 4.87 C74.87 5.13 76.41 5.39 77.95 5.66 C78.65 5.78 79.35 5.89 80.07 6.01 C90.83 7.91 90.83 7.91 93.39 11.19 C93.77 11.97 94.14 12.76 94.53 13.57 C94.92 14.35 95.3 15.13 95.7 15.94 C96.06 16.66 96.41 17.39 96.78 18.13 C97.44 19.12 98.1 20.11 98.78 21.13 C99.08 23.26 99.08 23.26 99.17 25.7 C100.09 42.98 100.09 42.98 106.28 49.29 C108.58 52.11 108.58 54.52 108.28 58.06 C107.29 62.18 105.29 65.17 101.72 67.44 C99.02 69.79 98.63 72.33 97.64 75.71 C96.48 78.98 94.72 81.65 92.77 84.5 C91.78 86.13 91.78 86.13 91.78 88.13 C95.46 84.25 98.69 80.76 100.72 75.76 C102.24 72.36 102.24 72.36 104.69 71.33 C106.1 71.03 107.52 70.78 108.94 70.56 C110.78 70.13 110.78 70.13 112.78 68.01 C113.11 67.39 113.44 66.77 113.78 66.13 C118.23 67.53 120.64 69.73 123.78 73.13 C125.78 75.13 125.78 75.13 127.69 75.37 C128.45 75.37 129.21 75.37 129.99 75.37 C130.41 75.38 130.41 75.38 132.51 75.42 C134.27 75.43 136.02 75.44 137.77 75.43 C144.24 75.59 144.24 75.59 147.19 78.55 C147.72 79.4 148.24 80.25 148.78 81.13 C149.77 81.79 150.76 82.45 151.78 83.13 C152.74 85.52 152.74 85.52 153.58 88.54 C153.89 89.66 154.21 90.79 154.53 91.95 C154.86 93.16 155.19 94.38 155.53 95.63 C155.87 96.87 156.22 98.11 156.57 99.39 C157.48 102.65 158.36 105.91 159.25 109.17 C160.11 112.34 160.99 115.5 161.86 118.67 C162.5 121.01 163.14 123.35 163.78 125.69 C164.08 126.8 164.39 127.9 164.7 129.04 C164.83 129.55 164.83 129.55 165.53 132.13 C165.77 133.03 166.02 133.92 166.26 134.85 C166.78 137.13 166.78 137.13 166.78 140.13 C159.43 138.81 152.36 136.92 145.22 134.76 C135.47 131.86 125.73 129.23 115.78 127.13 C114.69 126.89 113.61 126.66 112.49 126.41 C103.54 124.53 94.65 123.24 85.53 122.44 C85.18 122.41 85.18 122.41 83.39 122.25 C70.4 121.12 57.44 120.86 44.41 120.88 C43.96 120.88 43.96 120.88 41.73 120.88 C-13.32 121.02 -76.02 126.54 -125.22 153.13 C-126.61 153.78 -128.01 154.43 -129.41 155.07 C-141.14 161.01 -149.28 169.01 -154.22 181.13 C-153.7 180.94 -153.18 180.75 -152.64 180.55 C-132.03 173.09 -113.09 169.78 -91.22 169.63 C-90.38 169.62 -89.55 169.61 -88.69 169.6 C-73.37 169.45 -59.24 170.95 -47.45 181.76 C-44.49 184.87 -42.84 187.76 -41.56 191.86 C-41.3 192.66 -41.05 193.46 -40.78 194.29 C-40.6 194.9 -40.41 195.51 -40.22 196.13 C-40.95 196.11 -41.68 196.1 -42.43 196.08 C-45.8 196.02 -49.16 195.98 -52.53 195.94 C-53.68 195.92 -54.83 195.89 -56.01 195.87 C-66.78 195.78 -75.8 197.93 -85.34 202.88 C-86.03 203.23 -86.71 203.58 -87.42 203.94 C-92.85 206.79 -97.68 209.99 -102.22 214.13 C-102.94 214.78 -103.66 215.43 -104.4 216.1 C-109.65 221.1 -113.99 225.53 -114.47 233.07 C-114.39 234.08 -114.3 235.09 -114.22 236.13 C-112.24 237.12 -110.26 238.11 -108.22 239.13 C-107.96 238.53 -107.7 237.92 -107.43 237.3 C-106.11 234.94 -104.99 233.94 -102.8 232.4 C-102.45 232.15 -102.45 232.15 -100.71 230.92 C-99.97 230.41 -99.23 229.9 -98.47 229.38 C-97.71 228.85 -96.94 228.32 -96.16 227.78 C-82.22 218.26 -69.18 210.89 -51.84 210.69 C-51.11 210.68 -50.37 210.67 -49.61 210.66 C-44.23 210.75 -40.17 212.05 -35.22 214.13 C-34.83 214.24 -34.83 214.24 -32.84 214.82 C-30.06 217.07 -29.87 220.74 -29.22 224.13 C-28.96 226.68 -28.78 229.24 -28.66 231.79 C-28.62 232.5 -28.58 233.21 -28.55 233.93 C-28.47 235.43 -28.4 236.94 -28.33 238.44 C-28.14 242.37 -27.93 246.3 -27.72 250.22 C-27.68 251 -27.64 251.77 -27.6 252.57 C-27.21 259.69 -26.6 266.79 -25.9 273.89 C-25.38 279.16 -25.03 284.41 -24.78 289.69 C-24.46 296.25 -23.7 302.7 -22.78 309.19 C-22.66 310.06 -22.54 310.93 -22.41 311.83 C-21.64 317.03 -20.53 322.03 -19.22 327.13 C-18.87 329.13 -18.54 331.13 -18.22 333.13 C11.47 341.89 44.22 347.16 74.78 339.13 C75.59 338.93 76.4 338.72 77.24 338.51 C102.31 332.09 102.31 332.09 109.78 321.13 C110.76 318.59 111.6 316.17 112.34 313.57 C112.55 312.86 112.76 312.16 112.98 311.43 C113.59 309.33 114.19 307.23 114.78 305.13 C114.94 304.58 114.94 304.58 115.76 301.8 C119.07 289.9 118.29 281.51 112.78 270.44 C112.28 269.39 111.78 268.34 111.26 267.26 C108.16 260.8 104.91 254.41 101.65 248.04 C98.9 242.58 96.56 236.98 94.28 231.32 C93.93 230.45 93.58 229.58 93.22 228.69 C92.9 227.88 92.58 227.07 92.25 226.24 C92.11 225.88 92.11 225.88 91.39 224.05 C90.78 222.13 90.78 222.13 90.78 219.13 C92.2 218.48 93.61 217.84 95.03 217.19 C95.82 216.83 96.61 216.47 97.42 216.1 C109.05 211.31 124.3 213.66 135.78 218.13 C139.54 219.92 143.09 222.04 146.63 224.22 C150.56 226.6 154.54 228.38 158.78 230.13 C159.76 226.69 160.2 223.7 159.78 220.13 C155.13 212.86 147.07 208.39 139.78 204.13 C139.15 203.73 138.52 203.33 137.88 202.92 C130.18 198.12 121.73 196.55 112.78 196.57 C111.89 196.57 110.99 196.56 110.07 196.56 C100.65 196.78 92.43 199.58 83.78 203.13 C81.29 197.72 79.62 192.34 78.16 186.57 C78.05 186.16 78.05 186.16 77.5 184.07 C75.66 176.97 74.65 170.46 74.78 163.13 C86.83 157.1 113.42 161.68 125.66 165.59 C141.9 171.43 154.5 182.7 162.34 198.23 C163.69 201.44 164.91 204.67 166.09 207.94 C166.78 209.77 167.47 211.6 168.16 213.43 C168.88 215.35 169.59 217.27 170.3 219.19 C171.8 223.22 173.38 227.22 174.97 231.21 C187.95 263.89 192.27 294.64 194.78 329.57 C194.96 331.99 195.13 334.41 195.31 336.83 C195.57 340.4 195.82 343.97 196.08 347.54 C196.52 353.67 196.98 359.8 197.48 365.93 C198.4 377.31 199.01 388.65 199.16 400.07 C199.18 401.21 199.21 402.35 199.23 403.52 C199.25 411.22 199.25 411.22 197.23 415.13 C194.07 417.71 190.84 419.47 187.16 421.19 C186.43 421.54 185.71 421.89 184.97 422.25 C179.65 424.78 174.35 427.19 168.78 429.13 C168.17 429.34 167.56 429.56 166.93 429.78 C146.44 436.84 125.26 441.39 103.78 444.13 C102.83 444.26 101.89 444.38 100.91 444.51 C72.42 448.26 44.35 450.31 15.6 450.26 C12.15 450.26 8.71 450.26 5.26 450.27 C-12.06 450.27 -29.24 449.79 -46.47 447.82 C-47.6 447.69 -48.73 447.56 -49.9 447.43 C-61.09 446.12 -72.16 444.24 -83.22 442.13 C-84 441.99 -84.78 441.85 -85.58 441.71 C-93.1 440.31 -100.4 438.2 -107.72 436.01 C-108.05 435.91 -108.05 435.91 -109.72 435.41 C-120.62 432.13 -131.05 428.29 -141.22 423.13 C-142.27 422.61 -143.32 422.08 -144.4 421.54 C-147.06 420.15 -149.63 418.66 -152.22 417.13 C-153.13 416.68 -154.03 416.23 -154.97 415.77 C-159.39 413.28 -161.71 411.41 -163.63 406.62 C-164.58 403.19 -165.25 399.73 -165.85 396.22 C-166.21 394.19 -166.64 392.2 -167.11 390.19 C-169.81 378.59 -169.81 378.59 -169.22 374.13 C-167.24 372.44 -167.24 372.44 -164.59 371.13 C-161.13 369.3 -158.72 367.82 -156.28 364.76 C-154.29 362.53 -153.44 362.16 -150.41 361.76 C-147.65 361.76 -144.96 361.87 -142.22 362.13 C-144.83 360.72 -146.6 360.07 -149.59 359.57 C-154.21 357.74 -155.39 355.47 -157.86 351.31 C-159.22 349.13 -159.22 349.13 -161.66 346.94 C-163.22 345.13 -163.22 345.13 -163.03 342.01 C-162.22 339.13 -162.22 339.13 -161.22 337.13 C-161.09 335.26 -161.09 335.26 -161.09 333.13 C-161.09 332.43 -161.09 331.73 -161.09 331.01 C-161.22 329.13 -161.22 329.13 -162.22 327.13 C-162.51 328.35 -162.8 329.56 -163.09 330.82 C-163.7 333.26 -164.33 335.38 -165.34 337.69 C-166.58 341.14 -166.72 343.48 -166.22 347.13 C-164.81 349.02 -163.26 350.66 -161.62 352.35 C-159.39 355.18 -159.36 357.6 -159.22 361.13 C-160.75 362 -162.29 362.85 -163.84 363.69 C-164.7 364.17 -165.56 364.64 -166.45 365.13 C-170.75 366.68 -173.76 365.77 -177.86 363.97 C-184.24 360.39 -190.45 356.64 -196.22 352.13 C-196.95 351.61 -197.68 351.09 -198.43 350.55 C-201.28 346.7 -201.13 342.69 -201.41 338.01 C-201.48 336.97 -201.56 335.93 -201.63 334.87 C-202.34 324.15 -202.63 313.41 -202.88 302.67 C-203.02 296.51 -203.19 290.36 -203.59 284.21 C-204.46 270.29 -204.37 256.35 -204.35 242.41 C-204.35 238.73 -204.35 235.05 -204.36 231.37 C-204.36 225.21 -204.35 219.05 -204.35 212.89 C-204.34 205.78 -204.35 198.68 -204.35 191.57 C-204.36 185.44 -204.36 179.3 -204.35 173.16 C-204.35 169.51 -204.35 165.86 -204.36 162.21 C-204.36 158.15 -204.35 154.1 -204.35 150.04 C-204.35 148.84 -204.35 147.65 -204.36 146.42 C-204.34 140.55 -204.07 134.94 -203.22 129.13 C-203.15 127.17 -203.08 125.21 -203.03 123.25 C-202.75 112.82 -201.55 102.51 -200.23 92.18 C-200.02 90.5 -199.81 88.82 -199.6 87.14 C-196.32 60.59 -196.32 60.59 -189.22 54.13 C-186.29 52.06 -183.25 50.24 -180.16 48.44 C-179.27 47.92 -178.39 47.4 -177.47 46.86 C-153.88 33.1 -129.46 21.84 -103.22 14.13 C-102.34 13.86 -101.46 13.6 -100.55 13.33 C-86.72 9.2 -72.87 6.14 -58.66 3.76 C-58.29 3.69 -58.29 3.69 -56.4 3.37 C-37.62 0.19 -19.01 -0.03 0 0 Z " fill="#D1C5A4" transform="translate(519.219482421875,134.86962890625)"/>
<path d="M0 0 C1.31 2.17 2.42 4.28 3.5 6.56 C3.84 7.27 4.18 7.97 4.53 8.69 C5.7 11.12 6.85 13.56 8 16 C8.43 16.89 8.86 17.79 9.3 18.71 C16.55 33.82 22.6 49.14 28 65 C28.49 66.4 28.97 67.8 29.46 69.2 C30.68 72.79 31.85 76.39 33 80 C33.12 80.38 33.12 80.38 33.74 82.31 C38.76 98.11 42.23 112.77 42.38 129.44 C42.39 130.54 42.4 131.64 42.42 132.78 C42.35 144.04 39.72 151.71 32 160 C28.91 162.52 26.16 163.24 22.34 164.07 C21.52 164.24 20.71 164.42 19.88 164.6 C19.26 164.73 18.64 164.86 18 165 C17.99 164.52 17.99 164.52 17.96 162.11 C17.24 118.65 11.8 77.45 -5 37 C-4.05 42.66 -2.95 48.26 -1.63 53.84 C1.4 66.76 3.24 79.85 5 93 C5.18 94.26 5.36 95.51 5.55 96.8 C7.1 107.96 7.31 119.02 7.26 130.28 C7.25 133.33 7.26 136.37 7.27 139.42 C7.28 149.11 7.23 158.52 5 168 C4.75 169.14 4.5 170.27 4.25 171.45 C1.5 180.54 -3.09 186.94 -11.21 192 C-63.8 219.39 -133.48 219.61 -189.19 202.92 C-193.55 201.49 -197.78 199.79 -202 198 C-189.53 211.27 -173.35 218.52 -156.97 225.79 C-156.43 226.03 -156.43 226.03 -153.68 227.27 C-152.71 227.7 -151.74 228.13 -150.73 228.57 C-144.93 231.6 -142.33 234.58 -139.88 240.62 C-139.62 241.24 -139.37 241.86 -139.11 242.5 C-134.72 253.47 -132.82 263.51 -132.81 275.31 C-132.8 276.22 -132.79 277.12 -132.78 278.06 C-132.77 278.92 -132.77 279.79 -132.77 280.68 C-132.77 281.46 -132.76 282.24 -132.76 283.05 C-133 285 -133 285 -135 287 C-137.94 287.48 -140.8 287.84 -143.77 288.11 C-144.66 288.2 -145.55 288.28 -146.46 288.37 C-155.63 289.17 -164.77 289.27 -173.97 289.21 C-176.75 289.19 -179.53 289.19 -182.31 289.19 C-184.09 289.18 -185.86 289.17 -187.64 289.17 C-188.05 289.17 -188.05 289.17 -190.15 289.16 C-195.88 289.12 -195.88 289.12 -197 288 C-197.67 284.97 -198.09 281.88 -198.56 278.81 C-198.7 277.96 -198.84 277.11 -198.98 276.23 C-199.68 271.78 -200.17 267.53 -200 263 C-199.41 262.97 -198.82 262.95 -198.21 262.92 C-192.71 262.53 -190.27 261.6 -186 258 C-182.19 257.25 -182.19 257.25 -179 257 C-186.4 256.62 -186.4 256.62 -189.38 258.5 C-193.38 260.79 -197.48 260.42 -202 260 C-202.66 259.67 -203.32 259.34 -204 259 C-204.33 268.57 -204.66 278.14 -205 288 C-214.42 288.24 -223.36 288.06 -232.69 286.69 C-233.52 286.57 -234.36 286.45 -235.22 286.33 C-244.65 284.84 -244.65 284.84 -248 282 C-252.04 272.56 -251.4 261.75 -251.28 251.7 C-251.25 249.07 -251.24 246.44 -251.23 243.81 C-251.22 239.64 -251.15 235.46 -251.05 231.28 C-251.02 229.81 -250.99 228.34 -250.97 226.87 C-250.79 214.32 -250.79 214.32 -246.25 209.75 C-245.75 209.32 -245.26 208.88 -244.75 208.44 C-244.51 208.2 -244.51 208.2 -243.3 207.02 C-241.89 205.65 -240.45 204.33 -239 203 C-226.2 190.41 -218.16 180.79 -217.87 162.39 C-217.86 160.77 -217.86 159.16 -217.87 157.55 C-217.87 156.68 -217.87 155.82 -217.86 154.93 C-217.86 153.12 -217.87 151.31 -217.87 149.51 C-217.88 146.74 -217.87 143.98 -217.86 141.22 C-217.86 139.45 -217.87 137.69 -217.87 135.92 C-217.87 135.1 -217.86 134.28 -217.86 133.43 C-217.88 129.47 -218.09 125.88 -219 122 C-221.56 91.56 -220.37 64.05 -208.44 35.69 C-208.06 34.79 -207.69 33.88 -207.3 32.95 C-206.93 32.11 -206.56 31.26 -206.18 30.39 C-205.86 29.64 -205.54 28.89 -205.2 28.11 C-203.72 25.51 -202.33 23.9 -200 22 C-197.06 21.53 -197.06 21.53 -193.6 21.58 C-192.94 21.58 -192.94 21.58 -189.64 21.6 C-188.21 21.63 -186.78 21.65 -185.35 21.68 C-183.86 21.69 -182.37 21.7 -180.88 21.71 C-176.93 21.74 -172.98 21.79 -169.02 21.84 C-162.05 21.94 -155.08 22.01 -148.1 22.05 C-147.72 22.06 -147.72 22.06 -145.79 22.07 C-125.33 22.19 -104.85 21.02 -84.56 18.25 C-83.93 18.17 -83.93 18.17 -80.76 17.74 C-57.84 14.56 -35.47 10.01 -13.56 2.48 C-13.21 2.36 -13.21 2.36 -11.44 1.75 C-9.58 1.11 -7.73 0.45 -5.87 -0.21 C-3 -1 -3 -1 0 0 Z " fill="#D1C5A4" transform="translate(646,594)"/>
<path d="M0 0 C3.71 0.01 7.41 0 11.12 -0.01 C29.77 -0.01 47.8 0.45 66.19 3.66 C68.57 4.07 70.95 4.47 73.34 4.87 C74.87 5.13 76.41 5.39 77.95 5.66 C78.3 5.72 78.3 5.72 80.07 6.01 C90.83 7.91 90.83 7.91 93.39 11.19 C93.77 11.97 94.14 12.76 94.53 13.57 C94.92 14.35 95.3 15.13 95.7 15.94 C96.06 16.66 96.41 17.39 96.78 18.13 C97.11 18.63 97.11 18.63 98.78 21.13 C99.08 23.26 99.08 23.26 99.17 25.7 C100.09 42.98 100.09 42.98 106.28 49.29 C108.58 52.11 108.58 54.52 108.28 58.06 C107.29 62.18 105.29 65.17 101.72 67.44 C99.02 69.79 98.63 72.33 97.64 75.71 C96.48 78.98 94.72 81.65 92.77 84.5 C91.78 86.13 91.78 86.13 91.78 88.13 C95.46 84.25 98.69 80.76 100.72 75.76 C102.24 72.36 102.24 72.36 104.69 71.33 C106.1 71.03 107.52 70.78 108.94 70.56 C110.78 70.13 110.78 70.13 112.78 68.01 C113.11 67.39 113.44 66.77 113.78 66.13 C118.23 67.53 120.64 69.73 123.78 73.13 C125.78 75.13 125.78 75.13 127.69 75.37 C128.45 75.37 129.21 75.37 129.99 75.37 C130.41 75.38 130.41 75.38 132.51 75.42 C134.27 75.43 136.02 75.44 137.77 75.43 C144.24 75.59 144.24 75.59 147.19 78.55 C147.72 79.4 148.24 80.25 148.78 81.13 C149.77 81.79 150.76 82.45 151.78 83.13 C152.74 85.52 152.74 85.52 153.58 88.54 C153.89 89.66 154.21 90.79 154.53 91.95 C154.86 93.16 155.19 94.38 155.53 95.63 C155.87 96.87 156.22 98.11 156.57 99.39 C157.48 102.65 158.36 105.91 159.25 109.17 C160.11 112.34 160.99 115.5 161.86 118.67 C162.5 121.01 163.14 123.35 163.78 125.69 C164.08 126.8 164.39 127.9 164.7 129.04 C164.83 129.55 164.83 129.55 165.53 132.13 C165.77 133.03 166.02 133.92 166.26 134.85 C166.78 137.13 166.78 137.13 166.78 140.13 C159.43 138.81 152.36 136.92 145.22 134.76 C135.47 131.86 125.73 129.23 115.78 127.13 C114.69 126.89 113.61 126.66 112.49 126.41 C103.54 124.53 94.65 123.24 85.53 122.44 C84.83 122.38 84.12 122.32 83.39 122.25 C70.4 121.12 57.44 120.86 44.41 120.88 C43.96 120.88 43.96 120.88 41.73 120.88 C-12.24 121.02 -72.99 126.52 -121.89 151.1 C-124.22 152.13 -124.22 152.13 -127.22 152.13 C-127.27 151.4 -127.31 150.66 -127.36 149.9 C-127.8 142.82 -128.24 135.73 -128.68 128.65 C-128.91 125.01 -129.13 121.38 -129.36 117.74 C-130.31 102.43 -131.27 87.12 -132.28 71.81 C-132.36 70.62 -132.44 69.42 -132.52 68.19 C-133.14 58.81 -133.95 49.45 -134.85 40.08 C-135.28 35.09 -135.3 30.13 -135.22 25.13 C-125.45 21.35 -115.66 17.78 -105.61 14.83 C-103.92 14.34 -102.24 13.84 -100.56 13.33 C-86.73 9.2 -72.88 6.15 -58.66 3.76 C-57.91 3.63 -57.17 3.5 -56.4 3.37 C-37.62 0.19 -19.01 -0.03 0 0 Z " fill="#D2C6A5" transform="translate(519.219482421875,134.86962890625)"/>
<path d="M0 0 C1.32 10.3 2.33 20.52 2.83 30.9 C3.02 34.65 3.22 38.41 3.43 42.16 C3.47 42.95 3.52 43.74 3.56 44.56 C4.1 54.17 4.84 63.77 5.56 73.38 C8.3 109.87 8.3 109.87 8 126 C8.66 126.33 9.32 126.66 10 127 C8.91 127.5 7.81 127.99 6.69 128.5 C-5.05 134.43 -14.46 142.44 -19 155 C-15.7 154.01 -12.4 153.02 -9 152 C-8.96 153.11 -8.92 154.23 -8.88 155.37 C-8.11 176.54 -7.07 197.66 -5.06 218.75 C-4.98 219.61 -4.9 220.47 -4.82 221.35 C-3.86 231.62 -2.52 241.66 -0.45 251.77 C0.05 254.25 0.54 256.74 1.03 259.22 C2.18 265 3.34 270.78 4.5 276.56 C4.89 278.53 5.29 280.5 5.68 282.47 C6.44 286.27 7.21 290.06 7.97 293.86 C8.59 296.97 9.22 300.09 9.83 303.2 C11.57 311.96 13.4 320.71 15.31 329.44 C15.39 329.78 15.39 329.78 15.77 331.53 C17.96 341.55 20.31 351.51 22.86 361.44 C24.88 369.34 26.63 377.27 28.26 385.25 C29.32 390.32 30.63 395.16 32.34 400.05 C33.12 402.36 33.69 404.67 34.19 407.06 C34.27 407.44 34.27 407.44 34.67 409.35 C34.78 409.89 34.89 410.44 35 411 C17.03 409.02 -0.21 400.31 -16 392 C-16.33 391.83 -16.33 391.83 -18.01 390.98 C-23.19 388.3 -26.23 385.92 -28.43 380.44 C-29.41 377.03 -30.07 373.58 -30.64 370.08 C-30.99 368.05 -31.42 366.06 -31.89 364.06 C-34.59 352.48 -34.59 352.48 -34 348 C-32.02 346.31 -32.02 346.31 -29.38 345 C-25.92 343.17 -23.5 341.69 -21.06 338.62 C-19.07 336.4 -18.22 336.03 -15.19 335.62 C-12.43 335.62 -9.74 335.74 -7 336 C-9.61 334.59 -11.38 333.94 -14.38 333.44 C-18.99 331.61 -20.17 329.34 -22.64 325.18 C-24 323 -24 323 -26.44 320.81 C-28 319 -28 319 -27.81 315.88 C-27 313 -27 313 -26 311 C-25.87 309.13 -25.87 309.13 -25.88 307 C-25.87 306.3 -25.87 305.6 -25.87 304.88 C-26 303 -26 303 -27 301 C-27.29 302.22 -27.58 303.43 -27.88 304.69 C-28.48 307.13 -29.11 309.25 -30.12 311.56 C-31.36 315.01 -31.5 317.35 -31 321 C-29.59 322.89 -28.04 324.53 -26.4 326.22 C-24.17 329.05 -24.14 331.47 -24 335 C-25.53 335.87 -27.08 336.72 -28.62 337.56 C-29.48 338.04 -30.34 338.51 -31.23 339 C-35.53 340.55 -38.55 339.64 -42.64 337.84 C-49.02 334.26 -55.23 330.51 -61 326 C-61.73 325.48 -62.46 324.96 -63.21 324.42 C-66.06 320.57 -65.91 316.56 -66.19 311.88 C-66.26 310.84 -66.34 309.8 -66.41 308.74 C-67.12 298.02 -67.42 287.28 -67.66 276.54 C-67.8 270.38 -67.97 264.23 -68.37 258.08 C-69.24 244.16 -69.15 230.22 -69.13 216.28 C-69.13 212.6 -69.13 208.92 -69.14 205.24 C-69.14 199.08 -69.14 192.92 -69.13 186.76 C-69.12 179.65 -69.13 172.55 -69.13 165.44 C-69.14 159.31 -69.14 153.17 -69.13 147.03 C-69.13 143.38 -69.13 139.73 -69.14 136.08 C-69.14 132.02 -69.13 127.97 -69.13 123.91 C-69.13 122.71 -69.13 121.52 -69.14 120.29 C-69.12 114.42 -68.85 108.8 -68 103 C-67.93 101.04 -67.86 99.08 -67.81 97.12 C-67.53 86.69 -66.33 76.38 -65.01 66.05 C-64.8 64.37 -64.59 62.69 -64.38 61.01 C-61.1 34.46 -61.1 34.46 -54 28 C-51.07 25.93 -48.04 24.11 -44.94 22.31 C-44.05 21.79 -43.17 21.27 -42.26 20.74 C-6.73 0 -6.73 0 0 0 Z " fill="#38352C" transform="translate(384,161)"/>
<path d="M0 0 C1.31 2.17 2.42 4.28 3.5 6.56 C3.84 7.27 4.18 7.97 4.53 8.69 C5.7 11.12 6.85 13.56 8 16 C8.43 16.89 8.86 17.79 9.3 18.71 C16.55 33.82 22.6 49.14 28 65 C28.49 66.4 28.97 67.8 29.46 69.2 C30.68 72.79 31.85 76.39 33 80 C33.12 80.38 33.12 80.38 33.74 82.31 C38.76 98.11 42.23 112.77 42.38 129.44 C42.39 130.54 42.4 131.64 42.42 132.78 C42.35 144.04 39.72 151.71 32 160 C28.91 162.52 26.16 163.24 22.34 164.07 C21.52 164.24 20.71 164.42 19.88 164.6 C19.26 164.73 18.64 164.86 18 165 C17.99 164.52 17.99 164.52 17.96 162.11 C17.24 118.65 11.8 77.45 -5 37 C-5.66 37 -6.32 37 -7 37 C-7.33 34.36 -7.66 31.72 -8 29 C-8.72 29.36 -9.45 29.73 -10.19 30.1 C-49.49 47.86 -111.54 49.02 -153.85 41.49 C-157.66 40.9 -161.41 40.82 -165.26 40.8 C-166.04 40.79 -166.83 40.79 -167.63 40.78 C-169.29 40.77 -170.95 40.76 -172.6 40.76 C-175.1 40.75 -177.59 40.72 -180.09 40.69 C-188.3 40.63 -195.72 40.91 -203.65 43.35 C-206 44 -206 44 -210 44 C-210.05 50.58 -210.09 57.15 -210.11 63.73 C-210.12 65.95 -210.13 68.18 -210.15 70.41 C-210.42 105.48 -208.8 150.06 -184.98 178.4 C-176.4 186.7 -165.2 190.86 -154 194.31 C-153.22 194.56 -152.44 194.8 -151.63 195.05 C-138.18 198.95 -124.86 199.32 -110.97 199.26 C-108.07 199.25 -105.17 199.26 -102.28 199.27 C-91.65 199.28 -81.5 198.73 -71 197 C-69.41 196.78 -67.82 196.57 -66.23 196.36 C-49.26 193.89 -33.97 188.31 -19 180 C-17.96 179.42 -16.91 178.85 -15.84 178.25 C-6.46 172.68 0.71 165.11 5 155 C5.68 151.41 5.72 147.92 5.71 144.28 C5.72 143.29 5.74 142.31 5.75 141.29 C5.8 138.17 5.8 135.06 5.81 131.94 C5.84 129.81 5.86 127.68 5.89 125.56 C5.95 120.37 5.98 115.19 6 110 C6.33 110 6.66 110 7 110 C7.05 116.33 7.09 122.66 7.11 128.99 C7.12 131.14 7.13 133.29 7.15 135.44 C7.33 158.32 7.33 158.32 5 168 C4.75 169.14 4.5 170.27 4.25 171.45 C1.5 180.54 -3.09 186.94 -11.21 192 C-63.8 219.39 -133.48 219.61 -189.19 202.92 C-193.55 201.49 -197.78 199.79 -202 198 C-189.53 211.27 -173.35 218.52 -156.97 225.79 C-156.43 226.03 -156.43 226.03 -153.68 227.27 C-152.71 227.7 -151.74 228.13 -150.73 228.57 C-144.93 231.6 -142.33 234.58 -139.88 240.62 C-139.62 241.24 -139.37 241.86 -139.11 242.5 C-134.72 253.47 -132.82 263.51 -132.81 275.31 C-132.8 276.22 -132.79 277.12 -132.78 278.06 C-132.77 278.92 -132.77 279.79 -132.77 280.68 C-132.77 281.46 -132.76 282.24 -132.76 283.05 C-133 285 -133 285 -135 287 C-137.94 287.48 -140.8 287.84 -143.77 288.11 C-144.66 288.2 -145.55 288.28 -146.46 288.37 C-155.63 289.17 -164.77 289.27 -173.97 289.21 C-176.75 289.19 -179.53 289.19 -182.31 289.19 C-184.09 289.18 -185.86 289.17 -187.64 289.17 C-188.05 289.17 -188.05 289.17 -190.15 289.16 C-195.88 289.12 -195.88 289.12 -197 288 C-197.67 284.97 -198.09 281.88 -198.56 278.81 C-198.7 277.96 -198.84 277.11 -198.98 276.23 C-199.68 271.78 -200.17 267.53 -200 263 C-199.41 262.97 -198.82 262.95 -198.21 262.92 C-192.71 262.53 -190.27 261.6 -186 258 C-182.19 257.25 -182.19 257.25 -179 257 C-186.4 256.62 -186.4 256.62 -189.38 258.5 C-193.38 260.79 -197.48 260.42 -202 260 C-202.66 259.67 -203.32 259.34 -204 259 C-204.33 268.57 -204.66 278.14 -205 288 C-214.42 288.24 -223.36 288.06 -232.69 286.69 C-233.52 286.57 -234.36 286.45 -235.22 286.33 C-244.65 284.84 -244.65 284.84 -248 282 C-252.04 272.56 -251.4 261.75 -251.28 251.7 C-251.25 249.07 -251.24 246.44 -251.23 243.81 C-251.22 239.64 -251.15 235.46 -251.05 231.28 C-251.02 229.81 -250.99 228.34 -250.97 226.87 C-250.79 214.32 -250.79 214.32 -246.25 209.75 C-245.75 209.32 -245.26 208.88 -244.75 208.44 C-244.51 208.2 -244.51 208.2 -243.3 207.02 C-241.89 205.65 -240.45 204.33 -239 203 C-226.2 190.41 -218.16 180.79 -217.87 162.39 C-217.86 160.77 -217.86 159.16 -217.87 157.55 C-217.87 156.68 -217.87 155.82 -217.86 154.93 C-217.86 153.12 -217.87 151.31 -217.87 149.51 C-217.88 146.74 -217.87 143.98 -217.86 141.22 C-217.86 139.45 -217.87 137.69 -217.87 135.92 C-217.87 135.1 -217.86 134.28 -217.86 133.43 C-217.88 129.47 -218.09 125.88 -219 122 C-221.56 91.56 -220.37 64.05 -208.44 35.69 C-208.06 34.79 -207.69 33.88 -207.3 32.95 C-206.93 32.11 -206.56 31.26 -206.18 30.39 C-205.86 29.64 -205.54 28.89 -205.2 28.11 C-203.72 25.51 -202.33 23.9 -200 22 C-197.06 21.53 -197.06 21.53 -193.6 21.58 C-192.94 21.58 -192.94 21.58 -189.64 21.6 C-188.21 21.63 -186.78 21.65 -185.35 21.68 C-183.86 21.69 -182.37 21.7 -180.88 21.71 C-176.93 21.74 -172.98 21.79 -169.02 21.84 C-162.05 21.94 -155.08 22.01 -148.1 22.05 C-147.72 22.06 -147.72 22.06 -145.79 22.07 C-125.33 22.19 -104.85 21.02 -84.56 18.25 C-83.93 18.17 -83.93 18.17 -80.76 17.74 C-57.84 14.56 -35.47 10.01 -13.56 2.48 C-13.21 2.36 -13.21 2.36 -11.44 1.75 C-9.58 1.11 -7.73 0.45 -5.87 -0.21 C-3 -1 -3 -1 0 0 Z " fill="#27251E" transform="translate(646,594)"/>
<path d="M0 0 C0.57 -0 0.57 -0 3.48 -0.03 C23.23 0.17 23.23 0.17 28.78 5.61 C30.81 8.82 31.87 11.77 32.96 15.4 C33.17 16.07 33.37 16.73 33.58 17.42 C34.23 19.55 34.87 21.68 35.5 23.81 C36.13 25.9 36.76 27.98 37.4 30.07 C37.82 31.46 38.24 32.84 38.66 34.23 C40.47 40.22 42.44 46.15 44.45 52.08 C45.57 55.45 46.61 58.84 47.62 62.25 C49 66.77 50.57 71.11 52.37 75.47 C53.98 79.47 55.45 83.51 56.94 87.56 C57.24 88.4 57.55 89.23 57.87 90.09 C59.22 93.77 60.57 97.45 61.89 101.13 C64.35 107.87 66.99 114.51 69.79 121.12 C70.08 121.81 70.38 122.49 70.68 123.2 C72.16 126.71 73.65 130.21 75.16 133.7 C75.72 135.01 76.27 136.32 76.83 137.63 C77.08 138.22 77.08 138.22 78.35 141.16 C80.03 145.7 80.96 149 79.65 153.7 C77.2 156.92 75.43 157.4 71.49 157.98 C70.71 158.07 69.93 158.16 69.12 158.25 C68.38 158.36 67.64 158.47 66.87 158.58 C53.12 160.48 39.21 160.89 25.35 161.49 C16.14 161.89 6.95 162.39 -2.22 163.37 C-2.58 163.4 -2.58 163.4 -4.38 163.59 C-10.37 164.27 -15.89 165.82 -21.62 167.73 C-26.03 168.84 -26.03 168.84 -28.44 167.44 C-32.25 161.01 -32.94 153.39 -34.12 146.12 C-34.25 145.39 -34.37 144.66 -34.5 143.9 C-39.73 112.19 -43.1 80.06 -46.57 48.12 C-47.33 41.11 -48.33 34.15 -49.47 27.2 C-51.26 15.81 -51.26 15.81 -49.22 12.43 C-48.65 11.87 -48.09 11.32 -47.5 10.75 C-46.95 10.19 -46.41 9.63 -45.85 9.05 C-33.41 0.72 -14.34 0.06 0 0 Z " fill="#D1C5A4" transform="translate(548.4375,274.5625)"/>
<path d="M0 0 C2.94 2.62 2.94 2.62 5 6 C5.56 6.87 6.11 7.73 6.69 8.62 C10.54 18.53 10.29 29.15 10.21 39.61 C10.19 41.97 10.19 44.32 10.19 46.68 C10.17 55.31 9.89 63.9 9.41 72.51 C9.01 79.98 8.8 87.44 8.62 94.92 C8.57 97.08 8.52 99.24 8.46 101.4 C8.15 113.61 8.15 113.61 8.03 119.22 C7.95 122.91 7.85 126.59 7.75 130.28 C7.71 131.67 7.68 133.05 7.66 134.44 C7.47 144.17 7.26 153.74 0 161 C-5.92 165.29 -11.97 164.66 -19 164 C-29.47 161.77 -38.81 153.77 -44.79 145.1 C-50.27 135.57 -52.35 125.74 -52.19 114.88 C-52.18 114.41 -52.18 114.41 -52.16 112.08 C-51.72 75.97 -40.41 29.31 -14.12 2.81 C-9.77 -0.74 -5.42 -1.49 0 0 Z " fill="#D2C6A5" transform="translate(407,606)"/>
<path d="M0 0 C1.31 2.17 2.42 4.28 3.5 6.56 C3.84 7.27 4.18 7.97 4.53 8.69 C5.7 11.12 6.85 13.56 8 16 C8.43 16.89 8.86 17.79 9.3 18.71 C16.55 33.82 22.6 49.14 28 65 C28.49 66.4 28.97 67.8 29.46 69.2 C30.68 72.79 31.85 76.39 33 80 C33.12 80.38 33.12 80.38 33.74 82.31 C38.76 98.11 42.23 112.77 42.38 129.44 C42.39 130.54 42.4 131.64 42.42 132.78 C42.35 144.04 39.72 151.71 32 160 C28.91 162.52 26.16 163.24 22.34 164.07 C21.52 164.24 20.71 164.42 19.88 164.6 C19.57 164.67 19.57 164.67 18 165 C17.99 164.52 17.99 164.52 17.96 162.11 C17.24 118.65 11.8 77.45 -5 37 C-5.66 37 -6.32 37 -7 37 C-7.33 34.36 -7.66 31.72 -8 29 C-8.72 29.36 -9.45 29.73 -10.19 30.1 C-49.49 47.86 -111.54 49.02 -153.85 41.49 C-157.66 40.9 -161.41 40.82 -165.26 40.8 C-166.04 40.79 -166.83 40.79 -167.63 40.78 C-169.29 40.77 -170.95 40.76 -172.6 40.76 C-175.1 40.75 -177.59 40.72 -180.09 40.69 C-188.3 40.63 -195.72 40.91 -203.65 43.35 C-206 44 -206 44 -210 44 C-210.17 44.99 -210.17 44.99 -211 50 C-211.5 50.16 -211.5 50.16 -214 51 C-211.57 41.29 -207.63 31.31 -202 23 C-199.21 21.6 -196.95 21.9 -193.82 21.92 C-192.52 21.92 -191.21 21.93 -189.87 21.94 C-189.17 21.94 -188.47 21.95 -187.74 21.96 C-185.52 21.97 -183.29 21.98 -181.06 21.99 C-174.73 22.02 -168.39 22.05 -162.06 22.1 C-136.12 22.28 -110.32 21.76 -84.56 18.25 C-83.93 18.17 -83.93 18.17 -80.76 17.74 C-57.84 14.56 -35.47 10.01 -13.56 2.48 C-13.21 2.36 -13.21 2.36 -11.44 1.75 C-9.58 1.11 -7.73 0.45 -5.87 -0.21 C-3 -1 -3 -1 0 0 Z " fill="#37342B" transform="translate(646,594)"/>
<path d="M0 0 C3.3 1.1 3.58 1.47 5.44 4.19 C7.42 6.97 9.49 9.59 11.78 12.12 C25.55 27.37 35.61 47.03 37.31 67.81 C36.96 71.4 36.45 72.44 34 75 C31.5 75.97 31.5 75.97 28.55 76.61 C27.47 76.85 26.4 77.09 25.29 77.33 C24.21 77.55 23.12 77.77 22 78 C21.03 78.2 20.06 78.4 19.06 78.61 C3.64 81.63 -11.31 82.55 -27 82 C-27.81 78.27 -28.63 74.54 -29.44 70.81 C-29.67 69.76 -29.9 68.7 -30.13 67.62 C-30.36 66.59 -30.58 65.57 -30.81 64.52 C-30.91 64.05 -30.91 64.05 -31.43 61.68 C-31.97 59.12 -32.49 56.56 -33 54 C-33.66 54 -34.32 54 -35 54 C-34.99 55.1 -34.98 56.2 -34.96 57.33 C-34.96 58.83 -34.95 60.32 -34.94 61.81 C-34.93 62.53 -34.92 63.25 -34.91 63.99 C-34.89 70.04 -35.37 75.99 -36 82 C-55.05 82.62 -76.51 82.89 -94 74 C-96 72 -96 72 -96.27 70.07 C-96.25 62.94 -95.17 56.22 -93.75 49.25 C-93.55 48.15 -93.34 47.06 -93.13 45.93 C-91.33 36.95 -88.86 31.69 -81.23 26.38 C-71.95 20.64 -61.85 19.75 -51.25 18.32 C-45.17 17.46 -39.69 16.29 -34 14 C-31.96 13.36 -29.92 12.73 -27.88 12.12 C-18.58 9.27 -10.22 6.53 -2.09 1.07 C-1.4 0.72 -0.71 0.37 0 0 Z " fill="#D1C5A4" transform="translate(641,798)"/>
<path d="M0 0 C-0.14 2.21 -0.29 4.42 -0.44 6.62 C-0.48 7.24 -0.48 7.24 -0.68 10.35 C-0.97 13.62 -1.44 16.77 -2 20 C-2.16 22.5 -2.26 25 -2.31 27.5 C-2.35 28.77 -2.39 30.04 -2.43 31.34 C-1.92 35.72 -0.84 37.66 2 41 C26.1 58.72 58.3 60.92 87 64 C87 64.33 87 64.66 87 65 C76.7 65.26 66.53 64.86 56.25 64.06 C55.12 63.98 53.99 63.89 52.82 63.8 C48.13 63.42 43.61 62.94 39 62 C36.56 61.83 34.13 61.68 31.69 61.56 C26.42 61.27 21.23 60.83 16 60.12 C7.69 59.02 -0.65 58.26 -9 57.5 C-18.23 56.66 -27.43 55.76 -36.62 54.52 C-41.62 53.89 -46.65 53.46 -51.67 53 C-152.76 43.68 -152.76 43.68 -167 27 C-167.06 25.12 -167.06 25.12 -166 23 C-161.8 19.03 -157.85 16.76 -152.31 15 C-151.54 14.75 -150.78 14.5 -149.99 14.25 C-126.33 6.99 -100.63 4.32 -75.98 3.21 C-73 3 -73 3 -71.32 2.52 C-67.87 1.75 -64.4 1.64 -60.88 1.46 C-60.07 1.42 -59.27 1.38 -58.44 1.33 C-55.81 1.2 -53.19 1.07 -50.56 0.94 C-49.67 0.89 -48.78 0.85 -47.86 0.8 C-31.9 0.01 -15.99 -0.25 0 0 Z " fill="#0a0f16" transform="translate(344,829)"/>
<path d="M0 0 C2.42 0.02 4.83 0.02 7.25 0.01 C44.11 0.08 44.11 0.08 55.83 9.47 C65.09 21.07 67.49 38.36 67.5 52.65 C67.52 53.55 67.53 54.46 67.54 55.39 C67.54 56.26 67.54 57.12 67.55 58.01 C67.55 58.79 67.56 59.58 67.56 60.38 C67.32 62.34 67.32 62.34 65.32 64.34 C62.37 64.82 59.51 65.18 56.55 65.45 C55.66 65.53 54.77 65.62 53.85 65.7 C44.69 66.5 35.54 66.61 26.35 66.54 C23.56 66.52 20.78 66.52 18 66.52 C16.23 66.52 14.45 66.51 12.68 66.5 C12.27 66.5 12.27 66.5 10.17 66.5 C4.43 66.45 4.43 66.45 3.32 65.34 C2.65 62.3 2.23 59.22 1.75 56.15 C1.62 55.3 1.48 54.45 1.33 53.57 C0.63 49.11 0.15 44.86 0.32 40.34 C0.91 40.31 1.5 40.28 2.11 40.26 C7.6 39.86 10.04 38.93 14.32 35.34 C18.13 34.59 18.13 34.59 21.32 34.34 C13.91 33.96 13.91 33.96 10.94 35.84 C6.94 38.12 2.83 37.75 -1.68 37.34 C-2.34 37.01 -3 36.68 -3.68 36.34 C-4.01 45.91 -4.34 55.48 -4.68 65.34 C-7.32 65.36 -9.96 65.38 -12.68 65.4 C-13.09 65.4 -13.09 65.4 -15.15 65.43 C-20.09 65.44 -24.8 65.04 -29.68 64.34 C-34.07 34.33 -34.07 34.33 -34.18 21.27 C-34.2 20.44 -34.22 19.61 -34.24 18.76 C-34.19 13.51 -33.18 10.48 -29.68 6.34 C-21.16 -0.73 -10.48 -0.11 0 0 Z " fill="#D0C4A4" transform="translate(445.68359375,816.663818359375)"/>
<path d="M0 0 C3.63 3.32 5.16 7.19 7.12 11.62 C7.51 12.5 7.9 13.37 8.31 14.27 C13.13 25.29 17.08 36.63 21 48 C21.13 48.37 21.13 48.37 21.78 50.25 C23.25 54.48 24.64 58.73 26 63 C26.24 63.76 26.49 64.52 26.74 65.31 C31.76 81.11 35.23 95.77 35.38 112.44 C35.39 113.54 35.4 114.64 35.42 115.78 C35.35 127.04 32.72 134.71 25 143 C21.91 145.52 19.16 146.24 15.34 147.07 C14.52 147.24 13.71 147.42 12.88 147.6 C12.26 147.73 11.64 147.86 11 148 C10.99 147.05 10.97 146.09 10.96 145.11 C10.54 119.78 9.26 95.18 3.77 70.36 C2.52 64.67 1.5 59.05 0.88 53.25 C0.06 45.83 -1.67 38.86 -3.64 31.67 C-4.98 26.07 -5.3 20.49 -5.44 14.75 C-5.47 13.98 -5.51 13.21 -5.54 12.42 C-5.57 8.22 -5.2 5.74 -2.47 2.45 C-1.66 1.64 -0.84 0.83 0 0 Z " fill="#D0C4A3" transform="translate(653,611)"/>
<path d="M0 0 C0.66 0.33 1.32 0.66 2 1 C2.23 3.04 2.45 5.08 2.64 7.12 C3.3 12.36 4.65 17.46 5.9 22.59 C8.34 32.67 10.68 42.74 12.39 52.97 C13 56 13 56 13.95 58.84 C15.29 62.88 16.14 66.96 17 71.12 C17.08 71.51 17.08 71.51 17.5 73.48 C18.39 77.73 19.15 81.97 19.79 86.26 C21.37 95.88 23.97 105.3 26.38 114.75 C26.86 116.68 27.35 118.61 27.84 120.54 C29.63 127.64 31.42 134.75 33.24 141.85 C33.61 143.3 33.98 144.75 34.35 146.2 C34.67 147.45 34.99 148.7 35.32 149.99 C36 153 36 153 36 156 C36.99 156.33 37.98 156.66 39 157 C38.33 157.11 37.67 157.22 36.98 157.33 C30.98 158.36 25.23 159.7 19.41 161.51 C15.42 162.32 15.42 162.32 13 161 C9.19 154.57 8.5 146.96 7.31 139.69 C7.19 138.95 7.07 138.22 6.94 137.46 C1.71 105.75 -1.66 73.63 -5.13 41.68 C-5.9 34.67 -6.9 27.72 -8.03 20.76 C-9.85 9.21 -9.85 9.21 -7.54 5.92 C-6.91 5.35 -6.28 4.78 -5.62 4.19 C-5.31 3.9 -5.31 3.9 -3.73 2.42 C-2 1 -2 1 0 0 Z " fill="#2C2A22" transform="translate(507,281)"/>
<path d="M0 0 C2.94 2.62 2.94 2.62 5 6 C5.56 6.87 6.11 7.73 6.69 8.62 C10.97 19.65 10.24 31.63 10.12 43.25 C10.11 44.98 10.11 46.71 10.1 48.43 C10.08 52.62 10.04 56.81 10 61 C9.67 61 9.34 61 9 61 C8.97 60 8.95 59 8.92 57.96 C8.47 46.02 5.51 39.59 -3 31 C-6.23 29.38 -9.51 29.43 -13 30 C-15.62 31.94 -15.62 31.94 -18 35 C-18.45 35.54 -18.89 36.08 -19.36 36.63 C-37.13 60.18 -42.15 97.99 -38.7 126.48 C-36.54 138.62 -30.6 151.35 -20.5 158.81 C-15.13 162.04 -9.12 161.9 -3 162 C-5.79 164.79 -7.6 164.33 -11.5 164.38 C-23.72 164.14 -31.24 159.32 -40 151 C-49.27 141.12 -52.38 128.09 -52.19 114.88 C-52.18 114.41 -52.18 114.41 -52.16 112.08 C-51.72 75.97 -40.41 29.31 -14.12 2.81 C-9.77 -0.74 -5.42 -1.49 0 0 Z " fill="#27251E" transform="translate(407,606)"/>
<path d="M0 0 C0.33 0.16 0.33 0.16 2 1 C-2.06 4.55 -6.15 7.45 -10.88 10.06 C-11.5 10.41 -12.12 10.76 -12.76 11.11 C-14.5 12.08 -16.25 13.04 -18 14 C-18.35 14.2 -18.35 14.2 -20.12 15.19 C-23.89 17.2 -27.78 18.66 -31.8 20.1 C-41.06 23.44 -49.09 26.85 -55.22 34.9 C-57.57 41.26 -55.54 49.06 -54.56 55.56 C-53.29 64.38 -52.4 73.1 -52 82 C-58.85 82.2 -65.15 81.52 -71.88 80.25 C-72.36 80.16 -72.36 80.16 -74.8 79.71 C-91.52 76.48 -91.52 76.48 -96 72 C-97.08 64.41 -95.26 56.66 -93.75 49.25 C-93.55 48.15 -93.34 47.06 -93.13 45.93 C-91.33 36.95 -88.86 31.69 -81.23 26.38 C-71.95 20.64 -61.85 19.75 -51.25 18.32 C-45.17 17.46 -39.69 16.29 -34 14 C-31.96 13.36 -29.92 12.73 -27.88 12.12 C-18.55 9.27 -10.18 6.48 -2 1.07 C-1.34 0.72 -0.68 0.37 0 0 Z " fill="#37342B" transform="translate(641,798)"/>
<path d="M0 0 C5.16 0.43 9.99 1.43 15 2.71 C36.27 8.06 57.85 9.27 79.69 9.25 C80.09 9.25 80.09 9.25 82.1 9.25 C95.37 9.21 95.37 9.21 99 8 C100.92 7.79 102.83 7.58 104.75 7.4 C115.06 6.44 124.95 4.45 135 2 C132.55 10.34 127.17 17.08 120 22 C99.26 32.64 65.87 28.32 44 23 C43.61 22.91 43.61 22.91 41.65 22.43 C30.95 19.76 20.92 15.78 11 11 C9.87 10.46 8.75 9.92 7.59 9.36 C0.24 5.61 0.24 5.61 -0.85 2.89 C-0.9 2.26 -0.95 1.64 -1 1 C-0.67 0.67 -0.34 0.34 0 0 Z " fill="#070706" transform="translate(504,512)"/>
<path d="M0 0 C16.96 4.11 31.71 10.35 41.55 25.37 C48.2 37.45 52.96 52.4 55 66 C37.31 65.58 37.31 65.58 32.03 61.97 C30.14 59.73 28.6 57.44 27 55 C26.28 54.5 25.57 54 24.83 53.48 C23 52 23 52 22.64 49.98 C22.65 49.25 22.67 48.51 22.69 47.75 C22.44 43.68 21.49 41.96 18.56 39.12 C17.95 38.59 17.33 38.06 16.69 37.51 C14.53 35.58 13.06 33.97 12.87 31 C12.92 30.25 12.96 29.49 13.01 28.72 C13.41 14 13.41 14 9.27 9.3 C7.17 7.31 4.94 5.59 2.59 3.9 C2.16 3.59 2.16 3.59 0 2 C0 1.34 0 0.68 0 0 Z " fill="#CEC2A2" transform="translate(613,144)"/>
<path d="M0 0 C0.33 0 0.66 0 1 0 C1.05 0.95 1.1 1.89 1.15 2.86 C2.87 35.04 2.87 35.04 4.32 49.75 C4.84 55.02 5.19 60.27 5.44 65.56 C5.76 72.11 6.52 78.57 7.44 85.06 C7.56 85.93 7.68 86.8 7.81 87.7 C8.58 92.9 9.69 97.9 11 103 C11.35 105 11.68 107 12 109 C41.44 117.69 72.45 122 103 116 C95.45 124.66 80.06 126.51 69.11 127.27 C65.21 127.36 61.33 127.36 57.44 127.31 C56.79 127.31 56.79 127.31 53.52 127.32 C41.96 127.26 30.54 126.24 19.5 122.69 C19.18 122.59 19.18 122.59 17.53 122.12 C8.85 119.4 4.76 113.81 0.55 106.17 C-6.1 92.57 -4.26 77.92 -2.77 63.3 C-0.66 42.24 -0.28 21.16 0 0 Z " fill="#333027" transform="translate(489,359)"/>
<path d="M0 0 C1.1 1.14 2.2 2.28 3.29 3.43 C5 5 5 5 7.3 6.41 C10.28 8.42 12.04 9.95 14 13 C14.69 17.16 14.52 21.36 14.47 25.57 C14.54 31.42 15.16 34.38 19.5 38.69 C19.91 39.05 19.91 39.05 22 40.91 C24.33 43.35 24.5 44.32 24.5 47.62 C24.51 50.85 24.78 51.75 26.96 54.23 C28.57 55.62 30.2 56.97 31.87 58.27 C34 60 34 60 36 63 C38.76 63.55 41.34 63.93 44.12 64.19 C44.88 64.27 45.63 64.35 46.41 64.44 C48.27 64.64 50.14 64.82 52 65 C52 65.33 52 65.66 52 66 C45.72 67.44 39.39 67.82 33 67 C30.49 65.3 29.68 63.65 28 61 C25.75 59.42 23.46 58.25 21 57 C20.73 57.62 20.46 58.24 20.19 58.88 C19 61 19 61 16 63 C15.01 63.06 14.02 63.12 13 63.19 C12.01 63.46 11.02 63.72 10 64 C8.62 67 8.62 67 7.99 68.88 C5.96 73.23 2.28 76.56 -1 80 C-1.33 79.01 -1.66 78.02 -2 77 C-0.64 74.29 -0.64 74.29 1.31 71.19 C3.83 67.16 5.51 63.49 7 59 C9.5 56.31 9.5 56.31 12 54 C14.36 50.46 14.59 48.57 14.53 44.41 C13.88 41.44 12.75 40.4 10.62 38.25 C5.75 32.77 6.16 26.66 5.78 19.68 C5.37 13.45 4.45 9.3 0.14 4.52 C-0.23 4.02 -0.61 3.52 -1 3 C-0.67 2.01 -0.34 1.02 0 0 Z " fill="#0D0D0C" transform="translate(612,144)"/>
<path d="M0 0 C0.33 0.16 0.33 0.16 2 1 C2.44 3.14 2.44 3.14 2.71 5.96 C2.82 6.99 2.93 8.02 3.05 9.08 C3.26 11.24 3.47 13.39 3.68 15.55 C4.39 22.08 5.72 27.74 8.18 33.84 C9 36 9 36 9 38 C9.99 38.33 10.98 38.66 12 39 C8.37 39.99 4.74 40.98 1 42 C0.84 35.07 0.84 35.07 0 0 Z " fill="#3A372D" transform="translate(663,717)"/>
<path d="M0 0 C0.66 0.33 1.32 0.66 2 1 C-2.06 4.55 -6.15 7.45 -10.88 10.06 C-11.49 10.41 -12.1 10.75 -12.74 11.1 C-14.49 12.07 -16.24 13.04 -18 14 C-18.82 14.46 -19.63 14.93 -20.48 15.4 C-24.44 17.55 -27.48 18.65 -32 18 C-32.66 17.34 -33.32 16.68 -34 16 C-34 15.34 -34 14.68 -34 14 C-33.19 13.76 -32.38 13.52 -31.54 13.27 C-11.07 7.07 -11.07 7.07 -2 1.07 C-1.34 0.72 -0.68 0.37 0 0 Z " fill="#333128" transform="translate(641,798)"/>
<path d="M0 0 C-5.62 3.07 -10.52 5.73 -17 6 C-17.66 5.67 -18.32 5.34 -19 5 C-19 4.34 -19 3.68 -19 3 C-19.78 3.01 -20.56 3.01 -21.37 3.02 C-24.93 3.04 -28.5 3.05 -32.06 3.06 C-33.29 3.07 -34.52 3.08 -35.79 3.09 C-41.63 3.1 -47.25 3.08 -53 2 C-53 1.67 -53 1.34 -53 1 C-52.46 1.01 -52.46 1.01 -49.72 1.03 C-45.64 1.07 -41.56 1.09 -37.48 1.11 C-35.72 1.12 -33.97 1.13 -32.22 1.15 C-22.73 1.24 -13.68 1.16 -4.34 -0.66 C-2 -1 -2 -1 0 0 Z " fill="#27251E" transform="translate(592,476)"/>
<path d="M0 0 C1.24 0.18 2.48 0.36 3.75 0.55 C17.48 2.55 31.23 4.32 45 6 C45 6.33 45 6.66 45 7 C32.44 7.28 19.19 7.48 7 4 C7 3.34 7 2.68 7 2 C5.02 2.33 3.04 2.66 1 3 C0.67 2.01 0.34 1.02 0 0 Z " fill="#0a0f16" transform="translate(386,887)"/>
<path d="M0 0 C2.23 3.71 2.8 7.67 3.5 11.88 C4.16 15.77 4.82 19.48 6.09 23.23 C7.33 27.01 7.14 30.05 7 34 C4.48 29.23 2.97 24.18 1.31 19.06 C0.98 18.07 0.65 17.08 0.3 16.06 C-0.01 15.11 -0.32 14.15 -0.64 13.16 C-0.92 12.29 -1.21 11.42 -1.5 10.52 C-2.27 6.63 -1.24 3.71 0 0 Z " fill="#38352C" transform="translate(648,635)"/>
<path d="M0 0 C1.27 0.02 2.54 0.04 3.86 0.05 C4.34 0.07 4.34 0.07 6.81 0.12 C6.81 0.46 6.81 0.78 6.81 1.12 C5.93 1.22 5.05 1.32 4.14 1.42 C2.98 1.57 1.82 1.72 0.62 1.88 C0.05 1.94 0.05 1.94 -2.86 2.3 C-6.58 3.22 -8.26 4.74 -11.19 7.12 C-13.64 7.52 -13.64 7.52 -16 7.38 C-16.79 7.34 -17.58 7.3 -18.39 7.27 C-18.99 7.22 -19.58 7.17 -20.19 7.12 C-20.19 6.13 -20.19 5.14 -20.19 4.12 C-19.5 4 -18.81 3.88 -18.11 3.76 C-17.65 3.67 -17.65 3.67 -15.38 3.25 C-14.48 3.09 -13.59 2.93 -12.67 2.76 C-1.73 -0.03 -1.73 -0.03 0 0 Z " fill="#2C2B2C" transform="translate(466.1875,849.875)"/>
<path d="M0 0 C-1.25 3.65 -1.67 4.78 -5 7 C-8.06 7.25 -8.06 7.25 -11 7 C-11.66 6.34 -12.32 5.68 -13 5 C-13 4.34 -13 3.68 -13 3 C-11.21 2.5 -9.42 2 -7.62 1.5 C-6.63 1.22 -5.63 0.94 -4.6 0.66 C-2 0 -2 0 0 0 Z " fill="#676251" transform="translate(620,809)"/>
<path d="M0 0 C1.79 2.69 2.66 4.66 3.62 7.69 C3.89 8.5 4.15 9.3 4.41 10.14 C4.61 10.75 4.8 11.37 5 12 C4.01 12.66 3.02 13.32 2 14 C0.66 9.16 -0.25 5.07 0 0 Z " fill="#2C2C2C" transform="translate(640,628)"/>
<path d="M0 0 C2.09 3.4 2.18 6.05 2 10 C1.01 10 0.02 10 -1 10 C-2.23 4.58 -2.23 4.58 -1.06 1.62 C-0.89 1.36 -0.89 1.36 0 0 Z " fill="#3B382E" transform="translate(648,635)"/>
<path d="M0 0 C0 0.66 0 1.32 0 2 C-5.58 3.07 -10.39 2.83 -16 2 C-16 1.67 -16 1.34 -16 1 C-14.27 0.83 -12.54 0.66 -10.81 0.5 C-9.85 0.41 -8.89 0.31 -7.89 0.22 C-5.25 0.02 -2.65 -0.04 0 0 Z " fill="#282620" transform="translate(582,477)"/>
<path d="M0 0 C4.88 4.75 4.88 4.75 6 7 C5.34 7 4.68 7 4 7 C3.67 7.66 3.34 8.32 3 9 C0.94 6.19 0.94 6.19 -1 3 C-0.67 2.01 -0.34 1.02 0 0 Z " fill="#1B1B1C" transform="translate(612,144)"/>
<path d="M0 0 C1.98 0.33 1.98 0.33 12 2 C9 4 9 4 7 4 C7 3.34 7 2.68 7 2 C5.02 2.33 3.04 2.66 1 3 C0.67 2.01 0.34 1.02 0 0 Z " fill="#0a0f16" transform="translate(386,887)"/>
<path d="M0 0 C2.31 0 4.62 0 7 0 C7 0.66 7 1.32 7 2 C8.32 2.33 9.64 2.66 11 3 C9.54 3.03 8.08 3.05 6.62 3.06 C5.81 3.07 5 3.09 4.16 3.1 C2 3 2 3 0 2 C0 1.34 0 0.68 0 0 Z " fill="#0a0f16" transform="translate(386,889)"/>
<path d="M0 0 C0.66 0.99 1.32 1.98 2 3 C0.35 4.98 -1.3 6.96 -3 9 C-3.33 8.01 -3.66 7.02 -4 6 C-2.06 2.81 -2.06 2.81 0 0 Z " fill="#414140" transform="translate(614,215)"/>
<path d="M0 0 C0.33 0.66 0.66 1.32 1 2 C0.34 2 -0.32 2 -1 2 C-1.33 2.99 -1.66 3.98 -2 5 C-2.66 4.67 -3.32 4.34 -4 4 C-4 3.34 -4 2.68 -4 2 C-5.65 2 -7.3 2 -9 2 C-9 1.67 -9 1.34 -9 1 C-7.51 0.84 -7.51 0.84 0 0 Z " fill="#121213" transform="translate(668,209)"/>
<path d="M0 0 C-0.66 1.65 -1.32 3.3 -2 5 C-2.99 5 -3.98 5 -5 5 C-5.33 3.68 -5.66 2.36 -6 1 C-3.92 0.45 -2.16 0 0 0 Z " fill="#312D25" transform="translate(620,809)"/>
<path d="M933 -120v220q-91 0 -142 25.5t-44 101.5l31 295q12 112 -24.5 181t-111 105.5t-175.5 51.5q107 16 181 52t108 104t22 182l-31 295q-7 76 44 101.5t142 25.5v220q-276 0 -387.5 -83.5t-90.5 -285.5l30 -286q8 -76 -25.5 -119t-98.5 -60.5t-150 -17.5v-256
q84 0 149 -17.5t99 -60.5t26 -119l-30 -284q-22 -206 90 -288.5t388 -82.5z" fill="#b45309" transform="translate(438.54,668.40) scale(0.031795)"/>
<path d="M1054 604v247h-908v-247h908zM1054 1025v245h-908v-245h908z" fill="#b45309" transform="translate(472.69,668.40) scale(0.031795)"/>
<path d="M150 1560v-212h140v-640h-140v-210h381l58 239q57 -137 145.5 -204t216.5 -67q54 0 96 8.5t79 23.5l-59 444h-198v-196q-90 16 -158 97.5t-105 200.5v304h210v212h-666z" fill="#0891b2" transform="translate(506.85,668.40) scale(0.031795)"/>
<path d="M600 463q164 0 279 70t176 196.5t61 296.5q0 266 -136 417t-380 151t-380 -149t-136 -417q0 -169 61.5 -296t177 -198t277.5 -71zM600 696q-97 0 -143.5 79.5t-46.5 252.5q0 176 46.5 255t143.5 79t143.5 -79t46.5 -257q0 -172 -46.5 -251t-143.5 -79z" fill="#0891b2" transform="translate(541.00,668.40) scale(0.031795)"/>
<path d="M509 463q163 0 261 120l14 -85h276v1505l-316 -33v-499q-46 55 -112 89t-160 34q-136 0 -222 -70.5t-126 -198t-40 -299.5q0 -164 49.5 -291t144.5 -199.5t231 -72.5zM592 694q-87 0 -134.5 77.5t-47.5 256.5q0 131 20 203t56.5 100.5t85.5 28.5q55 0 97 -32t75 -89v-458
q-31 -41 -67 -64t-85 -23z" fill="#0891b2" transform="translate(575.15,668.40) scale(0.031795)"/>
<path d="M267 -120q276 0 387.5 83t90.5 286l-30 286q-8 76 26 119t98.5 60.5t149.5 17.5v256q-84 0 -149 17.5t-99 60.5t-26 119l30 284q23 205 -89.5 288t-388.5 83v-220q92 0 143 -25.5t43 -101.5l-31 -295q-12 -113 24.5 -181.5t111.5 -105t176 -51.5q-107 -16 -181.5 -52
t-108.5 -104.5t-22 -181.5l31 -295q8 -76 -43.5 -101.5t-142.5 -25.5v-220z" fill="#b45309" transform="translate(609.31,668.40) scale(0.031795)"/>
</g>
</svg>
