<?xml version="1.0" encoding="UTF-8" standalone="no"?>
<!DOCTYPE svg PUBLIC "-//W3C//DTD SVG 1.1//EN" "http://www.w3.org/Graphics/SVG/1.1/DTD/svg11.dtd">
<!-- Created with Vectornator (http://vectornator.io/) -->
<svg height="100%" stroke-miterlimit="10" style="fill-rule:nonzero;clip-rule:evenodd;stroke-linecap:round;stroke-linejoin:round;" version="1.1" viewBox="0 0 1024 1024" width="100%" xml:space="preserve" xmlns="http://www.w3.org/2000/svg" xmlns:vectornator="http://vectornator.io" xmlns:xlink="http://www.w3.org/1999/xlink">
<defs/>
<path d="M0 0L1024 0L1024 1024L0 1024L0 0Z" fill="#ffffff" fill-rule="nonzero" opacity="1" stroke="none" vectornator:artboardBackground="true"/>
<g id="Layer-1" vectornator:layerName="Layer 1">
<g opacity="1" vectornator:layerName="Group 1">
<path d="M514.842 39.9062C480.209 39.7206 445.35 41.0775 411.935 51.0625C409.959 51.7084 408.041 52.3419 406.123 52.9687C389.526 58.3059 373.849 64.8408 358.279 72.6875C355.95 73.9003 353.696 75.0729 351.435 76.25C340.428 81.9758 330.18 88.0264 320.217 95.4375C307.452 112.542 305.404 134.567 303.717 155.375C303.531 158.155 303.365 160.864 303.185 163.562C298.967 222.333 298.183 281.438 297.779 340.344C297.77 342.9 297.757 345.363 297.748 347.844C297.647 365.726 296.295 385.604 304.873 401.687C313.134 408.916 320.727 411.456 331.154 414.5C332.843 414.944 334.483 415.35 336.123 415.781C336.26 418.449 336.396 421.036 336.529 423.625C336.738 427.137 336.951 430.56 337.154 433.969C337.687 443.464 338.401 452.157 340.873 461.344C348.565 475.056 348.555 475.044 381.31 487.469C383.505 488.046 385.649 488.627 387.779 489.187C386.855 491.035 385.957 492.8 385.06 494.594C370.868 515.355 359.829 536.215 351.529 559.969C350.914 561.768 350.313 563.535 349.717 565.281C336.744 603.035 327.352 662.135 344.623 699.625C346.43 702.375 346.415 702.367 348.185 705.062C351.742 710.657 351.746 710.662 355.154 714.75C357.002 714.75 358.798 714.75 360.592 714.75C356.553 728.427 352.93 742.167 349.592 756.031C348.945 758.742 348.312 761.369 347.685 764C346.661 768.058 346.658 768.054 345.654 772.031C344.727 775.961 344.719 775.96 343.81 779.812C341.105 790.921 342.026 796.831 346.998 807.156C401.857 816.992 401.856 816.994 515.498 815.312C517.346 811.616 519.142 808.025 520.935 804.438C554.574 809.67 588.607 815.798 622.717 816.188C639.513 816.063 666.206 819.511 678.56 807.156C683.352 786.632 683.359 786.635 664.373 751C659.422 741.708 654.73 732.783 651.685 722.688C650.835 716.45 650.829 716.455 656.998 708.625C659.784 705.33 662.42 701.922 664.967 698.438C687.162 650.674 677.101 591.138 660.56 543.031C656.315 531.363 653.086 520.506 651.404 508.187C657.909 506.458 664.382 504.719 670.873 502.937C673.602 502.187 676.256 501.447 678.904 500.719C695.457 496.323 712.217 493.196 724.779 481.031C726.467 471.413 726.463 471.405 726.342 465.937C726.213 464.021 726.091 462.142 725.967 460.281C725.632 448.435 724.718 436.725 723.498 424.937C721.085 398.307 721.102 398.309 719.342 371.625C719.111 368.153 718.879 364.776 718.654 361.406C718.423 358.049 718.191 354.789 717.967 351.531C717.005 337.175 715.631 323.551 711.404 309.75C710.381 306.831 709.367 303.989 708.373 301.156C706.148 294.687 703.933 288.243 701.685 281.781C695.215 263.362 680.089 234.031 689.31 214.719C697.352 199.318 695.239 182.096 691.123 165.844C690.192 162.476 690.192 162.488 689.279 159.187C688.002 154.385 686.696 149.58 685.404 144.781C683.327 137.332 681.284 129.892 679.342 122.406C678.069 117.48 676.773 112.565 675.435 107.656C674.773 105.254 674.11 102.926 673.467 100.594C671.282 92.0094 669.055 83.9472 664.967 76.0625C652.284 61.9184 639.052 56.1711 620.904 51.2812C617.407 50.4691 614.018 49.6945 610.623 48.9062C580.776 41.8457 551.116 40.0239 520.529 39.9062C518.586 39.9021 516.727 39.9103 514.842 39.9062ZM514.248 50.9375C516.24 50.9403 518.158 50.9348 520.092 50.9375C561.968 50.9785 604.969 53.1595 643.967 69.9375C652.515 76.1369 656.162 84.8936 659.373 94.75C660.097 97.648 660.796 100.468 661.498 103.281C662.317 106.508 663.109 109.618 663.904 112.75C665.51 119.258 667.143 125.781 668.779 132.281C669.598 135.53 670.39 138.691 671.185 141.844C674.803 156.286 678.605 170.647 682.56 185C683.053 186.773 683.519 188.498 683.998 190.219C668.382 183.309 653.41 178.337 636.623 174.937C630.652 173.823 624.69 172.587 618.779 171.187C614.662 168.443 614.659 168.441 610.623 165.75C603.961 169.882 599.562 171.222 591.654 171.781C586.885 171.711 586.861 171.694 582.185 171.625C576.85 171.579 571.52 171.551 566.185 171.469C542.994 171.086 520.154 170.873 497.06 173.062C487.665 174.134 482.582 175.796 475.029 169.875C474.002 168.471 473.026 167.113 472.029 165.75C472.029 168.522 472.029 171.216 472.029 173.906C466.178 175.479 460.322 177.066 454.467 178.625C452.005 179.28 449.606 179.896 447.217 180.531C444.82 181.176 442.512 181.812 440.185 182.437C437.839 183.06 435.557 183.646 433.279 184.25C423.484 186.867 414.211 188.532 404.092 190.219C397.623 155.105 391.338 121.018 385.06 86.9375C373.033 92.9513 362.099 98.6065 349.717 103.25C348.871 95.2904 348.873 95.2809 352.967 91C396.479 54.928 460.293 50.9892 514.248 50.9375ZM344.279 95.0937C343.355 98.7899 342.457 102.381 341.56 105.969C331.953 107.341 331.977 107.342 322.56 108.687C323.484 106.839 324.351 105.044 325.248 103.25C331.773 98.8996 336.305 95.0937 344.279 95.0937ZM535.998 208.875C538.494 208.871 540.888 208.878 543.31 208.875C545.922 208.886 548.463 208.896 550.998 208.906C553.62 208.895 556.171 208.885 558.717 208.875C562.419 208.88 562.432 208.87 566.06 208.875C570.05 208.88 574.048 208.982 578.029 209.25C591.457 231.13 591.43 231.125 599.435 256.562C600.259 258.872 601.073 261.102 601.873 263.344C603.498 267.895 605.107 272.474 606.717 277.031C611.022 289.741 615.197 301.132 623.123 312.062C629.374 319.859 629.361 319.855 632.404 325.75C636.492 334.711 638.297 338.228 635.092 347.844C614.053 351.414 593.503 353.646 572.154 353.812C569.645 353.811 567.215 353.783 564.779 353.781C556.481 353.787 548.263 353.635 539.967 353.281C535.255 344.462 535.248 344.473 534.654 333.906C531.512 311.102 527.737 288.528 523.154 265.969C519.252 247.676 517.568 230.695 518.217 211.969C523.472 208.899 523.473 208.906 529.217 208.906C532.631 208.902 532.651 208.88 535.998 208.875ZM594.31 217.406C617.247 218.605 640.466 220.698 662.279 228.281C674.011 235.199 677.7 241.744 681.185 254.844C684.377 268.037 687.46 281.116 693.217 293.437C703.728 313.917 704.565 332.631 705.092 355.219C705.516 375.398 706.78 395.338 708.623 415.437C710.338 433.743 711.761 451.759 711.185 470.156C697.408 477.85 697.397 477.854 681.279 481.031C674.933 481.906 668.616 482.811 662.279 483.75C644.066 491.158 628.129 493.58 608.529 494.562C605.62 496.769 607.36 488.376 604.078 487.332C604.068 487.329 598.664 496.222 598.654 496.219C598.409 496.238 592.057 488.295 591.806 488.295C590.601 488.295 595.598 496.015 594.529 495.625C594.448 496.126 594.419 497.069 594.31 497.312C580.02 497.521 565.991 497.977 551.842 495.781C548.582 495.181 548.599 495.182 545.404 494.594C539.837 497.927 539.844 497.944 532.31 497C529.257 496.708 526.274 496.409 523.31 496.125C517.987 495.63 512.662 495.123 507.342 494.594C505.288 484.303 501.559 479.93 493.748 472.875C498.103 482.264 498.106 482.24 501.904 491.875C498.208 491.875 494.648 491.875 491.06 491.875C490.136 487.255 489.238 482.797 488.342 478.312C487.418 482.933 486.52 487.391 485.623 491.875C477.669 491.875 470.445 490.756 462.654 489.25C460.759 488.875 458.9 488.52 457.06 488.156C446.302 486.148 437.831 484.513 428.529 478.312C427.297 472.896 426.137 467.435 425.342 461.937C425.044 459.622 424.756 457.373 424.467 455.125C423.429 447.827 422.392 440.554 421.404 433.25C420.075 423.352 418.697 413.453 417.31 403.562C416.964 401.118 416.647 398.748 416.31 396.375C414.17 381.174 411.733 366.335 407.81 351.469C405.838 344.266 404.125 337.48 403.248 330.062C402.08 314.88 399.395 301.215 395.185 286.562C393.613 281.262 392.037 275.957 390.467 270.656C389.712 268.03 388.98 265.486 388.248 262.937C385.521 253.758 384.672 251.165 387.779 241.844C392.62 241.141 397.464 240.446 402.31 239.781C405.353 239.366 405.328 239.376 408.31 238.969C419.873 237.266 430.164 236.313 441.873 237.344C450.358 239.144 453.366 240.422 458.435 247.281C445.329 248.92 434.213 253.942 423.092 260.875C413.471 270.249 410.735 277.478 409.498 290.781C411.346 291.705 413.142 292.603 414.935 293.5C427.689 281.408 438.738 271.467 455.717 266.312C467.899 264.866 481.088 264.124 491.06 271.75C496.925 289.004 497.024 307.038 496.842 325.062C496.723 331.149 496.592 337.257 496.498 343.344C496.464 346.349 496.438 349.24 496.404 352.156C496.147 366.014 499.444 375.851 504.623 388.625C506.471 388.625 508.267 388.625 510.06 388.625C534.572 401.394 534.566 401.382 587.029 399.656C587.868 399.625 588.678 399.589 589.498 399.562C590.948 398.537 593.057 416.551 594.373 397.781C594.352 397.448 594.329 397.115 594.31 396.781C609.019 391.554 622.869 386.967 634.404 376.219C640.212 360.247 640.482 342.265 635.092 326.094C624.263 310.037 613.077 294.105 610.623 274.469C616.261 269.987 616.266 269.984 624.217 266.312C637.519 264.786 645.582 265.514 657.498 271.594C664.525 275.645 670.597 278.232 678.56 279.906C678.56 278.058 678.56 276.263 678.56 274.469C675.476 267.336 671.87 262.181 666.092 256.969C651.217 246.239 636.795 244.516 618.779 247.281C611.66 252.027 607.797 253.772 599.748 255.437C599.109 253.077 598.493 250.791 597.873 248.5C597.068 245.432 596.279 242.447 595.498 239.469C593.204 230.844 590.252 225.524 594.31 217.406ZM640.529 540.812C643.301 541.737 645.995 542.634 648.685 543.531C657.129 565.633 657.126 565.622 660.592 589.188C660.932 591.737 661.262 594.213 661.592 596.688C664.956 621.656 671.514 657.398 656.842 679.406C655.7 671.074 654.533 662.736 653.373 654.406C652.872 650.834 652.39 647.374 651.904 643.906C649.379 625.862 647.03 607.782 643.31 589.938C639.447 572.392 636.558 558.5 640.529 540.812ZM627.998 555.312C630.391 555.413 632.759 555.959 635.092 557.125C635.541 559.127 635.968 561.056 636.404 563C636.709 565.661 637.014 568.261 637.31 570.844C637.658 573.82 638.004 576.705 638.342 579.594C638.683 582.811 639.01 585.939 639.342 589.062C641.632 610.001 643.704 630.945 645.029 651.969C645.236 655.626 645.233 655.602 645.435 659.188C646.607 677.431 648.559 699.966 635.904 714.656C625.88 720.151 619.775 722.82 608.092 723.562C605.262 723.331 602.494 723.131 599.748 722.906C590.603 727.537 590.621 727.53 579.685 727.656C575.078 728.108 570.449 728.545 565.842 729C563.598 729.231 561.425 729.463 559.248 729.688C555.526 730.052 551.821 730.504 548.123 731.062C537.179 734.113 537.185 734.091 525.623 732.25C509.452 729.601 487.978 728.695 477.467 714.75C477.467 712.902 477.467 711.106 477.467 709.312C475.734 709.172 474.054 709.043 472.373 708.906C465.934 707.098 465.922 707.085 463.529 700.125C462.721 697.183 461.939 694.324 461.154 691.469C459.776 686.514 458.391 681.569 457.092 676.594C456.166 673.027 455.239 669.464 454.279 665.906C447.342 640.216 433.089 604.611 442.123 578.844C448.651 574.36 453.076 573.432 461.029 572.906C464.205 572.971 467.291 573.031 470.373 573.094C473.898 573.142 477.326 573.172 480.748 573.219C524.118 574.036 564.112 572.102 606.217 560.688C613.426 558.61 620.817 555.011 627.998 555.312ZM522.842 747.094C524.462 747.123 526.445 747.201 529.092 747.344C529.399 763.042 529.773 774.868 520.935 788.125C519.081 776.625 515.495 765.927 511.748 754.938C511.174 753.281 510.617 751.67 510.06 750.062C516.39 747.595 517.981 747.006 522.842 747.094ZM647.56 760.031C650.002 760.116 652.296 760.387 656.842 760.938C662.455 768.448 662.454 768.465 664.092 775.562C664.572 777.988 665.032 780.333 665.498 782.688C667.383 791.8 667.967 795.436 664.967 804.438C658.892 804.493 652.823 804.53 646.748 804.562C642.998 804.581 643.018 804.575 639.342 804.594C636.828 804.617 634.375 804.634 631.935 804.656C629.544 804.665 627.225 804.678 624.904 804.688C621.049 804.713 617.189 804.673 613.342 804.438C609.973 801.616 609.988 801.607 609.779 795.5C609.552 792.934 609.312 790.459 609.092 787.969C608.857 785.395 608.632 782.873 608.404 780.375C608.234 778.386 608.069 776.462 607.904 774.531C606.056 774.531 604.26 774.531 602.467 774.531C605.553 779.82 605.569 779.817 605.56 785.75C605.553 787.999 605.536 790.192 605.529 792.375C605.536 794.631 605.554 796.811 605.56 799C605.798 804.423 605.783 804.437 602.467 807.156C598.349 804.411 598.346 804.409 594.31 801.719C595.234 788.782 596.132 776.212 597.029 763.656C606.988 762.054 616.564 760.932 626.654 760.406C632.031 760.342 632.008 760.344 637.279 760.281C642.5 760.07 645.119 759.946 647.56 760.031ZM484.092 762.625C491.808 762.439 498.314 762.785 504.623 769.094C510.987 787.462 510.989 787.476 510.06 807.156C505.532 807.272 500.995 807.267 496.467 807.156C495.543 806.232 494.645 805.334 493.748 804.438C488.484 804.31 483.231 804.336 477.967 804.438C467.72 804.637 460.333 804.232 450.279 801.719C449.355 793.403 448.457 785.321 447.56 777.25C446.636 786.49 445.738 795.469 444.842 804.438C440.124 804.523 440.123 804.509 435.498 804.594C426.317 805.554 426.31 805.567 423.092 801.719C422.705 791.485 422.019 781.462 425.81 771.812C430.559 765.538 432.914 763.827 440.81 762.656C443.546 762.665 446.186 762.679 448.842 762.688C451.821 762.689 454.731 762.685 457.623 762.688C460.733 762.733 463.73 762.769 466.748 762.812C471.383 762.799 471.392 762.795 475.935 762.781C478.808 762.8 481.519 762.687 484.092 762.625Z" fill="#000000" fill-rule="nonzero" opacity="1" stroke="none" vectornator:layerName="Curve 1"/>
</g>
<g fill="#000000" opacity="1" stroke="none" vectornator:layerName="Text 1">
<path d="M481.455 678.862C478.978 679.151 477.169 678.701 476.025 677.511C474.882 676.322 474.147 674.331 473.82 671.539L472.192 657.626C472.081 656.681 471.837 655.956 471.458 655.453C471.08 654.949 470.66 654.679 470.199 654.642C470.154 654.647 469.696 654.632 468.825 654.597C467.744 654.724 467.149 654.314 467.038 653.368C466.911 652.288 467.389 651.684 468.469 651.558C469.049 651.444 469.523 651.298 469.89 651.118C470.257 650.938 470.571 650.604 470.834 650.117C471.086 649.54 471.159 648.801 471.054 647.901L470.479 644.75L469.886 640.849C469.702 639.273 469.713 638.199 469.92 637.627C469.735 636.827 469.621 636.247 469.579 635.887C469.331 633.77 469.717 631.991 470.734 630.548C471.752 629.105 473.342 628.258 475.503 628.005C476.899 627.841 478.169 627.966 479.313 628.38C480.025 628.616 480.407 628.96 480.46 629.41C480.513 629.86 480.365 630.254 480.016 630.592C479.668 630.929 479.246 631.127 478.751 631.185C478.436 631.222 477.86 631.175 477.023 631.045C476.186 630.914 475.61 630.868 475.295 630.904C473.179 631.152 472.445 634.045 473.093 639.583C473.214 640.619 473.38 641.649 473.591 642.674L474.177 646.508C474.514 649.39 474.338 651.396 473.649 652.526C474.53 653.427 475.1 654.981 475.358 657.187L477.058 671.708C477.426 674.86 478.601 676.32 480.583 676.088C481.078 676.03 481.737 675.816 482.561 675.446C483.526 675.105 484.188 674.913 484.548 674.871C484.683 674.855 484.828 675.021 484.983 675.368C485.137 675.715 485.231 676.023 485.262 676.294C485.32 676.789 485.121 677.234 484.665 677.63C484.21 678.026 483.675 678.328 483.06 678.537C482.35 678.711 481.815 678.819 481.455 678.862Z"/>
<path d="M506.173 677.133C504.643 677.312 503.819 676.906 503.703 675.915C503.371 673.079 503.303 669.572 503.499 665.396C503.624 661 503.594 657.626 503.41 655.274C502.049 655.342 500.49 655.478 498.734 655.684L497.129 656.009C497.083 656.79 497.125 657.926 497.254 659.417C497.5 664.637 497.612 668.527 497.592 671.085C497.61 673.183 497.467 674.888 497.164 676.201C496.906 677.51 496.507 678.195 495.967 678.259C495.472 678.317 495.017 678.233 494.603 678.007C494.188 677.782 493.957 677.467 493.91 677.062C493.288 671.748 493.288 664.925 493.911 656.591L491.9 656.963C490.054 657.179 489.047 656.567 488.878 655.126C488.762 654.135 489.762 653.516 491.879 653.268L493.027 653.134L493.905 653.031C494.036 650.643 494.031 647.676 493.89 644.133L492.218 644.465C490.102 644.713 488.967 644.184 488.814 642.878L488.775 642.54L489.661 641.341L490.674 641.223L491.687 641.104C492.633 640.994 493.328 640.889 493.773 640.792L493.891 636.533C494.034 632.682 493.966 629.564 493.686 627.177L493.615 626.57L493.544 625.962C493.449 625.151 493.491 624.53 493.668 624.099C493.846 623.667 494.272 623.412 494.948 623.333L495.488 623.27L496.413 624.736C496.618 626.492 496.716 629.082 496.706 632.507C496.696 635.931 496.786 638.454 496.976 640.075C497.256 640.133 497.869 640.107 498.815 639.996L499.963 639.862C501.314 639.704 502.271 639.5 502.836 639.252C503.059 637.263 503.228 633.637 503.343 628.375C503.36 626.958 503.415 625.286 503.509 623.358C503.925 622.624 504.448 622.221 505.079 622.147C505.439 622.105 505.816 622.209 506.211 622.46C506.605 622.71 506.821 622.993 506.858 623.308C507.053 624.974 506.968 627.563 506.603 631.075C506.211 634.361 506.076 636.91 506.197 638.722L508.358 638.469L509.958 639.856C509.921 640.317 509.872 640.676 509.811 640.934C509.75 641.193 509.594 641.428 509.345 641.639C509.057 641.901 508.755 642.051 508.439 642.088L506.195 642.213C506.018 644.607 506.088 647.543 506.404 651.021L506.742 650.981L507.079 650.942C508.97 650.72 509.995 651.285 510.153 652.636C510.285 653.762 509.495 654.425 507.784 654.625L507.582 654.649L506.628 654.692C506.649 655.648 506.657 657.86 506.652 661.33C506.619 667.678 506.787 672.428 507.156 675.58L506.173 677.133ZM497.814 652.505C500.111 652.237 501.814 651.969 502.923 651.702C503.101 647.756 503.124 644.832 502.992 642.931C501.981 642.866 500.912 642.9 499.786 643.032C498.616 643.169 497.678 643.347 496.973 643.566C496.657 645.931 496.642 648.923 496.928 652.541C497.069 652.57 497.364 652.558 497.814 652.505Z"/>
<path d="M532.738 671.285C531.207 671.464 530.007 667.839 529.137 660.41L528.754 656.552L528.458 653.438L528.435 653.235L528.356 652.56C528.358 652.194 528.331 651.764 528.273 651.269C528.262 651.178 528.182 651.074 528.031 650.955C527.88 650.835 527.799 650.731 527.789 650.641L527.781 650.573C527.566 650.689 527.166 650.782 526.581 650.85C525.995 650.919 525.265 650.913 524.388 650.833C524.113 650.82 523.379 650.791 522.187 650.748L523.096 658.515C523.233 659.686 523.517 661.524 523.947 664.03C524.372 666.491 524.655 668.329 524.798 669.544C524.877 670.22 524.765 670.826 524.463 671.364C524.161 671.901 523.717 672.204 523.131 672.273C522.276 672.373 521.571 671.611 521.015 669.987C520.455 668.318 520.014 666.11 519.693 663.364L519.188 657.877C519.053 656.341 518.886 654.718 518.686 653.007L518.552 651.859L518.441 650.913C518.357 650.193 518.279 649.722 518.207 649.503L518.168 649.165L517.912 645.224C517.712 643.513 517.347 640.977 516.816 637.616C516.286 634.255 515.921 631.718 515.721 630.007C515.657 629.467 515.782 628.973 516.095 628.526C516.408 628.079 516.834 627.823 517.375 627.76C518.815 627.591 519.694 628.858 520.01 631.559L520.855 639.95C521.06 642.482 521.344 645.301 521.708 648.408C522.41 648.554 523.639 648.525 525.395 648.319L527.894 648.027C527.952 647.746 527.965 647.471 527.934 647.2C527.681 645.039 527.172 641.858 526.406 637.657C525.627 633.732 525.093 630.531 524.803 628.055C524.745 627.559 524.888 627.12 525.231 626.738C525.574 626.355 526.016 626.133 526.556 626.069C526.871 626.032 527.335 626.092 527.947 626.249L528.586 626.448C529.334 632.842 530.558 641.348 532.257 651.966L534.865 668.982C534.938 669.613 534.76 670.136 534.329 670.551C533.899 670.967 533.368 671.211 532.738 671.285Z"/>
<path d="M546.416 670.575C545.831 670.643 545.278 670.502 544.758 670.152C544.237 669.803 543.921 669.338 543.807 668.757L543.602 667.001L543.443 665.651C543.351 665.251 543.273 664.781 543.21 664.24C543.099 663.295 542.863 661.862 542.501 659.941L541.861 655.635C541.602 653.428 541.285 650.134 540.909 645.75C540.631 641.812 540.336 638.515 540.025 635.858C539.952 635.228 539.773 634.29 539.491 633.045C539.203 631.755 539.025 630.818 538.956 630.232C538.582 627.035 539.341 625.326 541.232 625.105C542.717 624.931 544.474 625.022 546.501 625.378C548.528 625.734 549.589 626.318 549.684 627.128C549.737 627.578 549.594 628.017 549.256 628.445C548.918 628.872 548.492 629.23 547.978 629.519C546.008 629.065 544.245 628.815 542.687 628.769C542.811 629.439 542.947 630.404 543.095 631.665C543.306 633.466 543.473 635.089 543.596 636.536C543.714 638.713 543.836 640.341 543.963 641.422L544.292 642.479L545.365 642.285C545.719 642.198 546.167 642.123 546.707 642.059C548.869 641.806 550.023 642.31 550.171 643.571C550.229 644.066 550.075 644.507 549.709 644.892C549.343 645.277 548.845 645.506 548.215 645.58C547.404 645.675 546.769 645.704 546.308 645.666L544.619 645.864C544.847 647.024 545.092 648.73 545.355 650.981C545.619 653.232 545.833 655.261 545.999 657.067C546.185 659.83 546.358 661.886 546.516 663.237C546.811 665.759 547.003 667.014 547.093 667.004L549.314 666.675C550.075 666.541 550.995 666.41 552.076 666.284C553.787 666.083 554.705 666.524 554.832 667.604C554.905 668.235 554.681 668.752 554.157 669.155C553.634 669.559 552.967 669.808 552.157 669.903L546.416 670.575Z"/>
<path d="M572.915 667.679C571.231 667.328 569.196 667.292 566.809 667.572C566.141 668.106 565.402 668.421 564.592 668.516C564.052 668.579 563.562 668.397 563.124 667.969C562.686 667.541 562.436 667.057 562.372 666.516C561.93 662.734 561.497 657.673 561.075 651.332C560.56 644.592 560.107 639.556 559.717 636.224L559.662 635.751C559.06 632.946 558.677 630.845 558.514 629.45C558.013 625.172 558.551 622.941 560.127 622.757C560.577 622.704 560.991 622.827 561.368 623.125C561.745 623.423 561.96 623.797 562.013 624.248C562.076 624.788 562.109 625.651 562.111 626.838C562.107 627.979 562.14 628.843 562.208 629.428C562.561 632.445 562.903 635.166 563.232 637.592C563.557 639.973 563.895 642.672 564.248 645.689C564.102 646.391 564.1 647.35 564.243 648.565L564.337 649.376L564.827 654.727C564.921 656.314 565.087 658.12 565.324 660.146C565.688 663.253 566.612 664.719 568.098 664.545C568.188 664.535 568.333 664.507 568.533 664.46C568.733 664.414 569.013 664.37 569.373 664.328C569.773 664.235 570.289 664.152 570.919 664.078C573.35 663.794 574.645 664.327 574.803 665.678C574.856 666.128 574.698 666.534 574.33 666.897C573.961 667.26 573.49 667.52 572.915 667.679Z"/>
<path d="M591.015 665.56C589.331 665.21 587.296 665.174 584.91 665.453C584.242 665.988 583.503 666.303 582.692 666.398C582.152 666.461 581.663 666.278 581.225 665.85C580.787 665.422 580.536 664.938 580.473 664.398C580.03 660.616 579.598 655.554 579.175 649.214C578.66 642.473 578.208 637.437 577.818 634.105L577.762 633.633C577.16 630.828 576.778 628.727 576.614 627.331C576.114 623.054 576.651 620.823 578.227 620.638C578.677 620.586 579.091 620.708 579.468 621.007C579.846 621.305 580.061 621.679 580.113 622.129C580.177 622.67 580.209 623.533 580.211 624.72C580.208 625.861 580.24 626.724 580.309 627.31C580.662 630.326 581.003 633.048 581.333 635.474C581.657 637.855 581.996 640.554 582.349 643.571C582.203 644.273 582.201 645.231 582.343 646.447L582.438 647.257L582.927 652.609C583.022 654.195 583.187 656.002 583.424 658.028C583.788 661.135 584.713 662.601 586.199 662.427C586.289 662.417 586.434 662.388 586.634 662.342C586.834 662.296 587.114 662.252 587.474 662.209C587.874 662.117 588.389 662.034 589.019 661.96C591.451 661.676 592.746 662.209 592.904 663.559C592.956 664.01 592.799 664.416 592.43 664.779C592.062 665.141 591.59 665.402 591.015 665.56Z"/>
<path d="M606.641 663.937C605.47 664.074 604.346 663.829 603.268 663.202C602.191 662.575 601.263 661.668 600.485 660.481C598.858 657.888 597.697 654.988 597.003 651.783C596.239 648.769 595.691 645.843 595.359 643.007C595.296 642.466 595.266 642.013 595.269 641.648L595.127 640.432C595.1 640.207 595.064 640.097 595.019 640.103L594.877 638.887L594.391 634.151C594.268 632.705 594.179 630.388 594.126 627.199C594.098 625.011 594.371 622.857 594.944 620.736C595.154 619.799 595.479 619.065 595.918 618.534C596.358 618.003 596.894 617.701 597.524 617.627C599.325 617.416 600.984 617.553 602.501 618.037C604.019 618.522 605.341 619.291 606.469 620.346C607.501 621.366 608.428 622.661 609.251 624.231C610.074 625.8 610.728 627.492 611.214 629.307C611.706 631.166 612.075 633.154 612.323 635.27L612.386 635.811C612.55 637.207 612.72 638.465 612.896 639.585L613.415 643.427C614.932 656.394 612.674 663.231 606.641 663.937ZM606.039 661.132C606.849 661.037 607.554 660.624 608.153 659.892C608.752 659.16 609.165 658.21 609.394 657.043C609.981 654.646 610.209 652.109 610.078 649.431C610.034 647.109 609.915 645.114 609.72 643.448C609.483 641.422 609.014 638.784 608.315 635.534C607.639 632.099 607.201 629.526 607 627.815L606.858 626.599C606.568 624.898 605.82 623.48 604.614 622.343C603.409 621.206 602.04 620.727 600.509 620.906C598.978 621.085 598.068 622.082 597.778 623.896C597.491 625.344 597.477 627.172 597.735 629.378C597.835 630.234 597.942 630.951 598.056 631.531L598.269 633.355L598.498 636.478C598.518 637.434 598.594 638.475 598.726 639.6C599.011 642.032 599.36 644.433 599.775 646.803C600.35 650.159 601.185 653.393 602.279 656.506C603.39 659.753 604.643 661.296 606.039 661.132Z"/>
<path d="M625.988 661.947C624.548 662.116 623.28 662.013 622.187 661.639C621.475 661.403 621.089 661.037 621.032 660.542C620.979 660.091 621.128 659.709 621.479 659.394C621.83 659.079 622.253 658.892 622.749 658.834C623.244 658.776 623.795 658.803 624.401 658.915C625.238 659.045 625.814 659.092 626.129 659.055C628.291 658.802 629.05 655.929 628.407 650.436L627.845 646.804C627.489 644.929 627.247 643.451 627.121 642.371C626.752 639.219 626.929 637.03 627.653 635.804C626.721 634.863 626.129 633.312 625.876 631.151L625.616 627.758C625.519 625.761 625.394 624.11 625.242 622.804C624.514 616.591 623.048 613.613 620.841 613.871C620.436 613.919 619.799 614.13 618.93 614.506C618.106 614.876 617.447 615.09 616.952 615.148C616.816 615.164 616.672 614.998 616.517 614.651C616.362 614.304 616.266 613.973 616.229 613.658C616.171 613.163 616.369 612.706 616.822 612.288C617.275 611.87 617.812 611.579 618.432 611.415C619.141 611.24 619.677 611.132 620.037 611.09C622.468 610.805 624.257 611.269 625.403 612.482C626.549 613.694 627.305 615.671 627.672 618.412L629.11 630.704C629.205 631.515 629.384 632.167 629.647 632.661C629.91 633.155 630.23 633.449 630.606 633.542C631.228 633.788 631.922 633.867 632.688 633.777C633.408 633.693 633.821 634.101 633.926 635.002C634.053 636.082 633.621 636.68 632.63 636.796C632.05 636.91 631.598 637.043 631.273 637.195C630.949 637.347 630.678 637.664 630.46 638.146C630.208 638.723 630.138 639.484 630.248 640.43L630.802 643.994C631.045 645.289 631.275 646.86 631.491 648.706C631.717 650.642 631.744 651.848 631.572 652.325C631.746 653.035 631.862 653.637 631.92 654.132C632.168 656.249 631.77 658.018 630.727 659.441C629.684 660.864 628.105 661.699 625.988 661.947Z"/>
</g>
<g fill="#000000" opacity="1" stroke="none" vectornator:layerName="Text 2">
<path d="M162.56 921.397C161.877 920.715 161.237 919.904 160.64 918.965C160.043 918.027 159.744 917.024 159.744 915.957C159.744 914.891 160.085 913.888 160.768 912.949C161.451 912.011 162.901 910.539 165.12 908.533C167.339 906.528 168.917 905.056 169.856 904.117C170.795 903.179 171.883 902.027 173.12 900.661C174.357 899.296 175.275 898.357 175.872 897.845C177.323 896.309 178.709 895.541 180.032 895.541C181.355 895.541 182.4 895.947 183.168 896.757C183.936 897.568 184.32 898.549 184.32 899.701C184.32 900.853 183.915 901.856 183.104 902.709C182.293 903.563 181.013 904.608 179.264 905.845C177.515 907.083 176.213 908.085 175.36 908.853C171.264 912.523 169.216 914.955 169.216 916.149C169.216 917.344 171.264 919.776 175.36 923.445C176.213 924.213 177.515 925.216 179.264 926.453C181.013 927.691 182.293 928.736 183.104 929.589C183.915 930.443 184.32 931.445 184.32 932.597C184.32 933.749 183.936 934.731 183.168 935.541C182.4 936.352 181.525 936.757 180.544 936.757C179.563 936.757 178.667 936.523 177.856 936.053C177.045 935.584 176.363 935.072 175.808 934.517C175.253 933.963 174.357 933.003 173.12 931.637C171.883 930.272 170.773 929.099 169.792 928.117C168.811 927.136 167.552 925.941 166.016 924.533C164.48 923.125 163.328 922.08 162.56 921.397ZM189.312 921.397C188.629 920.715 187.989 919.904 187.392 918.965C186.795 918.027 186.496 917.024 186.496 915.957C186.496 914.891 186.837 913.888 187.52 912.949C188.203 912.011 189.653 910.539 191.872 908.533C194.091 906.528 195.669 905.056 196.608 904.117C197.547 903.179 198.635 902.027 199.872 900.661C201.109 899.296 201.984 898.357 202.496 897.845C204.032 896.309 205.461 895.541 206.784 895.541C208.107 895.541 209.152 895.947 209.92 896.757C210.688 897.568 211.072 898.549 211.072 899.701C211.072 900.853 210.667 901.856 209.856 902.709C209.045 903.563 207.765 904.608 206.016 905.845C204.267 907.083 202.965 908.085 202.112 908.853C198.016 912.523 195.968 914.955 195.968 916.149C195.968 917.344 198.016 919.776 202.112 923.445C202.965 924.213 204.267 925.216 206.016 926.453C207.765 927.691 209.045 928.736 209.856 929.589C210.667 930.443 211.072 931.445 211.072 932.597C211.072 933.749 210.688 934.731 209.92 935.541C209.152 936.352 208.277 936.757 207.296 936.757C206.315 936.757 205.419 936.523 204.608 936.053C203.797 935.584 203.115 935.072 202.56 934.517C202.005 933.963 201.109 933.003 199.872 931.637C198.635 930.272 197.525 929.099 196.544 928.117C195.563 927.136 194.304 925.941 192.768 924.533C191.232 923.125 190.08 922.08 189.312 921.397Z"/>
<path d="M282.752 952.373L294.016 951.733C295.979 951.733 297.536 952.181 298.688 953.077C299.84 953.973 300.416 955.147 300.416 956.597C300.416 958.048 299.819 959.243 298.624 960.181C297.429 961.12 295.893 961.589 294.016 961.589L277.504 960.821L260.608 961.461C256.341 961.461 254.208 959.84 254.208 956.597C254.208 953.355 256.341 951.733 260.608 951.733C261.547 951.733 265.429 951.947 272.256 952.373C272.683 933.173 272.896 920.011 272.896 912.885C272.896 905.76 272.683 892.597 272.256 873.397C264.747 873.739 260.864 873.909 260.608 873.909C256.512 873.909 254.464 872.331 254.464 869.173C254.464 867.637 255.019 866.421 256.128 865.525C257.237 864.629 258.731 864.181 260.608 864.181L277.504 864.821C280.405 864.821 283.776 864.693 287.616 864.437C291.456 864.181 293.952 864.053 295.104 864.053C296.256 864.053 297.451 864.544 298.688 865.525C299.925 866.507 300.544 867.723 300.544 869.173C300.544 870.624 299.947 871.797 298.752 872.693C297.557 873.589 296.299 874.037 294.976 874.037C293.653 874.037 289.579 873.824 282.752 873.397C282.325 893.024 282.112 906.293 282.112 913.205C282.112 920.117 282.325 933.173 282.752 952.373Z"/>
<path d="M395.52 929.845C395.52 936.245 395.989 941.472 396.928 945.525C397.867 949.579 398.976 951.861 400.256 952.373C400.768 952.629 401.387 952.8 402.112 952.885C402.837 952.971 403.349 953.099 403.648 953.269C403.947 953.44 404.096 953.781 404.096 954.293C404.096 956.597 403.477 958.475 402.24 959.925C401.003 961.376 399.147 962.101 396.672 962.101C394.197 962.101 392.277 960.523 390.912 957.365C389.547 954.208 388.864 950.155 388.864 945.205C386.731 949.984 383.595 953.995 379.456 957.237C375.317 960.48 370.667 962.101 365.504 962.101C360.341 962.101 355.883 960.395 352.128 956.981C345.301 950.752 341.888 941.835 341.888 930.229C341.888 920.928 344.576 912.821 349.952 905.909C355.328 898.997 362.24 895.541 370.688 895.541C377.088 895.541 382.635 897.717 387.328 902.069C387.328 897.717 388.949 895.541 392.192 895.541C396.117 895.541 398.08 898.549 398.08 904.565C398.08 910.581 397.227 919.008 395.52 929.845ZM388.096 930.997L387.456 911.285C382.336 906.336 376.981 903.861 371.392 903.861C365.803 903.861 361.003 906.379 356.992 911.413C352.981 916.448 350.976 922.485 350.976 929.525C350.976 936.565 352.277 942.368 354.88 946.933C357.483 951.499 361.173 953.781 365.952 953.781C370.731 953.781 375.083 951.648 379.008 947.381C382.933 943.115 385.963 937.653 388.096 930.997Z"/>
<path d="M510.464 920.501L509.824 940.597C509.824 942.987 509.845 944.8 509.888 946.037C509.931 947.275 510.187 948.555 510.656 949.877C511.125 951.2 511.701 952.011 512.384 952.309C513.067 952.608 513.771 952.8 514.496 952.885C515.221 952.971 515.733 953.099 516.032 953.269C516.331 953.44 516.48 953.781 516.48 954.293C516.48 956.512 515.776 958.368 514.368 959.861C512.96 961.355 511.317 962.101 509.44 962.101C506.197 962.101 503.957 960.821 502.72 958.261C501.483 955.701 500.864 951.947 500.864 946.997L501.376 923.445C501.376 917.643 500.245 912.949 497.984 909.365C495.723 905.781 492.565 903.989 488.512 903.989C484.459 903.989 480.512 906.421 476.672 911.285C472.832 916.149 470.144 921.653 468.608 927.797L468.992 955.573C468.992 959.925 467.371 962.101 464.128 962.101C460.203 962.101 458.24 959.093 458.24 953.077C458.24 947.061 459.093 938.635 460.8 927.797C460.8 911.925 456.448 903.989 447.744 903.989C443.733 903.989 439.808 906.421 435.968 911.285C432.128 916.149 429.44 921.653 427.904 927.797L428.288 955.573C428.288 959.925 426.667 962.101 423.424 962.101C419.499 962.101 417.536 959.093 417.536 953.077C417.536 947.061 418.389 938.635 420.096 927.797C420.096 924.213 419.733 919.264 419.008 912.949C418.283 906.635 417.92 902.731 417.92 901.237C417.92 899.744 418.368 898.421 419.264 897.269C420.16 896.117 421.376 895.541 422.912 895.541C424.448 895.541 425.664 896.117 426.56 897.269C427.456 898.421 427.904 899.723 427.904 901.173C427.904 902.624 427.883 904.395 427.84 906.485C427.797 908.576 427.776 910.347 427.776 911.797C433.579 900.96 440.832 895.541 449.536 895.541C454.571 895.541 458.688 897.013 461.888 899.957C465.088 902.901 467.285 906.848 468.48 911.797C474.283 900.96 481.536 895.541 490.24 895.541C496.64 895.541 501.611 897.973 505.152 902.837C508.693 907.701 510.464 913.589 510.464 920.501Z"/>
<path d="M574.464 921.525L575.104 955.573C575.104 957.451 574.592 959.008 573.568 960.245C572.544 961.483 571.307 962.101 569.856 962.101C568.405 962.101 567.168 961.483 566.144 960.245C565.12 959.008 564.608 957.728 564.608 956.405C564.608 955.083 564.693 952.373 564.864 948.277C565.205 936.16 565.376 925.6 565.376 916.597C565.376 907.595 565.333 900.555 565.248 895.477C565.163 890.4 565.056 886.389 564.928 883.445C564.8 880.501 564.736 878.731 564.736 878.133C563.712 878.304 563.029 878.389 562.688 878.389C560.128 878.389 558.848 876.981 558.848 874.165C558.848 870.667 562.219 867.915 568.96 865.909C575.701 863.904 581.717 862.901 587.008 862.901C598.699 862.901 607.531 865.653 613.504 871.157C619.477 876.661 622.464 883.424 622.464 891.445C622.464 896.907 620.736 902.133 617.28 907.125C613.824 912.117 609.109 915.851 603.136 918.325C611.157 937.355 617.856 948.363 623.232 951.349C624.768 952.203 625.963 952.544 626.816 952.373C628.608 952.117 629.504 952.629 629.504 953.909C629.504 956.299 628.736 958.261 627.2 959.797C625.664 961.333 623.915 962.101 621.952 962.101C618.709 962.101 615.296 959.712 611.712 954.933C606.592 947.595 600.661 936.373 593.92 921.269C589.824 922.037 585.771 922.421 581.76 922.421L574.464 921.525ZM612.992 892.213C612.992 886.155 610.816 881.227 606.464 877.429C602.112 873.632 596.373 871.733 589.248 871.733C582.123 871.733 577.237 872.501 574.592 874.037C574.336 878.475 574.208 885.344 574.208 894.645C574.208 903.947 574.251 909.579 574.336 911.541C578.176 910.517 582.101 910.005 586.112 910.005C590.123 910.005 593.792 910.432 597.12 911.285C600.96 910.517 604.565 908.277 607.936 904.565C611.307 900.853 612.992 896.736 612.992 892.213Z"/>
<path d="M682.624 946.869C686.805 941.835 688.896 935.776 688.896 928.693C688.896 921.611 686.912 915.595 682.944 910.645C678.976 905.696 674.048 903.221 668.16 903.221C662.272 903.221 657.259 905.739 653.12 910.773C648.981 915.808 646.912 921.867 646.912 928.949C646.912 936.032 648.896 942.048 652.864 946.997C656.832 951.947 661.76 954.421 667.648 954.421C673.536 954.421 678.528 951.904 682.624 946.869ZM667.904 894.901C676.693 894.901 683.904 898.165 689.536 904.693C695.168 911.221 697.984 919.221 697.984 928.693C697.984 938.165 695.125 946.208 689.408 952.821C683.691 959.435 676.48 962.741 667.776 962.741C659.072 962.741 651.904 959.477 646.272 952.949C640.64 946.421 637.824 938.421 637.824 928.949C637.824 919.477 640.661 911.435 646.336 904.821C652.011 898.208 659.2 894.901 667.904 894.901Z"/>
<path d="M710.016 930.229C710.016 920.928 712.704 912.821 718.08 905.909C723.456 898.997 730.368 895.541 738.816 895.541C745.216 895.541 750.763 897.717 755.456 902.069C755.456 897.717 757.077 895.541 760.32 895.541C764.245 895.541 766.208 898.549 766.208 904.565C766.208 910.581 765.355 919.008 763.648 929.845C763.648 935.221 764.032 945.419 764.8 960.437C765.568 975.456 765.952 983.605 765.952 984.885C765.952 986.165 765.504 987.381 764.608 988.533C763.712 989.685 762.496 990.261 760.96 990.261C759.424 990.261 758.208 989.685 757.312 988.533C756.416 987.381 755.968 985.824 755.968 983.861L755.968 947.253C753.664 951.605 750.571 955.168 746.688 957.941C742.805 960.715 738.368 962.101 733.376 962.101C728.384 962.101 724.011 960.395 720.256 956.981C713.429 950.752 710.016 941.835 710.016 930.229ZM739.456 903.861C733.909 903.861 729.131 906.379 725.12 911.413C721.109 916.448 719.104 922.485 719.104 929.525C719.104 936.565 720.405 942.368 723.008 946.933C725.611 951.499 729.301 953.781 734.08 953.781C738.859 953.781 743.211 951.648 747.136 947.381C751.061 943.115 754.091 937.653 756.224 930.997L755.584 911.285C750.464 906.336 745.088 903.861 739.456 903.861Z"/>
<path d="M861.44 910.901C862.208 911.584 862.891 912.395 863.488 913.333C864.085 914.272 864.384 915.275 864.384 916.341C864.384 917.408 864.043 918.411 863.36 919.349C862.677 920.288 861.227 921.76 859.008 923.765C856.789 925.771 855.211 927.243 854.272 928.181C853.333 929.12 852.245 930.272 851.008 931.637C849.771 933.003 848.896 933.941 848.384 934.453C846.848 935.989 845.419 936.757 844.096 936.757C842.773 936.757 841.728 936.352 840.96 935.541C840.192 934.731 839.808 933.749 839.808 932.597C839.808 931.445 840.213 930.443 841.024 929.589C841.835 928.736 843.115 927.691 844.864 926.453C846.613 925.216 847.915 924.213 848.768 923.445C852.864 919.776 854.912 917.344 854.912 916.149C854.912 914.955 852.864 912.523 848.768 908.853C847.915 908.085 846.613 907.083 844.864 905.845C843.115 904.608 841.835 903.563 841.024 902.709C840.213 901.856 839.808 900.853 839.808 899.701C839.808 898.549 840.192 897.568 840.96 896.757C841.728 895.947 842.603 895.541 843.584 895.541C844.565 895.541 845.461 895.776 846.272 896.245C847.083 896.715 847.765 897.227 848.32 897.781C848.875 898.336 849.771 899.296 851.008 900.661C852.245 902.027 853.355 903.2 854.336 904.181C855.317 905.163 856.576 906.357 858.112 907.765C859.648 909.173 860.757 910.219 861.44 910.901ZM834.688 910.901C835.456 911.584 836.139 912.395 836.736 913.333C837.333 914.272 837.632 915.275 837.632 916.341C837.632 917.408 837.291 918.411 836.608 919.349C835.925 920.288 834.475 921.76 832.256 923.765C830.037 925.771 828.459 927.243 827.52 928.181C826.581 929.12 825.493 930.272 824.256 931.637C823.019 933.003 822.101 933.941 821.504 934.453C820.053 935.989 818.667 936.757 817.344 936.757C816.021 936.757 814.976 936.352 814.208 935.541C813.44 934.731 813.056 933.749 813.056 932.597C813.056 931.445 813.461 930.443 814.272 929.589C815.083 928.736 816.363 927.691 818.112 926.453C819.861 925.216 821.163 924.213 822.016 923.445C826.112 919.776 828.16 917.344 828.16 916.149C828.16 914.955 826.112 912.523 822.016 908.853C821.163 908.085 819.861 907.083 818.112 905.845C816.363 904.608 815.083 903.563 814.272 902.709C813.461 901.856 813.056 900.853 813.056 899.701C813.056 898.549 813.44 897.568 814.208 896.757C814.976 895.947 815.851 895.541 816.832 895.541C817.813 895.541 818.709 895.776 819.52 896.245C820.331 896.715 821.013 897.227 821.568 897.781C822.123 898.336 823.019 899.296 824.256 900.661C825.493 902.027 826.603 903.2 827.584 904.181C828.565 905.163 829.824 906.357 831.36 907.765C832.896 909.173 834.005 910.219 834.688 910.901Z"/>
</g>
<path d="M512 440.443C512 440.443 542.08 441.738 573.09 441.626C604.101 441.515 640.134 428.215 640.134 428.215C640.134 428.215 614.872 460.189 614.532 460.161" fill="#000000" fill-rule="nonzero" opacity="1" stroke="#ffffff" stroke-linecap="butt" stroke-linejoin="round" stroke-width="1" vectornator:layerName="Curve 1"/>
</g>
</svg>
