<?xml version="1.0" encoding="UTF-8" standalone="no"?>
<!DOCTYPE svg PUBLIC "-//W3C//DTD SVG 1.1//EN" "http://www.w3.org/Graphics/SVG/1.1/DTD/svg11.dtd">
<svg width="100%" height="100%" viewBox="0 0 1024 1024" version="1.1" xmlns="http://www.w3.org/2000/svg" xmlns:xlink="http://www.w3.org/1999/xlink" xml:space="preserve" xmlns:serif="http://www.serif.com/" style="fill-rule:evenodd;clip-rule:evenodd;stroke-linejoin:round;stroke-miterlimit:10;">
    <g transform="matrix(1,0,0,1,16.8977,120.97)">
        <g id="Title">
            <g transform="matrix(90,0,0,90,181.767,813.129)">
                <path d="M0.62,-0.095C0.62,-0.074 0.596,-0.05 0.549,-0.024C0.501,0.002 0.445,0.015 0.381,0.015C0.288,0.015 0.21,-0.023 0.149,-0.099C0.088,-0.174 0.057,-0.267 0.057,-0.376C0.057,-0.485 0.088,-0.577 0.15,-0.652C0.212,-0.727 0.29,-0.765 0.383,-0.765C0.438,-0.765 0.488,-0.755 0.532,-0.734C0.576,-0.713 0.598,-0.69 0.598,-0.664C0.598,-0.653 0.595,-0.645 0.589,-0.639C0.582,-0.633 0.574,-0.63 0.563,-0.63C0.552,-0.63 0.539,-0.635 0.524,-0.646C0.509,-0.657 0.49,-0.668 0.467,-0.679C0.444,-0.69 0.416,-0.695 0.383,-0.695C0.312,-0.695 0.253,-0.664 0.207,-0.601C0.161,-0.538 0.138,-0.463 0.138,-0.378C0.138,-0.292 0.161,-0.217 0.207,-0.152C0.253,-0.087 0.311,-0.055 0.382,-0.055C0.415,-0.055 0.444,-0.058 0.471,-0.066C0.497,-0.073 0.517,-0.08 0.53,-0.088C0.543,-0.096 0.556,-0.103 0.567,-0.111C0.578,-0.117 0.587,-0.121 0.593,-0.121C0.611,-0.121 0.62,-0.112 0.62,-0.095Z" style="fill-rule:nonzero;"/>
            </g>
            <g transform="matrix(90,0,0,90,240.447,813.129)">
                <path d="M0.149,-0.229L0.152,-0.041C0.152,-0.007 0.139,0.01 0.114,0.01C0.083,0.01 0.068,-0.013 0.068,-0.061C0.068,-0.108 0.075,-0.173 0.088,-0.258C0.088,-0.286 0.085,-0.324 0.08,-0.373C0.074,-0.422 0.071,-0.452 0.071,-0.464C0.071,-0.476 0.075,-0.487 0.082,-0.496C0.089,-0.505 0.098,-0.51 0.11,-0.51C0.122,-0.51 0.132,-0.505 0.139,-0.496C0.146,-0.487 0.149,-0.476 0.149,-0.466C0.149,-0.455 0.148,-0.392 0.148,-0.381C0.161,-0.415 0.182,-0.445 0.211,-0.471C0.239,-0.497 0.268,-0.51 0.298,-0.51C0.328,-0.51 0.351,-0.504 0.368,-0.492C0.384,-0.479 0.392,-0.466 0.392,-0.452C0.392,-0.438 0.388,-0.427 0.381,-0.419C0.374,-0.411 0.364,-0.407 0.353,-0.407C0.341,-0.407 0.328,-0.413 0.315,-0.426C0.301,-0.438 0.29,-0.444 0.282,-0.444C0.26,-0.444 0.234,-0.42 0.205,-0.373C0.176,-0.326 0.157,-0.278 0.149,-0.229Z" style="fill-rule:nonzero;"/>
            </g>
            <g transform="matrix(90,0,0,90,276.177,813.129)">
                <path d="M0.467,-0.242C0.467,-0.192 0.471,-0.151 0.478,-0.12C0.485,-0.088 0.494,-0.07 0.504,-0.066C0.508,-0.064 0.513,-0.063 0.519,-0.062C0.524,-0.061 0.528,-0.06 0.531,-0.059C0.533,-0.058 0.534,-0.055 0.534,-0.051C0.534,-0.033 0.529,-0.018 0.52,-0.007C0.51,0.004 0.495,0.01 0.476,0.01C0.457,0.01 0.442,-0.002 0.431,-0.027C0.42,-0.052 0.415,-0.083 0.415,-0.122C0.398,-0.085 0.374,-0.053 0.342,-0.028C0.309,-0.003 0.273,0.01 0.233,0.01C0.192,0.01 0.157,-0.003 0.128,-0.03C0.075,-0.079 0.048,-0.148 0.048,-0.239C0.048,-0.312 0.069,-0.375 0.111,-0.429C0.153,-0.483 0.207,-0.51 0.273,-0.51C0.323,-0.51 0.366,-0.493 0.403,-0.459C0.403,-0.493 0.416,-0.51 0.441,-0.51C0.472,-0.51 0.487,-0.487 0.487,-0.44C0.487,-0.393 0.48,-0.327 0.467,-0.242ZM0.409,-0.233L0.404,-0.387C0.364,-0.426 0.322,-0.445 0.279,-0.445C0.235,-0.445 0.197,-0.425 0.166,-0.386C0.135,-0.347 0.119,-0.3 0.119,-0.245C0.119,-0.19 0.129,-0.144 0.15,-0.109C0.17,-0.073 0.199,-0.055 0.236,-0.055C0.273,-0.055 0.307,-0.072 0.338,-0.105C0.369,-0.138 0.392,-0.181 0.409,-0.233Z" style="fill-rule:nonzero;"/>
            </g>
            <g transform="matrix(90,0,0,90,327.567,813.129)">
                <path d="M0.175,-0.5L0.272,-0.502C0.283,-0.502 0.292,-0.499 0.299,-0.494C0.306,-0.489 0.31,-0.481 0.31,-0.47C0.31,-0.45 0.297,-0.44 0.272,-0.44L0.175,-0.442L0.175,-0.375C0.175,-0.283 0.176,-0.206 0.178,-0.143C0.18,-0.08 0.181,-0.044 0.181,-0.034C0.181,-0.023 0.178,-0.013 0.171,-0.004C0.164,0.005 0.154,0.01 0.142,0.01C0.13,0.01 0.121,0.005 0.114,-0.004C0.107,-0.013 0.103,-0.023 0.103,-0.034C0.103,-0.044 0.103,-0.065 0.104,-0.096C0.107,-0.19 0.109,-0.283 0.109,-0.375L0.109,-0.442L0.058,-0.44C0.033,-0.44 0.02,-0.45 0.02,-0.47C0.02,-0.481 0.024,-0.489 0.031,-0.494C0.038,-0.499 0.047,-0.502 0.058,-0.502L0.108,-0.5L0.108,-0.585C0.108,-0.647 0.12,-0.692 0.145,-0.719C0.169,-0.746 0.197,-0.76 0.229,-0.76C0.261,-0.76 0.288,-0.754 0.309,-0.742C0.33,-0.729 0.34,-0.716 0.34,-0.702C0.34,-0.68 0.331,-0.669 0.312,-0.669C0.303,-0.669 0.292,-0.673 0.278,-0.681C0.264,-0.689 0.25,-0.693 0.237,-0.693C0.196,-0.693 0.175,-0.654 0.175,-0.576L0.175,-0.5Z" style="fill-rule:nonzero;"/>
            </g>
            <g transform="matrix(90,0,0,90,356.997,813.129)">
                <path d="M0.183,-0.439L0.181,-0.202C0.181,-0.141 0.184,-0.102 0.189,-0.083C0.194,-0.064 0.207,-0.055 0.228,-0.055C0.238,-0.055 0.25,-0.058 0.265,-0.066C0.279,-0.073 0.288,-0.076 0.293,-0.076C0.307,-0.076 0.314,-0.069 0.314,-0.056C0.314,-0.042 0.302,-0.028 0.277,-0.013C0.252,0.003 0.228,0.01 0.204,0.01C0.146,0.01 0.117,-0.033 0.117,-0.118L0.116,-0.439C0.094,-0.437 0.079,-0.436 0.07,-0.436C0.037,-0.436 0.02,-0.447 0.02,-0.469C0.02,-0.491 0.037,-0.502 0.07,-0.502C0.073,-0.502 0.087,-0.501 0.114,-0.5L0.112,-0.612C0.112,-0.645 0.125,-0.662 0.15,-0.662C0.175,-0.662 0.188,-0.645 0.188,-0.612L0.185,-0.499L0.266,-0.503C0.299,-0.503 0.316,-0.492 0.316,-0.469C0.316,-0.448 0.299,-0.437 0.266,-0.437C0.26,-0.437 0.232,-0.438 0.183,-0.439Z" style="fill-rule:nonzero;"/>
            </g>
            <g transform="matrix(90,0,0,90,386.337,813.129)">
                <path d="M0.27,-0.269C0.315,-0.269 0.352,-0.277 0.379,-0.292C0.405,-0.307 0.419,-0.328 0.419,-0.354C0.419,-0.38 0.41,-0.403 0.393,-0.422C0.375,-0.44 0.35,-0.45 0.317,-0.45C0.273,-0.45 0.236,-0.434 0.206,-0.401C0.176,-0.368 0.157,-0.329 0.148,-0.285C0.185,-0.274 0.225,-0.269 0.27,-0.269ZM0.308,-0.515C0.362,-0.515 0.406,-0.5 0.44,-0.47C0.473,-0.44 0.49,-0.401 0.49,-0.353C0.49,-0.305 0.469,-0.269 0.428,-0.244C0.386,-0.219 0.335,-0.206 0.274,-0.206C0.239,-0.206 0.197,-0.211 0.147,-0.221C0.151,-0.174 0.169,-0.134 0.2,-0.101C0.231,-0.067 0.265,-0.05 0.303,-0.05C0.326,-0.05 0.347,-0.053 0.366,-0.06C0.385,-0.066 0.4,-0.073 0.41,-0.08C0.437,-0.101 0.454,-0.111 0.463,-0.111C0.471,-0.111 0.478,-0.109 0.483,-0.104C0.488,-0.098 0.49,-0.092 0.49,-0.085C0.49,-0.066 0.471,-0.045 0.433,-0.021C0.394,0.003 0.353,0.015 0.308,0.015C0.239,0.015 0.184,-0.009 0.143,-0.058C0.102,-0.107 0.08,-0.165 0.077,-0.234C0.042,-0.245 0.024,-0.262 0.024,-0.286C0.024,-0.296 0.027,-0.304 0.033,-0.31C0.038,-0.315 0.045,-0.318 0.053,-0.318C0.061,-0.318 0.071,-0.315 0.083,-0.309C0.098,-0.369 0.126,-0.418 0.167,-0.457C0.208,-0.496 0.255,-0.515 0.308,-0.515Z" style="fill-rule:nonzero;"/>
            </g>
            <g transform="matrix(90,0,0,90,434.847,813.129)">
                <path d="M0.424,-0.228L0.424,-0.387C0.384,-0.426 0.337,-0.445 0.282,-0.445C0.239,-0.445 0.202,-0.425 0.17,-0.386C0.137,-0.347 0.121,-0.301 0.121,-0.248C0.121,-0.195 0.133,-0.149 0.156,-0.112C0.179,-0.074 0.211,-0.055 0.251,-0.055C0.321,-0.055 0.379,-0.113 0.424,-0.228ZM0.53,-0.064C0.547,-0.064 0.556,-0.059 0.556,-0.049C0.556,-0.036 0.552,-0.023 0.543,-0.01C0.534,0.003 0.519,0.01 0.5,0.01C0.481,0.01 0.466,-0.001 0.455,-0.022C0.444,-0.043 0.436,-0.077 0.431,-0.124C0.382,-0.035 0.321,0.01 0.246,0.01C0.203,0.01 0.165,-0.004 0.134,-0.032C0.103,-0.06 0.08,-0.092 0.067,-0.129C0.054,-0.166 0.047,-0.202 0.047,-0.239C0.047,-0.312 0.069,-0.375 0.113,-0.429C0.157,-0.483 0.213,-0.51 0.282,-0.51C0.332,-0.51 0.379,-0.494 0.424,-0.461C0.425,-0.554 0.426,-0.622 0.426,-0.665C0.426,-0.708 0.429,-0.734 0.436,-0.745C0.442,-0.755 0.452,-0.76 0.467,-0.76C0.481,-0.76 0.493,-0.754 0.502,-0.743C0.511,-0.731 0.515,-0.714 0.515,-0.691C0.515,-0.668 0.514,-0.641 0.511,-0.608C0.508,-0.575 0.504,-0.531 0.499,-0.477C0.494,-0.422 0.489,-0.373 0.486,-0.329C0.486,-0.248 0.489,-0.184 0.495,-0.138C0.501,-0.092 0.513,-0.067 0.53,-0.064Z" style="fill-rule:nonzero;"/>
            </g>
            <g transform="matrix(90,0,0,90,509.187,813.129)">
                <path d="M0.505,-0.261C0.505,-0.188 0.484,-0.125 0.442,-0.071C0.4,-0.017 0.346,0.01 0.28,0.01C0.23,0.01 0.187,-0.007 0.15,-0.041C0.15,-0.007 0.137,0.01 0.112,0.01C0.081,0.01 0.066,-0.013 0.066,-0.061C0.066,-0.108 0.073,-0.173 0.086,-0.258C0.086,-0.303 0.083,-0.389 0.077,-0.515C0.071,-0.64 0.068,-0.708 0.068,-0.718C0.068,-0.728 0.072,-0.737 0.079,-0.747C0.086,-0.756 0.095,-0.76 0.107,-0.76C0.119,-0.76 0.129,-0.756 0.136,-0.747C0.142,-0.737 0.146,-0.725 0.146,-0.71L0.146,-0.394C0.164,-0.428 0.188,-0.456 0.219,-0.478C0.249,-0.499 0.284,-0.51 0.323,-0.51C0.362,-0.51 0.395,-0.497 0.424,-0.47C0.478,-0.421 0.505,-0.352 0.505,-0.261ZM0.274,-0.055C0.318,-0.055 0.356,-0.075 0.387,-0.114C0.418,-0.153 0.434,-0.201 0.434,-0.256C0.434,-0.311 0.424,-0.356 0.404,-0.392C0.383,-0.427 0.354,-0.445 0.317,-0.445C0.28,-0.445 0.246,-0.428 0.215,-0.395C0.184,-0.362 0.161,-0.319 0.144,-0.267L0.149,-0.113C0.189,-0.074 0.231,-0.055 0.274,-0.055Z" style="fill-rule:nonzero;"/>
            </g>
            <g transform="matrix(90,0,0,90,558.867,813.129)">
                <path d="M0.419,-0.242L0.416,-0.459C0.416,-0.493 0.429,-0.51 0.454,-0.51C0.485,-0.51 0.5,-0.485 0.5,-0.435C0.5,-0.396 0.493,-0.331 0.479,-0.242C0.487,-0.161 0.491,-0.1 0.491,-0.06C0.491,0.027 0.47,0.097 0.427,0.151C0.384,0.204 0.324,0.23 0.247,0.23C0.206,0.23 0.167,0.222 0.13,0.205C0.093,0.188 0.075,0.17 0.075,0.154C0.075,0.136 0.083,0.128 0.098,0.128C0.105,0.128 0.123,0.134 0.154,0.147C0.184,0.159 0.215,0.165 0.247,0.165C0.303,0.165 0.347,0.145 0.38,0.105C0.413,0.065 0.429,0.013 0.429,-0.05C0.429,-0.073 0.428,-0.096 0.426,-0.118C0.377,-0.033 0.315,0.01 0.24,0.01C0.187,0.01 0.145,-0.01 0.116,-0.05C0.087,-0.089 0.072,-0.138 0.072,-0.195L0.078,-0.346C0.078,-0.373 0.075,-0.397 0.07,-0.421C0.065,-0.444 0.062,-0.46 0.062,-0.47C0.062,-0.48 0.066,-0.489 0.074,-0.498C0.082,-0.506 0.092,-0.51 0.105,-0.51C0.136,-0.51 0.151,-0.483 0.151,-0.428L0.143,-0.208C0.143,-0.163 0.153,-0.126 0.172,-0.098C0.191,-0.069 0.218,-0.055 0.253,-0.055C0.287,-0.055 0.32,-0.074 0.352,-0.113C0.384,-0.151 0.406,-0.194 0.419,-0.242Z" style="fill-rule:nonzero;"/>
            </g>
            <g transform="matrix(90,0,0,90,631.407,813.129)">
                <path d="M0.179,-0.307L0.184,-0.041C0.184,-0.026 0.18,-0.014 0.172,-0.005C0.164,0.005 0.154,0.01 0.143,0.01C0.132,0.01 0.122,0.005 0.114,-0.005C0.106,-0.014 0.102,-0.024 0.102,-0.035C0.102,-0.045 0.103,-0.066 0.104,-0.098C0.107,-0.193 0.108,-0.275 0.108,-0.346C0.108,-0.416 0.108,-0.471 0.107,-0.511C0.106,-0.55 0.106,-0.582 0.105,-0.605C0.103,-0.628 0.103,-0.641 0.103,-0.646C0.095,-0.645 0.09,-0.644 0.087,-0.644C0.067,-0.644 0.057,-0.655 0.057,-0.677C0.057,-0.704 0.083,-0.726 0.136,-0.742C0.189,-0.757 0.236,-0.765 0.277,-0.765C0.368,-0.765 0.437,-0.744 0.484,-0.701C0.531,-0.658 0.554,-0.605 0.554,-0.542C0.554,-0.499 0.541,-0.459 0.514,-0.42C0.487,-0.381 0.45,-0.351 0.403,-0.332C0.466,-0.183 0.518,-0.097 0.56,-0.074C0.572,-0.067 0.581,-0.065 0.588,-0.066C0.602,-0.068 0.609,-0.064 0.609,-0.054C0.609,-0.035 0.603,-0.02 0.591,-0.008C0.579,0.004 0.565,0.01 0.55,0.01C0.525,0.01 0.498,-0.009 0.47,-0.046C0.43,-0.103 0.384,-0.191 0.331,-0.309C0.299,-0.303 0.267,-0.3 0.236,-0.3L0.179,-0.307ZM0.48,-0.536C0.48,-0.583 0.463,-0.622 0.429,-0.652C0.395,-0.681 0.35,-0.696 0.295,-0.696C0.239,-0.696 0.201,-0.69 0.18,-0.678C0.178,-0.643 0.177,-0.59 0.177,-0.517C0.177,-0.444 0.177,-0.4 0.178,-0.385C0.208,-0.393 0.239,-0.397 0.27,-0.397C0.301,-0.397 0.33,-0.394 0.356,-0.387C0.386,-0.393 0.414,-0.411 0.441,-0.44C0.467,-0.468 0.48,-0.501 0.48,-0.536Z" style="fill-rule:nonzero;"/>
            </g>
            <g transform="matrix(90,0,0,90,687.927,813.129)">
                <path d="M0.396,-0.109C0.429,-0.148 0.445,-0.196 0.445,-0.251C0.445,-0.306 0.43,-0.353 0.399,-0.392C0.368,-0.431 0.329,-0.45 0.283,-0.45C0.237,-0.45 0.198,-0.43 0.166,-0.391C0.133,-0.352 0.117,-0.304 0.117,-0.249C0.117,-0.194 0.133,-0.147 0.164,-0.108C0.195,-0.069 0.233,-0.05 0.279,-0.05C0.325,-0.05 0.364,-0.07 0.396,-0.109ZM0.281,-0.515C0.35,-0.515 0.406,-0.49 0.45,-0.439C0.494,-0.388 0.516,-0.325 0.516,-0.251C0.516,-0.177 0.494,-0.114 0.449,-0.063C0.404,-0.011 0.348,0.015 0.28,0.015C0.212,0.015 0.156,-0.011 0.112,-0.062C0.068,-0.113 0.046,-0.175 0.046,-0.249C0.046,-0.323 0.068,-0.386 0.113,-0.438C0.157,-0.489 0.213,-0.515 0.281,-0.515Z" style="fill-rule:nonzero;"/>
            </g>
            <g transform="matrix(90,0,0,90,738.507,813.129)">
                <path d="M0.048,-0.239C0.048,-0.312 0.069,-0.375 0.111,-0.429C0.153,-0.483 0.207,-0.51 0.273,-0.51C0.323,-0.51 0.366,-0.493 0.403,-0.459C0.403,-0.493 0.416,-0.51 0.441,-0.51C0.472,-0.51 0.487,-0.487 0.487,-0.44C0.487,-0.393 0.48,-0.327 0.467,-0.242C0.467,-0.2 0.47,-0.12 0.476,-0.003C0.482,0.114 0.485,0.178 0.485,0.188C0.485,0.198 0.482,0.208 0.475,0.217C0.468,0.226 0.458,0.23 0.446,0.23C0.434,0.23 0.424,0.226 0.418,0.217C0.411,0.208 0.407,0.195 0.407,0.18L0.407,-0.106C0.389,-0.072 0.365,-0.044 0.335,-0.023C0.304,-0.001 0.27,0.01 0.231,0.01C0.192,0.01 0.157,-0.003 0.128,-0.03C0.075,-0.079 0.048,-0.148 0.048,-0.239ZM0.278,-0.445C0.235,-0.445 0.197,-0.425 0.166,-0.386C0.135,-0.347 0.119,-0.3 0.119,-0.245C0.119,-0.19 0.129,-0.144 0.15,-0.109C0.17,-0.073 0.199,-0.055 0.236,-0.055C0.273,-0.055 0.307,-0.072 0.338,-0.105C0.369,-0.138 0.392,-0.181 0.409,-0.233L0.404,-0.387C0.364,-0.426 0.322,-0.445 0.278,-0.445Z" style="fill-rule:nonzero;"/>
            </g>
            <g transform="matrix(90,0,0,90,788.277,813.129)">
                <path d="M0.124,-0.1C0.138,-0.1 0.149,-0.095 0.156,-0.085C0.163,-0.075 0.167,-0.062 0.167,-0.047C0.167,-0.031 0.162,-0.017 0.153,-0.004C0.143,0.009 0.131,0.015 0.118,0.015C0.104,0.015 0.093,0.01 0.086,-0.001C0.079,-0.012 0.075,-0.025 0.075,-0.04C0.075,-0.055 0.08,-0.068 0.09,-0.081C0.099,-0.094 0.111,-0.1 0.124,-0.1ZM0.154,-0.468L0.157,-0.256C0.157,-0.223 0.145,-0.206 0.121,-0.206C0.097,-0.206 0.085,-0.223 0.085,-0.256L0.088,-0.468C0.088,-0.507 0.087,-0.557 0.085,-0.616C0.082,-0.675 0.081,-0.706 0.081,-0.71C0.081,-0.743 0.094,-0.76 0.121,-0.76C0.148,-0.76 0.161,-0.743 0.161,-0.71C0.161,-0.706 0.16,-0.675 0.158,-0.616C0.155,-0.557 0.154,-0.507 0.154,-0.468Z" style="fill-rule:nonzero;"/>
            </g>
        </g>
    </g>
    <g transform="matrix(0.994431,-0.105389,0.105389,0.994431,277.713,67.8553)">
        <g id="Tag">
            <g transform="matrix(68,0,0,68,121.823,624.708)">
                <path d="M0.216,0.023C0.179,0.023 0.154,0.013 0.139,-0.006C0.124,-0.025 0.117,-0.056 0.117,-0.097L0.117,-0.303C0.117,-0.317 0.115,-0.328 0.11,-0.336C0.105,-0.344 0.1,-0.349 0.093,-0.35C0.092,-0.35 0.086,-0.351 0.073,-0.353C0.057,-0.353 0.049,-0.36 0.049,-0.374C0.049,-0.39 0.057,-0.398 0.073,-0.398C0.082,-0.399 0.089,-0.4 0.095,-0.402C0.1,-0.404 0.105,-0.408 0.11,-0.415C0.115,-0.423 0.117,-0.434 0.117,-0.447L0.114,-0.494L0.112,-0.552C0.112,-0.575 0.114,-0.591 0.118,-0.599C0.117,-0.611 0.116,-0.62 0.116,-0.625C0.116,-0.656 0.125,-0.682 0.142,-0.701C0.159,-0.72 0.184,-0.73 0.216,-0.73C0.237,-0.73 0.255,-0.726 0.271,-0.718C0.281,-0.713 0.286,-0.708 0.286,-0.701C0.286,-0.694 0.283,-0.689 0.278,-0.685C0.272,-0.68 0.265,-0.678 0.258,-0.678C0.253,-0.678 0.245,-0.68 0.233,-0.683C0.221,-0.686 0.213,-0.688 0.208,-0.688C0.177,-0.688 0.161,-0.647 0.161,-0.565C0.161,-0.55 0.162,-0.534 0.163,-0.519L0.165,-0.462C0.165,-0.419 0.159,-0.39 0.147,-0.375C0.158,-0.36 0.164,-0.337 0.164,-0.304L0.164,-0.089C0.164,-0.042 0.179,-0.019 0.208,-0.019C0.215,-0.019 0.225,-0.021 0.238,-0.025C0.253,-0.028 0.263,-0.03 0.268,-0.03C0.27,-0.03 0.272,-0.027 0.274,-0.022C0.275,-0.017 0.276,-0.012 0.276,-0.008C0.276,-0.001 0.272,0.006 0.265,0.011C0.258,0.016 0.249,0.019 0.24,0.021C0.229,0.022 0.221,0.023 0.216,0.023Z" style="fill-rule:nonzero;"/>
            </g>
            <g transform="matrix(68,0,0,68,143.583,624.708)">
                <path d="M0.26,0.04C0.237,0.04 0.226,0.033 0.226,0.018C0.226,-0.024 0.231,-0.075 0.241,-0.136C0.25,-0.2 0.256,-0.249 0.257,-0.284C0.237,-0.285 0.214,-0.286 0.188,-0.286L0.164,-0.284C0.162,-0.273 0.161,-0.256 0.16,-0.234C0.155,-0.157 0.15,-0.1 0.145,-0.063C0.142,-0.032 0.137,-0.008 0.13,0.011C0.124,0.03 0.117,0.039 0.109,0.039C0.102,0.039 0.095,0.037 0.09,0.033C0.084,0.029 0.081,0.024 0.081,0.018C0.081,-0.061 0.093,-0.16 0.116,-0.281L0.086,-0.279C0.059,-0.279 0.045,-0.29 0.045,-0.311C0.045,-0.326 0.061,-0.333 0.092,-0.333L0.122,-0.333C0.128,-0.368 0.133,-0.411 0.137,-0.463L0.112,-0.461C0.081,-0.461 0.065,-0.471 0.065,-0.49L0.065,-0.495L0.08,-0.511L0.11,-0.511C0.124,-0.511 0.134,-0.511 0.141,-0.512L0.15,-0.574C0.159,-0.63 0.163,-0.676 0.163,-0.711L0.163,-0.729C0.163,-0.741 0.165,-0.75 0.168,-0.756C0.171,-0.762 0.178,-0.765 0.188,-0.765L0.196,-0.765L0.207,-0.742C0.207,-0.716 0.204,-0.678 0.198,-0.628C0.192,-0.578 0.189,-0.541 0.189,-0.517C0.193,-0.516 0.202,-0.515 0.216,-0.515L0.233,-0.515C0.253,-0.515 0.267,-0.516 0.276,-0.519C0.283,-0.548 0.291,-0.6 0.302,-0.677C0.305,-0.698 0.308,-0.722 0.313,-0.75C0.32,-0.76 0.329,-0.765 0.338,-0.765C0.343,-0.765 0.349,-0.763 0.354,-0.759C0.359,-0.754 0.362,-0.75 0.362,-0.745C0.362,-0.72 0.356,-0.683 0.345,-0.632C0.334,-0.585 0.327,-0.548 0.326,-0.521L0.358,-0.521L0.379,-0.498C0.378,-0.491 0.376,-0.486 0.375,-0.483C0.374,-0.479 0.371,-0.476 0.367,-0.473C0.362,-0.47 0.358,-0.468 0.353,-0.468L0.32,-0.47C0.313,-0.435 0.309,-0.392 0.308,-0.341L0.318,-0.341C0.346,-0.341 0.36,-0.331 0.36,-0.311C0.36,-0.294 0.347,-0.286 0.322,-0.286L0.319,-0.286L0.305,-0.287C0.304,-0.273 0.3,-0.241 0.294,-0.19C0.283,-0.097 0.277,-0.028 0.277,0.019L0.26,0.04ZM0.18,-0.334C0.214,-0.334 0.239,-0.335 0.256,-0.337C0.265,-0.394 0.271,-0.437 0.272,-0.465C0.257,-0.468 0.242,-0.469 0.225,-0.469C0.208,-0.469 0.194,-0.468 0.183,-0.466C0.174,-0.432 0.169,-0.388 0.167,-0.335C0.169,-0.334 0.173,-0.334 0.18,-0.334Z" style="fill-rule:nonzero;"/>
            </g>
            <g transform="matrix(68,0,0,68,172.211,624.708)">
                <path d="M0.135,0.007C0.125,0.007 0.117,0.002 0.112,-0.008C0.106,-0.017 0.103,-0.029 0.103,-0.043C0.103,-0.065 0.104,-0.092 0.107,-0.124L0.109,-0.15L0.111,-0.203C0.111,-0.226 0.109,-0.278 0.104,-0.359C0.099,-0.44 0.097,-0.492 0.097,-0.515C0.097,-0.517 0.097,-0.521 0.098,-0.527C0.098,-0.532 0.098,-0.541 0.098,-0.553C0.099,-0.566 0.099,-0.583 0.099,-0.602C0.099,-0.651 0.096,-0.682 0.089,-0.695C0.085,-0.695 0.076,-0.694 0.063,-0.692L0.035,-0.69C0.026,-0.69 0.019,-0.693 0.012,-0.698C0.005,-0.703 0.002,-0.709 0.002,-0.717C0.002,-0.725 0.01,-0.732 0.026,-0.738C0.049,-0.746 0.089,-0.752 0.145,-0.755C0.168,-0.756 0.181,-0.757 0.186,-0.757C0.194,-0.757 0.201,-0.754 0.208,-0.749C0.215,-0.744 0.218,-0.737 0.218,-0.729C0.218,-0.721 0.215,-0.715 0.21,-0.71C0.204,-0.705 0.197,-0.702 0.188,-0.702L0.17,-0.703C0.165,-0.704 0.159,-0.704 0.152,-0.704L0.142,-0.704C0.147,-0.659 0.149,-0.618 0.149,-0.581L0.148,-0.517C0.147,-0.498 0.147,-0.476 0.147,-0.452C0.147,-0.42 0.148,-0.382 0.151,-0.337C0.154,-0.282 0.156,-0.243 0.156,-0.222C0.156,-0.197 0.157,-0.167 0.16,-0.132C0.163,-0.097 0.164,-0.067 0.164,-0.042C0.164,-0.009 0.154,0.007 0.135,0.007Z" style="fill-rule:nonzero;"/>
            </g>
            <g transform="matrix(68,0,0,68,190.027,624.708)">
                <path d="M0.245,0.01C0.232,0.01 0.22,0.001 0.208,-0.017L0.208,-0.02C0.206,-0.055 0.2,-0.095 0.19,-0.138C0.18,-0.181 0.165,-0.234 0.146,-0.295C0.131,-0.341 0.119,-0.382 0.109,-0.419L0.109,-0.025C0.109,-0.014 0.107,-0.007 0.104,-0.002C0.1,0.004 0.093,0.006 0.082,0.006C0.074,0.006 0.068,0.004 0.063,-0.002C0.058,-0.007 0.056,-0.013 0.056,-0.021L0.056,-0.029L0.058,-0.323C0.059,-0.41 0.06,-0.507 0.06,-0.616L0.06,-0.739C0.06,-0.747 0.062,-0.753 0.065,-0.756C0.068,-0.759 0.075,-0.76 0.086,-0.76C0.103,-0.76 0.118,-0.757 0.132,-0.751C0.146,-0.744 0.158,-0.735 0.168,-0.724C0.189,-0.701 0.202,-0.673 0.208,-0.64C0.211,-0.627 0.212,-0.611 0.212,-0.594C0.212,-0.584 0.211,-0.573 0.21,-0.561C0.208,-0.549 0.207,-0.541 0.206,-0.538C0.205,-0.531 0.202,-0.521 0.197,-0.508C0.192,-0.495 0.189,-0.486 0.188,-0.482L0.176,-0.454L0.166,-0.428C0.167,-0.404 0.171,-0.374 0.179,-0.337C0.186,-0.3 0.195,-0.266 0.204,-0.235C0.211,-0.213 0.223,-0.176 0.24,-0.125L0.269,-0.037L0.269,-0.035C0.269,-0.024 0.268,-0.014 0.266,-0.006C0.264,0.005 0.257,0.01 0.245,0.01ZM0.107,-0.464C0.116,-0.473 0.128,-0.486 0.141,-0.503L0.156,-0.589C0.157,-0.592 0.157,-0.597 0.157,-0.603C0.157,-0.622 0.153,-0.645 0.146,-0.67C0.142,-0.682 0.137,-0.692 0.131,-0.701C0.124,-0.709 0.118,-0.713 0.111,-0.714L0.109,-0.614C0.107,-0.569 0.106,-0.535 0.106,-0.51C0.106,-0.487 0.106,-0.471 0.107,-0.464Z" style="fill-rule:nonzero;"/>
            </g>
            <g transform="matrix(68,0,0,68,209.679,624.708)">
                <path d="M0.131,0.012C0.124,0.012 0.118,0.01 0.114,0.005C0.109,0 0.106,-0.005 0.106,-0.012L0.108,-0.109C0.11,-0.152 0.111,-0.185 0.111,-0.206C0.111,-0.225 0.108,-0.254 0.102,-0.292C0.095,-0.329 0.092,-0.358 0.092,-0.379C0.092,-0.404 0.088,-0.433 0.081,-0.466C0.074,-0.499 0.064,-0.53 0.053,-0.56C0.042,-0.589 0.033,-0.619 0.026,-0.653C0.019,-0.686 0.015,-0.714 0.015,-0.739C0.015,-0.744 0.018,-0.748 0.023,-0.751C0.028,-0.754 0.034,-0.756 0.04,-0.756C0.047,-0.756 0.054,-0.748 0.061,-0.733C0.069,-0.716 0.077,-0.691 0.084,-0.66C0.091,-0.629 0.096,-0.61 0.097,-0.604L0.11,-0.535L0.12,-0.491C0.122,-0.502 0.124,-0.516 0.125,-0.533C0.129,-0.588 0.134,-0.634 0.14,-0.671C0.145,-0.696 0.15,-0.716 0.156,-0.729C0.163,-0.744 0.171,-0.751 0.18,-0.751C0.198,-0.751 0.207,-0.748 0.207,-0.741C0.207,-0.703 0.199,-0.647 0.183,-0.573C0.167,-0.499 0.159,-0.443 0.159,-0.404L0.157,-0.388C0.156,-0.378 0.155,-0.372 0.156,-0.37L0.156,-0.354C0.156,-0.325 0.157,-0.281 0.159,-0.222L0.161,-0.089L0.165,-0.042L0.165,-0.017C0.165,-0.009 0.162,-0.002 0.155,0.004C0.148,0.009 0.14,0.012 0.131,0.012Z" style="fill-rule:nonzero;"/>
            </g>
            <g transform="matrix(68,0,0,68,227.699,624.708)">
                <path d="M0.348,0.026C0.341,0.026 0.336,0.023 0.332,0.016C0.328,0.009 0.326,-0 0.326,-0.013L0.325,-0.161C0.324,-0.174 0.324,-0.195 0.324,-0.224C0.323,-0.286 0.322,-0.356 0.322,-0.434L0.322,-0.485C0.316,-0.453 0.306,-0.408 0.291,-0.35C0.276,-0.29 0.266,-0.241 0.26,-0.202L0.26,-0.196L0.257,-0.177C0.256,-0.162 0.252,-0.147 0.247,-0.132C0.24,-0.116 0.23,-0.108 0.216,-0.108C0.192,-0.108 0.18,-0.139 0.18,-0.202C0.18,-0.237 0.177,-0.274 0.17,-0.314C0.163,-0.353 0.151,-0.402 0.136,-0.46L0.106,-0.572L0.104,-0.452C0.104,-0.416 0.106,-0.347 0.109,-0.246L0.111,-0.178L0.113,-0.041C0.113,-0.027 0.108,-0.014 0.098,-0.003C0.081,-0.003 0.07,-0.008 0.064,-0.019C0.057,-0.029 0.054,-0.044 0.054,-0.064L0.056,-0.146C0.058,-0.182 0.059,-0.209 0.059,-0.227L0.057,-0.42L0.055,-0.614C0.055,-0.643 0.056,-0.686 0.057,-0.743L0.084,-0.759C0.089,-0.758 0.095,-0.755 0.1,-0.748C0.105,-0.74 0.111,-0.729 0.118,-0.714C0.135,-0.673 0.156,-0.59 0.183,-0.466C0.187,-0.449 0.19,-0.434 0.191,-0.423C0.199,-0.384 0.205,-0.355 0.208,-0.335L0.223,-0.258L0.23,-0.291L0.249,-0.373C0.26,-0.421 0.269,-0.463 0.276,-0.499C0.283,-0.535 0.289,-0.574 0.296,-0.616C0.303,-0.666 0.308,-0.708 0.31,-0.741L0.31,-0.747C0.311,-0.756 0.315,-0.763 0.322,-0.768C0.329,-0.773 0.337,-0.775 0.346,-0.775C0.352,-0.775 0.357,-0.772 0.362,-0.767C0.367,-0.762 0.369,-0.756 0.369,-0.75C0.369,-0.67 0.372,-0.55 0.378,-0.391C0.381,-0.313 0.384,-0.237 0.385,-0.162C0.386,-0.128 0.387,-0.085 0.387,-0.033C0.387,-0.018 0.383,-0.004 0.375,0.008C0.367,0.02 0.358,0.026 0.348,0.026Z" style="fill-rule:nonzero;"/>
            </g>
            <g transform="matrix(68,0,0,68,258.503,624.708)">
                <path d="M0.117,0.006C0.104,0.006 0.093,0.004 0.084,0.001C0.073,-0.002 0.067,-0.012 0.067,-0.027L0.067,-0.608C0.067,-0.619 0.065,-0.636 0.061,-0.659C0.056,-0.68 0.054,-0.697 0.054,-0.71L0.054,-0.713C0.065,-0.732 0.074,-0.744 0.079,-0.749C0.088,-0.749 0.101,-0.75 0.116,-0.753C0.13,-0.756 0.142,-0.757 0.153,-0.757C0.164,-0.757 0.174,-0.754 0.184,-0.748C0.194,-0.741 0.199,-0.734 0.199,-0.725C0.199,-0.705 0.184,-0.695 0.153,-0.695L0.139,-0.695C0.135,-0.696 0.13,-0.696 0.125,-0.696C0.119,-0.696 0.115,-0.696 0.114,-0.695C0.114,-0.672 0.115,-0.645 0.118,-0.613L0.12,-0.585L0.122,-0.53C0.122,-0.517 0.121,-0.498 0.119,-0.472L0.117,-0.416L0.131,-0.419C0.144,-0.423 0.155,-0.425 0.164,-0.425C0.171,-0.425 0.178,-0.422 0.184,-0.417C0.19,-0.411 0.193,-0.404 0.193,-0.397C0.193,-0.389 0.191,-0.382 0.186,-0.376C0.181,-0.369 0.174,-0.366 0.167,-0.366L0.155,-0.367L0.142,-0.367C0.132,-0.367 0.125,-0.365 0.121,-0.36L0.121,-0.051L0.177,-0.054C0.215,-0.054 0.234,-0.045 0.234,-0.028L0.234,-0.024C0.23,-0.016 0.223,-0.01 0.212,-0.005C0.201,0 0.191,0.004 0.181,0.005L0.148,0.006L0.117,0.006Z" style="fill-rule:nonzero;"/>
            </g>
            <g transform="matrix(68,0,0,68,277.407,624.708)">
                <path d="M0.104,0.023C0.083,0.023 0.064,0.019 0.049,0.012C0.039,0.007 0.034,0.001 0.034,-0.006C0.034,-0.013 0.037,-0.018 0.043,-0.022C0.048,-0.026 0.055,-0.028 0.062,-0.028C0.069,-0.028 0.077,-0.027 0.086,-0.024C0.098,-0.021 0.106,-0.019 0.111,-0.019C0.143,-0.019 0.159,-0.06 0.159,-0.141L0.157,-0.195C0.155,-0.223 0.154,-0.245 0.154,-0.261C0.154,-0.308 0.16,-0.339 0.173,-0.356C0.161,-0.371 0.155,-0.395 0.155,-0.427L0.157,-0.477C0.159,-0.506 0.16,-0.531 0.16,-0.55C0.16,-0.642 0.144,-0.688 0.111,-0.688C0.105,-0.688 0.095,-0.686 0.082,-0.682C0.069,-0.678 0.059,-0.676 0.052,-0.676C0.05,-0.676 0.048,-0.679 0.047,-0.684C0.045,-0.689 0.044,-0.694 0.044,-0.699C0.044,-0.706 0.048,-0.713 0.055,-0.718C0.062,-0.723 0.071,-0.727 0.08,-0.728C0.091,-0.729 0.099,-0.73 0.104,-0.73C0.14,-0.73 0.165,-0.72 0.18,-0.701C0.195,-0.681 0.202,-0.651 0.203,-0.61L0.203,-0.428C0.203,-0.416 0.205,-0.406 0.208,-0.399C0.211,-0.391 0.215,-0.386 0.22,-0.384C0.229,-0.379 0.239,-0.377 0.25,-0.377C0.261,-0.377 0.266,-0.37 0.266,-0.357C0.266,-0.341 0.259,-0.333 0.244,-0.333C0.235,-0.332 0.229,-0.331 0.224,-0.33C0.219,-0.328 0.214,-0.324 0.21,-0.317C0.205,-0.309 0.203,-0.298 0.203,-0.284L0.205,-0.231C0.206,-0.212 0.207,-0.188 0.207,-0.161C0.207,-0.132 0.205,-0.115 0.202,-0.108C0.203,-0.097 0.204,-0.088 0.204,-0.081C0.204,-0.05 0.195,-0.025 0.178,-0.006C0.16,0.014 0.135,0.023 0.104,0.023Z" style="fill-rule:nonzero;"/>
            </g>
        </g>
    </g>
    <g id="Roq">
        <g>
            <path d="M514.842,39.906C480.209,39.721 445.35,41.078 411.935,51.063C409.959,51.708 408.041,52.342 406.123,52.969C389.526,58.306 373.849,64.841 358.279,72.688C355.95,73.9 353.696,75.073 351.435,76.25C340.428,81.976 330.18,88.026 320.217,95.438C307.452,112.542 305.404,134.567 303.717,155.375C303.531,158.155 303.365,160.864 303.185,163.562C298.967,222.333 298.183,281.438 297.779,340.344C297.77,342.9 297.757,345.363 297.748,347.844C297.647,365.726 296.295,385.604 304.873,401.687C313.134,408.916 320.727,411.456 331.154,414.5C332.843,414.944 334.483,415.35 336.123,415.781C336.26,418.449 336.396,421.036 336.529,423.625C336.738,427.137 336.951,430.56 337.154,433.969C337.687,443.464 338.401,452.157 340.873,461.344C348.565,475.056 348.555,475.044 381.31,487.469C383.505,488.046 385.649,488.627 387.779,489.187C386.855,491.035 385.957,492.8 385.06,494.594C370.868,515.355 359.829,536.215 351.529,559.969C350.914,561.768 350.313,563.535 349.717,565.281C336.744,603.035 327.352,662.135 344.623,699.625C346.43,702.375 346.415,702.367 348.185,705.062C351.742,710.657 351.746,710.662 355.154,714.75L360.592,714.75C356.553,728.427 352.93,742.167 349.592,756.031C348.945,758.742 348.312,761.369 347.685,764C346.661,768.058 346.658,768.054 345.654,772.031C344.727,775.961 344.719,775.96 343.81,779.812C341.105,790.921 342.026,796.831 346.998,807.156C401.857,816.992 401.856,816.994 515.498,815.312C517.346,811.616 519.142,808.025 520.935,804.438C554.574,809.67 588.607,815.798 622.717,816.188C639.513,816.063 666.206,819.511 678.56,807.156C683.352,786.632 683.359,786.635 664.373,751C659.422,741.708 654.73,732.783 651.685,722.688C650.835,716.45 650.829,716.455 656.998,708.625C659.784,705.33 662.42,701.922 664.967,698.438C687.162,650.674 677.101,591.138 660.56,543.031C656.315,531.363 653.086,520.506 651.404,508.187C657.909,506.458 664.382,504.719 670.873,502.937C673.602,502.187 676.256,501.447 678.904,500.719C695.457,496.323 712.217,493.196 724.779,481.031C726.467,471.413 726.463,471.405 726.342,465.937C726.213,464.021 726.091,462.142 725.967,460.281C725.632,448.435 724.718,436.725 723.498,424.937C721.085,398.307 721.102,398.309 719.342,371.625C719.111,368.153 718.879,364.776 718.654,361.406C718.423,358.049 718.191,354.789 717.967,351.531C717.005,337.175 715.631,323.551 711.404,309.75C710.381,306.831 709.367,303.989 708.373,301.156C706.148,294.687 703.933,288.243 701.685,281.781C695.215,263.362 680.089,234.031 689.31,214.719C697.352,199.318 695.239,182.096 691.123,165.844C690.192,162.476 690.192,162.488 689.279,159.187C688.002,154.385 686.696,149.58 685.404,144.781C683.327,137.332 681.284,129.892 679.342,122.406C678.069,117.48 676.773,112.565 675.435,107.656C674.773,105.254 674.11,102.926 673.467,100.594C671.282,92.009 669.055,83.947 664.967,76.063C652.284,61.918 639.052,56.171 620.904,51.281C617.407,50.469 614.018,49.695 610.623,48.906C580.776,41.846 551.116,40.024 520.529,39.906C518.586,39.902 516.727,39.91 514.842,39.906ZM514.248,50.938C516.24,50.94 518.158,50.935 520.092,50.938C561.968,50.978 604.969,53.16 643.967,69.938C652.515,76.137 656.162,84.894 659.373,94.75C660.097,97.648 660.796,100.468 661.498,103.281C662.317,106.508 663.109,109.618 663.904,112.75C665.51,119.258 667.143,125.781 668.779,132.281C669.598,135.53 670.39,138.691 671.185,141.844C674.803,156.286 678.605,170.647 682.56,185C683.053,186.773 683.519,188.498 683.998,190.219C668.382,183.309 653.41,178.337 636.623,174.937C630.652,173.823 624.69,172.587 618.779,171.187C614.662,168.443 614.659,168.441 610.623,165.75C603.961,169.882 599.562,171.222 591.654,171.781C586.885,171.711 586.861,171.694 582.185,171.625C576.85,171.579 571.52,171.551 566.185,171.469C542.994,171.086 520.154,170.873 497.06,173.062C487.665,174.134 482.582,175.796 475.029,169.875C474.002,168.471 473.026,167.113 472.029,165.75L472.029,173.906C466.178,175.479 460.322,177.066 454.467,178.625C452.005,179.28 449.606,179.896 447.217,180.531C444.82,181.176 442.512,181.812 440.185,182.437C437.839,183.06 435.557,183.646 433.279,184.25C423.484,186.867 414.211,188.532 404.092,190.219C397.623,155.105 391.338,121.018 385.06,86.938C373.033,92.951 362.099,98.607 349.717,103.25C348.871,95.29 348.873,95.281 352.967,91C396.479,54.928 460.293,50.989 514.248,50.938ZM344.279,95.094C343.355,98.79 342.457,102.381 341.56,105.969C331.953,107.341 331.977,107.342 322.56,108.687C323.484,106.839 324.351,105.044 325.248,103.25C331.773,98.9 336.305,95.094 344.279,95.094ZM535.998,208.875C538.494,208.871 540.888,208.878 543.31,208.875C545.922,208.886 548.463,208.896 550.998,208.906C553.62,208.895 556.171,208.885 558.717,208.875C562.419,208.88 562.432,208.87 566.06,208.875C570.05,208.88 574.048,208.982 578.029,209.25C591.457,231.13 591.43,231.125 599.435,256.562C600.259,258.872 601.073,261.102 601.873,263.344C603.498,267.895 605.107,272.474 606.717,277.031C611.022,289.741 615.197,301.132 623.123,312.062C629.374,319.859 629.361,319.855 632.404,325.75C636.492,334.711 638.297,338.228 635.092,347.844C614.053,351.414 593.503,353.646 572.154,353.812C569.645,353.811 567.215,353.783 564.779,353.781C556.481,353.787 548.263,353.635 539.967,353.281C535.255,344.462 535.248,344.473 534.654,333.906C531.512,311.102 527.737,288.528 523.154,265.969C519.252,247.676 517.568,230.695 518.217,211.969C523.472,208.899 523.473,208.906 529.217,208.906C532.631,208.902 532.651,208.88 535.998,208.875ZM594.31,217.406C617.247,218.605 640.466,220.698 662.279,228.281C674.011,235.199 677.7,241.744 681.185,254.844C684.377,268.037 687.46,281.116 693.217,293.437C703.728,313.917 704.565,332.631 705.092,355.219C705.516,375.398 706.78,395.338 708.623,415.437C710.338,433.743 711.761,451.759 711.185,470.156C697.408,477.85 697.397,477.854 681.279,481.031C674.933,481.906 668.616,482.811 662.279,483.75C644.066,491.158 628.129,493.58 608.529,494.562C605.62,496.769 607.36,488.376 604.078,487.332C604.068,487.329 598.664,496.222 598.654,496.219C598.409,496.238 592.057,488.295 591.806,488.295C590.601,488.295 595.598,496.015 594.529,495.625C594.448,496.126 594.419,497.069 594.31,497.312C580.02,497.521 565.991,497.977 551.842,495.781C548.582,495.181 548.599,495.182 545.404,494.594C539.837,497.927 539.844,497.944 532.31,497C529.257,496.708 526.274,496.409 523.31,496.125C517.987,495.63 512.662,495.123 507.342,494.594C505.288,484.303 501.559,479.93 493.748,472.875C498.103,482.264 498.106,482.24 501.904,491.875L491.06,491.875C490.136,487.255 489.238,482.797 488.342,478.312C487.418,482.933 486.52,487.391 485.623,491.875C477.669,491.875 470.445,490.756 462.654,489.25C460.759,488.875 458.9,488.52 457.06,488.156C446.302,486.148 437.831,484.513 428.529,478.312C427.297,472.896 426.137,467.435 425.342,461.937C425.044,459.622 424.756,457.373 424.467,455.125C423.429,447.827 422.392,440.554 421.404,433.25C420.075,423.352 418.697,413.453 417.31,403.562C416.964,401.118 416.647,398.748 416.31,396.375C414.17,381.174 411.733,366.335 407.81,351.469C405.838,344.266 404.125,337.48 403.248,330.062C402.08,314.88 399.395,301.215 395.185,286.562C393.613,281.262 392.037,275.957 390.467,270.656C389.712,268.03 388.98,265.486 388.248,262.937C385.521,253.758 384.672,251.165 387.779,241.844C392.62,241.141 397.464,240.446 402.31,239.781C405.353,239.366 405.328,239.376 408.31,238.969C419.873,237.266 430.164,236.313 441.873,237.344C450.358,239.144 453.366,240.422 458.435,247.281C445.329,248.92 434.213,253.942 423.092,260.875C413.471,270.249 410.735,277.478 409.498,290.781C411.346,291.705 413.142,292.603 414.935,293.5C427.689,281.408 438.738,271.467 455.717,266.312C467.899,264.866 481.088,264.124 491.06,271.75C496.925,289.004 497.024,307.038 496.842,325.062C496.723,331.149 496.592,337.257 496.498,343.344C496.464,346.349 496.438,349.24 496.404,352.156C496.147,366.014 499.444,375.851 504.623,388.625L510.06,388.625C534.572,401.394 534.566,401.382 587.029,399.656C587.868,399.625 588.678,399.589 589.498,399.562C590.948,398.537 593.057,416.551 594.373,397.781C594.352,397.448 594.329,397.115 594.31,396.781C609.019,391.554 622.869,386.967 634.404,376.219C640.212,360.247 640.482,342.265 635.092,326.094C624.263,310.037 613.077,294.105 610.623,274.469C616.261,269.987 616.266,269.984 624.217,266.312C637.519,264.786 645.582,265.514 657.498,271.594C664.525,275.645 670.597,278.232 678.56,279.906L678.56,274.469C675.476,267.336 671.87,262.181 666.092,256.969C651.217,246.239 636.795,244.516 618.779,247.281C611.66,252.027 607.797,253.772 599.748,255.437C599.109,253.077 598.493,250.791 597.873,248.5C597.068,245.432 596.279,242.447 595.498,239.469C593.204,230.844 590.252,225.524 594.31,217.406ZM640.529,540.812C643.301,541.737 645.995,542.634 648.685,543.531C657.129,565.633 657.126,565.622 660.592,589.188C660.932,591.737 661.262,594.213 661.592,596.688C664.956,621.656 671.514,657.398 656.842,679.406C655.7,671.074 654.533,662.736 653.373,654.406C652.872,650.834 652.39,647.374 651.904,643.906C649.379,625.862 647.03,607.782 643.31,589.938C639.447,572.392 636.558,558.5 640.529,540.812ZM627.998,555.312C630.391,555.413 632.759,555.959 635.092,557.125C635.541,559.127 635.968,561.056 636.404,563C636.709,565.661 637.014,568.261 637.31,570.844C637.658,573.82 638.004,576.705 638.342,579.594C638.683,582.811 639.01,585.939 639.342,589.062C641.632,610.001 643.704,630.945 645.029,651.969C645.236,655.626 645.233,655.602 645.435,659.188C646.607,677.431 648.559,699.966 635.904,714.656C625.88,720.151 619.775,722.82 608.092,723.562C605.262,723.331 602.494,723.131 599.748,722.906C590.603,727.537 590.621,727.53 579.685,727.656C575.078,728.108 570.449,728.545 565.842,729C563.598,729.231 561.425,729.463 559.248,729.688C555.526,730.052 551.821,730.504 548.123,731.062C537.179,734.113 537.185,734.091 525.623,732.25C509.452,729.601 487.978,728.695 477.467,714.75L477.467,709.312C475.734,709.172 474.054,709.043 472.373,708.906C465.934,707.098 465.922,707.085 463.529,700.125C462.721,697.183 461.939,694.324 461.154,691.469C459.776,686.514 458.391,681.569 457.092,676.594C456.166,673.027 455.239,669.464 454.279,665.906C447.342,640.216 433.089,604.611 442.123,578.844C448.651,574.36 453.076,573.432 461.029,572.906C464.205,572.971 467.291,573.031 470.373,573.094C473.898,573.142 477.326,573.172 480.748,573.219C524.118,574.036 564.112,572.102 606.217,560.688C613.426,558.61 620.817,555.011 627.998,555.312ZM522.842,747.094C524.462,747.123 526.445,747.201 529.092,747.344C529.399,763.042 529.773,774.868 520.935,788.125C519.081,776.625 515.495,765.927 511.748,754.938C511.174,753.281 510.617,751.67 510.06,750.062C516.39,747.595 517.981,747.006 522.842,747.094ZM647.56,760.031C650.002,760.116 652.296,760.387 656.842,760.938C662.455,768.448 662.454,768.465 664.092,775.562C664.572,777.988 665.032,780.333 665.498,782.688C667.383,791.8 667.967,795.436 664.967,804.438C658.892,804.493 652.823,804.53 646.748,804.562C642.998,804.581 643.018,804.575 639.342,804.594C636.828,804.617 634.375,804.634 631.935,804.656C629.544,804.665 627.225,804.678 624.904,804.688C621.049,804.713 617.189,804.673 613.342,804.438C609.973,801.616 609.988,801.607 609.779,795.5C609.552,792.934 609.312,790.459 609.092,787.969C608.857,785.395 608.632,782.873 608.404,780.375C608.234,778.386 608.069,776.462 607.904,774.531L602.467,774.531C605.553,779.82 605.569,779.817 605.56,785.75C605.553,787.999 605.536,790.192 605.529,792.375C605.536,794.631 605.554,796.811 605.56,799C605.798,804.423 605.783,804.437 602.467,807.156C598.349,804.411 598.346,804.409 594.31,801.719C595.234,788.782 596.132,776.212 597.029,763.656C606.988,762.054 616.564,760.932 626.654,760.406C632.031,760.342 632.008,760.344 637.279,760.281C642.5,760.07 645.119,759.946 647.56,760.031ZM484.092,762.625C491.808,762.439 498.314,762.785 504.623,769.094C510.987,787.462 510.989,787.476 510.06,807.156C505.532,807.272 500.995,807.267 496.467,807.156C495.543,806.232 494.645,805.334 493.748,804.438C488.484,804.31 483.231,804.336 477.967,804.438C467.72,804.637 460.333,804.232 450.279,801.719C449.355,793.403 448.457,785.321 447.56,777.25C446.636,786.49 445.738,795.469 444.842,804.438C440.124,804.523 440.123,804.509 435.498,804.594C426.317,805.554 426.31,805.567 423.092,801.719C422.705,791.485 422.019,781.462 425.81,771.812C430.559,765.538 432.914,763.827 440.81,762.656C443.546,762.665 446.186,762.679 448.842,762.688C451.821,762.689 454.731,762.685 457.623,762.688C460.733,762.733 463.73,762.769 466.748,762.812C471.383,762.799 471.392,762.795 475.935,762.781C478.808,762.8 481.519,762.687 484.092,762.625Z" style="fill-rule:nonzero;"/>
        </g>
        <path d="M512,440.443C512,440.443 542.08,441.738 573.09,441.626C604.101,441.515 640.134,428.215 640.134,428.215C640.134,428.215 614.872,460.189 614.532,460.161" style="fill-rule:nonzero;stroke:white;stroke-width:1px;"/>
    </g>
</svg>
