<?xml version="1.0" encoding="UTF-8" standalone="no"?>
<svg
   version="1.1"
   viewBox="300 100 940 940"
   id="svg1"
   xmlns="http://www.w3.org/2000/svg"
   xmlns:svg="http://www.w3.org/2000/svg">
  <defs>
    <clipPath id="outline-clip">
      <path d="M 766 329 C 740 329 713 329 703 330 C 693 331 676 332 666 333 C 654 334 640 336 633 337 C 626 338 614 341 607 342 C 599 344 588 347 584 349 C 579 351 572 354 568 355 C 565 357 559 360 556 363 C 552 366 546 370 543 373 C 540 376 536 382 534 385 C 532 388 529 395 527 400 C 525 405 523 414 521 420 C 519 427 517 438 516 446 C 514 453 512 466 511 476 C 509 486 507 503 506 516 C 504 528 502 548 501 561 C 500 574 499 589 498 594 L 498 604 L 484 604 C 476 604 467 605 462 606 C 458 607 451 609 448 610 C 444 611 439 614 436 615 C 432 617 427 620 424 622 C 420 625 415 629 412 633 C 408 636 404 641 402 644 C 400 647 398 653 396 656 C 395 660 394 666 393 670 C 392 675 392 681 393 685 L 393 692 L 369 692 C 349 692 344 692 341 694 C 340 694 337 697 336 698 C 335 700 334 703 334 704 C 334 705 335 708 336 710 C 337 712 339 714 341 715 C 345 717 347 717 377 717 L 409 717 L 415 722 C 418 725 423 728 426 730 C 429 731 434 733 436 734 C 439 735 443 736 444 736 C 446 737 451 737 456 736 C 461 736 467 735 472 734 L 479 732 L 485 734 C 490 736 495 736 504 737 C 514 737 517 737 524 735 C 529 734 534 733 536 732 C 539 732 542 733 546 734 C 550 735 555 736 561 737 C 568 737 572 737 577 736 C 581 735 587 733 591 731 C 594 729 599 725 602 722 L 607 717 L 774 717 L 940 717 L 943 721 C 945 723 949 726 952 728 C 955 730 961 733 965 734 C 970 736 974 736 984 736 C 993 736 997 736 1003 734 L 1011 732 L 1018 734 C 1024 736 1027 736 1038 736 C 1048 736 1052 736 1057 734 C 1060 733 1064 732 1065 732 C 1067 732 1070 733 1074 734 C 1077 735 1083 736 1087 737 C 1092 737 1097 737 1101 736 C 1105 735 1111 732 1115 731 C 1119 729 1124 725 1127 722 L 1133 717 L 1162 717 C 1187 717 1192 717 1195 715 C 1197 714 1199 712 1200 711 C 1202 708 1202 706 1202 703 C 1201 701 1200 698 1199 697 C 1199 696 1197 695 1196 694 L 1195 694 L 1195 693 C 1194 693 1194 693 1194 693 C 1192 692 1185 692 1169 692 L 1146 692 L 1147 684 C 1147 679 1147 674 1146 668 C 1145 663 1142 656 1139 650 C 1136 643 1133 639 1127 633 C 1123 629 1117 624 1114 621 C 1110 619 1104 616 1100 614 C 1097 613 1089 610 1083 609 C 1078 607 1070 606 1066 605 C 1062 604 1054 604 1049 604 L 1040 604 L 1040 601 C 1039 599 1039 594 1039 590 C 1038 585 1037 570 1035 556 C 1034 542 1032 520 1030 507 C 1028 494 1026 477 1024 468 C 1023 459 1020 444 1018 435 C 1016 426 1014 414 1012 410 C 1011 405 1008 396 1005 390 C 1001 383 998 378 994 374 C 990 370 985 365 982 363 C 979 361 973 358 970 356 C 966 354 959 351 955 350 C 951 348 942 345 934 344 C 927 342 914 339 906 338 C 897 336 881 334 872 333 C 862 332 844 331 832 330 C 820 329 790 329 766 329 z"/>
    </clipPath>
  </defs>
  <g id="g1">
    <path
       id="body"
       style="fill:#d3c6a7"
       clip-path="url(#outline-clip)"
       d="M 744 327 C 729 328 707 329 696 330 C 685 330 667 332 657 333 C 647 334 634 336 630 337 C 625 337 614 340 606 341 C 599 343 588 346 584 348 C 579 350 572 353 568 354 C 565 356 560 359 556 362 C 554 363 551 365 548 368 C 547 369 546 370 545 370 C 545 371 544 372 543 373 C 543 373 542 373 542 373 C 538 377 534 384 532 387 C 531 388 531 390 530 391 C 530 391 530 391 530 392 C 530 392 530 392 530 392 C 528 395 526 398 526 401 C 524 405 522 414 520 420 C 518 427 516 438 515 446 C 513 453 511 466 510 476 C 508 486 506 502 505 512 C 504 521 502 541 501 556 C 499 571 498 587 497 593 L 497 602 L 497 603 L 488 603 C 483 603 476 603 471 604 C 466 605 459 606 454 607 C 450 608 443 611 438 613 C 434 615 428 619 424 621 C 421 623 416 627 413 629 C 410 632 406 637 403 642 C 400 646 397 652 396 655 C 395 658 393 664 392 669 C 392 674 391 680 392 684 L 392 691 L 369 691 C 357 691 345 691 343 692 C 342 692 342 692 342 692 C 342 692 342 692 342 692 L 341 692 L 340 693 L 340 693 C 339 694 337 695 337 696 C 335 698 334 701 333 702 C 333 705 333 707 335 710 C 336 712 338 714 340 716 L 342 717 L 343 717 C 347 718 353 718 377 718 L 409 718 L 410 718 L 415 723 C 418 726 423 730 427 732 C 431 733 438 736 441 737 C 445 737 451 738 456 738 C 461 737 468 736 472 735 L 478 733 L 478 733 C 478 733 479 733 479 733 L 486 735 C 490 737 496 737 504 738 C 505 738 506 738 506 738 C 507 738 507 738 508 738 C 515 738 518 738 524 736 C 529 735 535 734 538 734 C 540 734 546 735 550 736 C 554 737 559 738 564 738 C 568 738 574 737 578 736 C 581 736 587 734 591 732 C 594 730 599 727 602 724 L 608 718 L 773 718 L 939 718 L 945 724 C 948 727 954 730 957 732 C 959 733 961 733 963 734 C 963 734 963 734 963 734 C 963 734 963 734 963 734 C 966 735 968 736 971 737 C 976 738 981 738 987 738 C 993 738 999 737 1004 735 L 1011 733 L 1018 735 C 1024 737 1027 737 1037 737 C 1045 737 1050 737 1054 736 C 1058 735 1062 734 1064 733 C 1066 733 1069 734 1073 735 C 1077 736 1083 737 1087 738 C 1092 738 1097 738 1101 737 C 1105 736 1111 734 1115 732 C 1118 730 1124 726 1127 723 L 1133 718 L 1162 718 C 1184 718 1192 718 1194 717 C 1196 716 1199 714 1200 713 C 1202 711 1202 709 1202 706 C 1203 704 1203 703 1202 702 C 1202 699 1202 698 1200 696 C 1199 695 1196 693 1194 692 C 1192 691 1185 691 1169 691 L 1147 691 L 1148 684 C 1148 679 1148 674 1147 668 C 1146 663 1143 656 1141 650 C 1140 649 1139 647 1138 646 C 1138 646 1138 646 1138 646 C 1138 646 1138 646 1138 646 C 1136 643 1134 640 1132 637 C 1132 637 1131 636 1131 636 C 1131 636 1131 636 1131 636 C 1130 635 1130 635 1129 634 C 1126 630 1120 625 1116 622 C 1113 620 1106 616 1102 614 C 1100 613 1097 612 1094 611 C 1093 611 1092 610 1092 610 C 1091 610 1089 610 1089 609 C 1087 609 1085 608 1084 608 C 1078 606 1070 605 1065 604 C 1060 603 1053 603 1049 603 C 1042 603 1041 603 1041 601 C 1040 600 1039 587 1038 574 C 1037 561 1035 540 1033 528 C 1032 516 1029 494 1027 480 C 1025 465 1022 445 1020 436 C 1018 426 1015 414 1013 410 C 1013 408 1011 405 1010 402 C 1010 400 1009 398 1009 397 C 1009 396 1008 395 1007 394 C 1007 393 1006 391 1006 390 C 1002 382 1000 379 995 374 C 995 373 994 373 994 372 C 993 371 991 370 990 368 C 983 362 980 360 972 356 C 970 355 967 354 964 353 C 964 353 964 353 964 352 C 964 352 964 352 964 352 C 961 351 957 349 956 349 C 952 347 943 345 937 343 C 931 341 919 339 911 338 C 903 336 889 334 880 333 C 871 332 857 331 850 330 C 843 329 822 329 804 328 C 786 327 759 327 744 327 z " />
    <path
       id="outline"
       style="fill:#0E0E0C"
       d="M 766 329 C 740 329 713 329 703 330 C 693 331 676 332 666 333 C 654 334 640 336 633 337 C 626 338 614 341 607 342 C 599 344 588 347 584 349 C 579 351 572 354 568 355 C 565 357 559 360 556 363 C 552 366 546 370 543 373 C 540 376 536 382 534 385 C 532 388 529 395 527 400 C 525 405 523 414 521 420 C 519 427 517 438 516 446 C 514 453 512 466 511 476 C 509 486 507 503 506 516 C 504 528 502 548 501 561 C 500 574 499 589 498 594 L 498 604 L 484 604 C 476 604 467 605 462 606 C 458 607 451 609 448 610 C 444 611 439 614 436 615 C 432 617 427 620 424 622 C 420 625 415 629 412 633 C 408 636 404 641 402 644 C 400 647 398 653 396 656 C 395 660 394 666 393 670 C 392 675 392 681 393 685 L 393 692 L 369 692 C 349 692 344 692 341 694 C 340 694 337 697 336 698 C 335 700 334 703 334 704 C 334 705 335 708 336 710 C 337 712 339 714 341 715 C 345 717 347 717 377 717 L 409 717 L 415 722 C 418 725 423 728 426 730 C 429 731 434 733 436 734 C 439 735 443 736 444 736 C 446 737 451 737 456 736 C 461 736 467 735 472 734 L 479 732 L 485 734 C 490 736 495 736 504 737 C 514 737 517 737 524 735 C 529 734 534 733 536 732 C 539 732 542 733 546 734 C 550 735 555 736 561 737 C 568 737 572 737 577 736 C 581 735 587 733 591 731 C 594 729 599 725 602 722 L 607 717 L 774 717 L 940 717 L 943 721 C 945 723 949 726 952 728 C 955 730 961 733 965 734 C 970 736 974 736 984 736 C 993 736 997 736 1003 734 L 1011 732 L 1018 734 C 1024 736 1027 736 1038 736 C 1048 736 1052 736 1057 734 C 1060 733 1064 732 1065 732 C 1067 732 1070 733 1074 734 C 1077 735 1083 736 1087 737 C 1092 737 1097 737 1101 736 C 1105 735 1111 732 1115 731 C 1119 729 1124 725 1127 722 L 1133 717 L 1162 717 C 1187 717 1192 717 1195 715 C 1197 714 1199 712 1200 711 C 1202 708 1202 706 1202 703 C 1201 701 1200 698 1199 697 C 1199 696 1197 695 1196 694 L 1195 694 L 1195 693 C 1194 693 1194 693 1194 693 C 1192 692 1185 692 1169 692 L 1146 692 L 1147 684 C 1147 679 1147 674 1146 668 C 1145 663 1142 656 1139 650 C 1136 643 1133 639 1127 633 C 1123 629 1117 624 1114 621 C 1110 619 1104 616 1100 614 C 1097 613 1089 610 1083 609 C 1078 607 1070 606 1066 605 C 1062 604 1054 604 1049 604 L 1040 604 L 1040 601 C 1039 599 1039 594 1039 590 C 1038 585 1037 570 1035 556 C 1034 542 1032 520 1030 507 C 1028 494 1026 477 1024 468 C 1023 459 1020 444 1018 435 C 1016 426 1014 414 1012 410 C 1011 405 1008 396 1005 390 C 1001 383 998 378 994 374 C 990 370 985 365 982 363 C 979 361 973 358 970 356 C 966 354 959 351 955 350 C 951 348 942 345 934 344 C 927 342 914 339 906 338 C 897 336 881 334 872 333 C 862 332 844 331 832 330 C 820 329 790 329 766 329 z M 787 352 C 804 353 823 353 829 354 C 835 355 846 356 854 357 L 869 358 C 869 358 869 358 869 358 L 879 367 C 885 372 891 377 893 379 C 895 382 896 384 897 392 C 898 398 900 403 901 405 C 901 406 904 409 908 412 C 911 414 913 417 914 419 C 914 420 914 422 913 423 C 912 424 907 430 902 435 C 897 440 891 446 890 448 C 888 452 888 453 889 454 C 889 455 891 455 892 455 C 894 454 898 452 901 450 C 905 447 911 442 916 439 C 922 435 926 433 928 433 C 930 433 932 434 936 439 C 939 442 942 445 943 446 C 944 446 951 448 959 449 C 967 451 975 453 978 453 C 980 454 984 456 986 458 C 988 459 990 461 991 462 C 991 463 992 466 993 470 C 994 474 996 488 998 503 C 1000 517 1002 530 1002 530 C 1002 530 1002 531 1002 531 C 1002 531 1001 531 1001 531 C 1000 531 996 529 990 527 C 985 525 975 522 968 520 C 961 519 948 515 938 513 C 928 511 914 508 906 507 C 898 505 884 503 875 502 C 866 501 851 499 842 498 C 831 497 809 497 785 496 C 760 496 739 496 727 497 C 716 498 700 499 691 500 C 682 501 667 503 659 505 C 650 506 638 508 632 510 C 626 511 616 513 611 515 C 605 516 596 519 590 521 C 584 523 579 524 578 524 C 578 523 578 516 579 507 C 580 499 581 480 583 466 C 584 452 586 432 588 422 C 589 412 591 399 592 394 C 593 389 595 383 596 381 C 597 379 600 377 602 376 C 604 374 609 372 614 370 C 619 369 629 366 637 364 C 645 362 658 360 666 359 C 675 358 689 356 698 356 C 706 355 723 354 734 353 C 747 352 768 352 787 352 z M 893 363 C 894 363 899 364 906 365 C 912 366 924 369 931 371 C 938 372 948 376 952 377 C 956 379 961 382 964 384 C 966 386 970 390 972 393 C 974 396 977 403 978 407 C 980 411 982 419 983 424 C 984 429 985 436 986 439 C 986 444 986 445 984 445 C 983 445 978 444 972 442 C 966 440 958 438 954 437 C 949 435 946 434 944 432 C 942 430 939 426 937 423 C 935 419 931 414 926 410 C 922 407 917 403 917 402 C 916 400 915 396 914 391 C 913 387 913 383 912 382 C 912 381 908 376 902 372 C 897 367 893 364 893 363 L 893 363 z M 772 513 C 780 513 790 513 796 514 C 802 515 809 516 813 517 C 816 517 821 519 824 521 C 826 522 830 524 831 526 C 831 527 833 534 835 542 C 837 549 842 576 848 602 C 854 628 859 653 860 659 C 861 665 862 672 862 674 C 862 677 861 680 861 682 C 859 684 858 685 854 686 C 851 687 843 689 834 689 C 826 690 806 690 790 690 C 774 690 758 689 754 689 C 751 689 747 688 746 687 C 744 686 742 684 740 683 C 739 682 737 678 736 675 C 734 673 732 667 731 662 C 730 654 730 648 730 589 C 730 526 730 524 731 522 C 733 522 736 520 739 519 C 741 518 747 516 752 516 C 756 515 765 514 772 513 z M 647 548 C 655 548 665 550 670 551 C 674 551 680 553 683 555 C 687 556 690 558 691 560 C 691 562 692 566 692 571 C 692 579 692 579 690 579 C 688 578 684 578 680 577 C 677 576 668 576 660 576 C 653 576 643 577 638 577 C 632 578 624 580 619 582 C 614 584 607 586 603 588 C 599 590 594 594 591 597 C 588 599 585 603 584 604 C 584 606 583 608 583 609 C 583 609 585 612 586 614 C 589 616 591 617 593 617 C 595 617 602 615 608 613 C 615 610 623 607 627 606 C 631 605 639 604 643 603 C 648 602 658 602 669 602 C 679 602 687 603 688 603 C 688 604 686 619 684 638 C 682 656 680 676 679 682 L 679 692 L 646 692 L 615 692 C 614 692 614 692 614 692 C 614 692 614 692 614 691 L 612 685 C 611 681 609 674 608 671 C 606 667 603 661 600 657 C 598 653 592 647 588 642 C 584 638 578 632 575 630 C 572 628 565 624 561 622 C 557 620 553 618 553 618 C 553 617 554 607 555 593 C 557 576 558 569 559 567 C 560 565 562 562 565 561 C 567 559 573 557 578 555 C 583 553 591 551 596 551 C 600 550 611 549 619 548 C 627 547 638 547 647 548 z M 899 548 C 908 548 920 548 928 548 C 935 549 945 549 949 550 C 953 551 960 552 965 554 C 969 555 976 557 979 559 C 983 560 987 563 989 564 C 991 566 993 569 994 570 C 994 572 996 577 996 582 C 997 587 998 597 998 603 L 998 613 L 989 619 C 984 621 977 625 974 627 C 972 629 966 634 961 639 C 956 644 950 650 947 654 C 945 657 941 663 939 667 C 937 672 935 679 934 683 L 933 692 C 933 692 932 692 932 692 L 907 692 C 893 692 881 692 881 691 C 881 691 881 688 881 684 C 881 680 880 673 879 667 C 879 662 875 646 871 632 C 868 618 865 606 865 605 C 865 603 867 603 875 602 C 880 602 893 602 903 602 C 918 603 923 603 931 605 C 936 607 945 610 952 612 C 958 614 964 616 966 617 C 969 617 971 616 974 615 C 975 614 977 612 978 611 C 978 609 978 607 978 605 C 977 604 975 600 972 598 C 970 596 965 592 962 590 C 958 588 951 585 946 583 C 941 582 932 579 927 578 C 920 577 914 577 898 577 C 881 577 876 577 868 579 C 864 580 859 580 859 580 C 858 580 858 575 857 570 C 857 563 857 561 858 559 C 859 557 861 555 863 554 C 865 554 870 552 875 551 C 880 550 891 548 899 548 z M 1057 627 C 1061 627 1064 628 1067 628 C 1071 629 1077 630 1080 631 C 1083 632 1089 634 1093 636 C 1097 638 1102 641 1106 644 C 1109 648 1113 652 1114 655 C 1116 658 1118 664 1118 668 C 1119 674 1119 678 1118 684 C 1117 690 1116 695 1114 699 C 1111 704 1109 706 1106 708 C 1101 711 1099 712 1093 712 C 1087 712 1084 712 1083 711 C 1082 710 1083 707 1085 698 C 1086 692 1087 683 1088 678 C 1088 672 1088 668 1087 666 C 1086 664 1085 663 1084 663 C 1084 662 1082 662 1082 663 C 1081 663 1080 665 1079 667 C 1078 669 1075 676 1073 682 C 1071 688 1068 696 1066 698 C 1065 701 1063 704 1061 706 C 1059 708 1055 710 1051 711 C 1048 712 1042 713 1039 713 C 1035 713 1030 712 1028 712 C 1025 711 1022 710 1022 709 C 1021 708 1021 706 1021 704 C 1021 702 1022 693 1024 685 C 1025 676 1026 668 1026 667 C 1026 665 1025 663 1024 662 C 1022 661 1022 661 1019 662 C 1018 663 1015 666 1013 669 C 1012 672 1008 679 1006 686 C 1004 692 1001 700 999 703 C 998 706 996 709 995 710 C 993 711 990 711 986 711 C 983 711 979 710 976 710 C 974 709 972 707 970 706 C 969 705 967 701 966 699 C 966 696 965 690 965 685 C 965 680 966 675 967 671 C 968 668 970 663 972 661 C 974 658 977 654 979 652 C 982 649 987 646 990 643 C 994 641 1000 638 1004 636 C 1007 634 1015 632 1020 630 C 1027 628 1032 628 1044 627 C 1049 627 1053 627 1057 627 z M 493 628 C 512 628 514 628 523 630 C 529 632 537 635 542 637 C 548 640 554 643 557 645 C 559 647 564 650 566 653 C 569 655 573 660 576 663 C 578 667 581 672 582 677 C 584 683 585 687 585 693 C 585 698 584 702 583 704 C 582 706 580 708 577 710 C 574 711 570 712 565 713 C 560 713 557 713 554 711 L 549 710 C 549 709 548 709 548 708 L 542 694 C 539 686 535 677 534 674 C 532 671 530 667 528 666 C 526 664 524 662 524 662 C 523 662 521 663 520 664 C 519 666 519 666 521 675 C 522 680 524 688 525 693 C 525 698 526 703 526 705 C 526 707 525 709 525 710 C 524 710 521 711 518 712 C 515 712 510 713 507 713 C 504 713 499 712 495 711 C 491 709 487 707 485 706 C 483 704 480 701 479 698 C 477 695 474 687 471 679 C 468 672 465 665 464 664 C 463 663 462 662 461 662 C 461 662 459 663 458 665 C 457 667 457 668 458 679 C 459 685 460 695 461 700 C 463 709 463 709 461 711 C 460 711 457 712 454 712 C 451 712 447 711 444 710 C 442 709 438 706 436 703 C 434 701 431 696 430 693 C 429 690 427 685 427 683 C 426 680 426 673 426 668 C 427 659 427 657 429 652 C 431 649 434 645 436 643 C 438 641 443 638 447 636 C 451 634 459 631 464 630 C 471 628 475 628 493 628 z " />
  </g>
</svg>
