<?xml version="1.0" encoding="UTF-8" standalone="no"?>
<!DOCTYPE svg PUBLIC "-//W3C//DTD SVG 1.1//EN" "http://www.w3.org/Graphics/SVG/1.1/DTD/svg11.dtd">
<svg width="100%" height="100%" viewBox="0 0 1024 1024" version="1.1" xmlns="http://www.w3.org/2000/svg" xmlns:xlink="http://www.w3.org/1999/xlink" xml:space="preserve" xmlns:serif="http://www.serif.com/" style="fill-rule:evenodd;clip-rule:evenodd;stroke-linejoin:round;stroke-miterlimit:2;">
    <g id="Light">
        <g transform="matrix(1,0,0,1,-27.2474,138.493)">
            <g id="Title">
                <g transform="matrix(128,0,0,128,897.543,813.129)">
                </g>
                <text x="181.767px" y="813.129px" style="font-family:'Delius-Regular', 'Delius';font-size:128px;">« I am R<tspan x="659.591px " y="813.129px ">o</tspan>q »</text>
            </g>
        </g>
        <g transform="matrix(0.994431,-0.105389,0.105389,0.994431,278.774,68.9815)">
            <g id="Tag">
                <g transform="matrix(68,0,0,68,293.115,624.708)">
                </g>
                <text x="121.823px" y="624.708px" style="font-family:'AmaticSC-Bold', 'Amatic SC';font-weight:700;font-size:68px;">{#HELLO}</text>
            </g>
        </g>
        <g id="Roq">
            <g>
                <path d="M514.842,39.906C480.209,39.721 445.35,41.078 411.935,51.063C409.959,51.708 408.041,52.342 406.123,52.969C389.526,58.306 373.849,64.841 358.279,72.688C355.95,73.9 353.696,75.073 351.435,76.25C340.428,81.976 330.18,88.026 320.217,95.438C307.452,112.542 305.404,134.567 303.717,155.375C303.531,158.155 303.365,160.864 303.185,163.562C298.967,222.333 298.183,281.438 297.779,340.344C297.77,342.9 297.757,345.363 297.748,347.844C297.647,365.726 296.295,385.604 304.873,401.687C313.134,408.916 320.727,411.456 331.154,414.5C332.843,414.944 334.483,415.35 336.123,415.781C336.26,418.449 336.396,421.036 336.529,423.625C336.738,427.137 336.951,430.56 337.154,433.969C337.687,443.464 338.401,452.157 340.873,461.344C348.565,475.056 348.555,475.044 381.31,487.469C383.505,488.046 385.649,488.627 387.779,489.187C386.855,491.035 385.957,492.8 385.06,494.594C370.868,515.355 359.829,536.215 351.529,559.969C350.914,561.768 350.313,563.535 349.717,565.281C336.744,603.035 327.352,662.135 344.623,699.625C346.43,702.375 346.415,702.367 348.185,705.062C351.742,710.657 351.746,710.662 355.154,714.75L360.592,714.75C356.553,728.427 352.93,742.167 349.592,756.031C348.945,758.742 348.312,761.369 347.685,764C346.661,768.058 346.658,768.054 345.654,772.031C344.727,775.961 344.719,775.96 343.81,779.812C341.105,790.921 342.026,796.831 346.998,807.156C401.857,816.992 401.856,816.994 515.498,815.312C517.346,811.616 519.142,808.025 520.935,804.438C554.574,809.67 588.607,815.798 622.717,816.188C639.513,816.063 666.206,819.511 678.56,807.156C683.352,786.632 683.359,786.635 664.373,751C659.422,741.708 654.73,732.783 651.685,722.688C650.835,716.45 650.829,716.455 656.998,708.625C659.784,705.33 662.42,701.922 664.967,698.438C687.162,650.674 677.101,591.138 660.56,543.031C656.315,531.363 653.086,520.506 651.404,508.187C657.909,506.458 664.382,504.719 670.873,502.937C673.602,502.187 676.256,501.447 678.904,500.719C695.457,496.323 712.217,493.196 724.779,481.031C726.467,471.413 726.463,471.405 726.342,465.937C726.213,464.021 726.091,462.142 725.967,460.281C725.632,448.435 724.718,436.725 723.498,424.937C721.085,398.307 721.102,398.309 719.342,371.625C719.111,368.153 718.879,364.776 718.654,361.406C718.423,358.049 718.191,354.789 717.967,351.531C717.005,337.175 715.631,323.551 711.404,309.75C710.381,306.831 709.367,303.989 708.373,301.156C706.148,294.687 703.933,288.243 701.685,281.781C695.215,263.362 680.089,234.031 689.31,214.719C697.352,199.318 695.239,182.096 691.123,165.844C690.192,162.476 690.192,162.488 689.279,159.187C688.002,154.385 686.696,149.58 685.404,144.781C683.327,137.332 681.284,129.892 679.342,122.406C678.069,117.48 676.773,112.565 675.435,107.656C674.773,105.254 674.11,102.926 673.467,100.594C671.282,92.009 669.055,83.947 664.967,76.063C652.284,61.918 639.052,56.171 620.904,51.281C617.407,50.469 614.018,49.695 610.623,48.906C580.776,41.846 551.116,40.024 520.529,39.906C518.586,39.902 516.727,39.91 514.842,39.906ZM514.248,50.938C516.24,50.94 518.158,50.935 520.092,50.938C561.968,50.978 604.969,53.16 643.967,69.938C652.515,76.137 656.162,84.894 659.373,94.75C660.097,97.648 660.796,100.468 661.498,103.281C662.317,106.508 663.109,109.618 663.904,112.75C665.51,119.258 667.143,125.781 668.779,132.281C669.598,135.53 670.39,138.691 671.185,141.844C674.803,156.286 678.605,170.647 682.56,185C683.053,186.773 683.519,188.498 683.998,190.219C668.382,183.309 653.41,178.337 636.623,174.937C630.652,173.823 624.69,172.587 618.779,171.187C614.662,168.443 614.659,168.441 610.623,165.75C603.961,169.882 599.562,171.222 591.654,171.781C586.885,171.711 586.861,171.694 582.185,171.625C576.85,171.579 571.52,171.551 566.185,171.469C542.994,171.086 520.154,170.873 497.06,173.062C487.665,174.134 482.582,175.796 475.029,169.875C474.002,168.471 473.026,167.113 472.029,165.75L472.029,173.906C466.178,175.479 460.322,177.066 454.467,178.625C452.005,179.28 449.606,179.896 447.217,180.531C444.82,181.176 442.512,181.812 440.185,182.437C437.839,183.06 435.557,183.646 433.279,184.25C423.484,186.867 414.211,188.532 404.092,190.219C397.623,155.105 391.338,121.018 385.06,86.938C373.033,92.951 362.099,98.607 349.717,103.25C348.871,95.29 348.873,95.281 352.967,91C396.479,54.928 460.293,50.989 514.248,50.938ZM344.279,95.094C343.355,98.79 342.457,102.381 341.56,105.969C331.953,107.341 331.977,107.342 322.56,108.687C323.484,106.839 324.351,105.044 325.248,103.25C331.773,98.9 336.305,95.094 344.279,95.094ZM535.998,208.875C538.494,208.871 540.888,208.878 543.31,208.875C545.922,208.886 548.463,208.896 550.998,208.906C553.62,208.895 556.171,208.885 558.717,208.875C562.419,208.88 562.432,208.87 566.06,208.875C570.05,208.88 574.048,208.982 578.029,209.25C591.457,231.13 591.43,231.125 599.435,256.562C600.259,258.872 601.073,261.102 601.873,263.344C603.498,267.895 605.107,272.474 606.717,277.031C611.022,289.741 615.197,301.132 623.123,312.062C629.374,319.859 629.361,319.855 632.404,325.75C636.492,334.711 638.297,338.228 635.092,347.844C614.053,351.414 593.503,353.646 572.154,353.812C569.645,353.811 567.215,353.783 564.779,353.781C556.481,353.787 548.263,353.635 539.967,353.281C535.255,344.462 535.248,344.473 534.654,333.906C531.512,311.102 527.737,288.528 523.154,265.969C519.252,247.676 517.568,230.695 518.217,211.969C523.472,208.899 523.473,208.906 529.217,208.906C532.631,208.902 532.651,208.88 535.998,208.875ZM594.31,217.406C617.247,218.605 640.466,220.698 662.279,228.281C674.011,235.199 677.7,241.744 681.185,254.844C684.377,268.037 687.46,281.116 693.217,293.437C703.728,313.917 704.565,332.631 705.092,355.219C705.516,375.398 706.78,395.338 708.623,415.437C710.338,433.743 711.761,451.759 711.185,470.156C697.408,477.85 697.397,477.854 681.279,481.031C674.933,481.906 668.616,482.811 662.279,483.75C644.066,491.158 628.129,493.58 608.529,494.562C605.62,496.769 607.36,488.376 604.078,487.332C604.068,487.329 598.664,496.222 598.654,496.219C598.409,496.238 592.057,488.295 591.806,488.295C590.601,488.295 595.598,496.015 594.529,495.625C594.448,496.126 594.419,497.069 594.31,497.312C580.02,497.521 565.991,497.977 551.842,495.781C548.582,495.181 548.599,495.182 545.404,494.594C539.837,497.927 539.844,497.944 532.31,497C529.257,496.708 526.274,496.409 523.31,496.125C517.987,495.63 512.662,495.123 507.342,494.594C505.288,484.303 501.559,479.93 493.748,472.875C498.103,482.264 498.106,482.24 501.904,491.875L491.06,491.875C490.136,487.255 489.238,482.797 488.342,478.312C487.418,482.933 486.52,487.391 485.623,491.875C477.669,491.875 470.445,490.756 462.654,489.25C460.759,488.875 458.9,488.52 457.06,488.156C446.302,486.148 437.831,484.513 428.529,478.312C427.297,472.896 426.137,467.435 425.342,461.937C425.044,459.622 424.756,457.373 424.467,455.125C423.429,447.827 422.392,440.554 421.404,433.25C420.075,423.352 418.697,413.453 417.31,403.562C416.964,401.118 416.647,398.748 416.31,396.375C414.17,381.174 411.733,366.335 407.81,351.469C405.838,344.266 404.125,337.48 403.248,330.062C402.08,314.88 399.395,301.215 395.185,286.562C393.613,281.262 392.037,275.957 390.467,270.656C389.712,268.03 388.98,265.486 388.248,262.937C385.521,253.758 384.672,251.165 387.779,241.844C392.62,241.141 397.464,240.446 402.31,239.781C405.353,239.366 405.328,239.376 408.31,238.969C419.873,237.266 430.164,236.313 441.873,237.344C450.358,239.144 453.366,240.422 458.435,247.281C445.329,248.92 434.213,253.942 423.092,260.875C413.471,270.249 410.735,277.478 409.498,290.781C411.346,291.705 413.142,292.603 414.935,293.5C427.689,281.408 438.738,271.467 455.717,266.312C467.899,264.866 481.088,264.124 491.06,271.75C496.925,289.004 497.024,307.038 496.842,325.062C496.723,331.149 496.592,337.257 496.498,343.344C496.464,346.349 496.438,349.24 496.404,352.156C496.147,366.014 499.444,375.851 504.623,388.625L510.06,388.625C534.572,401.394 534.566,401.382 587.029,399.656C587.868,399.625 588.678,399.589 589.498,399.562C590.948,398.537 593.057,416.551 594.373,397.781C594.352,397.448 594.329,397.115 594.31,396.781C609.019,391.554 622.869,386.967 634.404,376.219C640.212,360.247 640.482,342.265 635.092,326.094C624.263,310.037 613.077,294.105 610.623,274.469C616.261,269.987 616.266,269.984 624.217,266.312C637.519,264.786 645.582,265.514 657.498,271.594C664.525,275.645 670.597,278.232 678.56,279.906L678.56,274.469C675.476,267.336 671.87,262.181 666.092,256.969C651.217,246.239 636.795,244.516 618.779,247.281C611.66,252.027 607.797,253.772 599.748,255.437C599.109,253.077 598.493,250.791 597.873,248.5C597.068,245.432 596.279,242.447 595.498,239.469C593.204,230.844 590.252,225.524 594.31,217.406ZM640.529,540.812C643.301,541.737 645.995,542.634 648.685,543.531C657.129,565.633 657.126,565.622 660.592,589.188C660.932,591.737 661.262,594.213 661.592,596.688C664.956,621.656 671.514,657.398 656.842,679.406C655.7,671.074 654.533,662.736 653.373,654.406C652.872,650.834 652.39,647.374 651.904,643.906C649.379,625.862 647.03,607.782 643.31,589.938C639.447,572.392 636.558,558.5 640.529,540.812ZM627.998,555.312C630.391,555.413 632.759,555.959 635.092,557.125C635.541,559.127 635.968,561.056 636.404,563C636.709,565.661 637.014,568.261 637.31,570.844C637.658,573.82 638.004,576.705 638.342,579.594C638.683,582.811 639.01,585.939 639.342,589.062C641.632,610.001 643.704,630.945 645.029,651.969C645.236,655.626 645.233,655.602 645.435,659.188C646.607,677.431 648.559,699.966 635.904,714.656C625.88,720.151 619.775,722.82 608.092,723.562C605.262,723.331 602.494,723.131 599.748,722.906C590.603,727.537 590.621,727.53 579.685,727.656C575.078,728.108 570.449,728.545 565.842,729C563.598,729.231 561.425,729.463 559.248,729.688C555.526,730.052 551.821,730.504 548.123,731.062C537.179,734.113 537.185,734.091 525.623,732.25C509.452,729.601 487.978,728.695 477.467,714.75L477.467,709.312C475.734,709.172 474.054,709.043 472.373,708.906C465.934,707.098 465.922,707.085 463.529,700.125C462.721,697.183 461.939,694.324 461.154,691.469C459.776,686.514 458.391,681.569 457.092,676.594C456.166,673.027 455.239,669.464 454.279,665.906C447.342,640.216 433.089,604.611 442.123,578.844C448.651,574.36 453.076,573.432 461.029,572.906C464.205,572.971 467.291,573.031 470.373,573.094C473.898,573.142 477.326,573.172 480.748,573.219C524.118,574.036 564.112,572.102 606.217,560.688C613.426,558.61 620.817,555.011 627.998,555.312ZM522.842,747.094C524.462,747.123 526.445,747.201 529.092,747.344C529.399,763.042 529.773,774.868 520.935,788.125C519.081,776.625 515.495,765.927 511.748,754.938C511.174,753.281 510.617,751.67 510.06,750.062C516.39,747.595 517.981,747.006 522.842,747.094ZM647.56,760.031C650.002,760.116 652.296,760.387 656.842,760.938C662.455,768.448 662.454,768.465 664.092,775.562C664.572,777.988 665.032,780.333 665.498,782.688C667.383,791.8 667.967,795.436 664.967,804.438C658.892,804.493 652.823,804.53 646.748,804.562C642.998,804.581 643.018,804.575 639.342,804.594C636.828,804.617 634.375,804.634 631.935,804.656C629.544,804.665 627.225,804.678 624.904,804.688C621.049,804.713 617.189,804.673 613.342,804.438C609.973,801.616 609.988,801.607 609.779,795.5C609.552,792.934 609.312,790.459 609.092,787.969C608.857,785.395 608.632,782.873 608.404,780.375C608.234,778.386 608.069,776.462 607.904,774.531L602.467,774.531C605.553,779.82 605.569,779.817 605.56,785.75C605.553,787.999 605.536,790.192 605.529,792.375C605.536,794.631 605.554,796.811 605.56,799C605.798,804.423 605.783,804.437 602.467,807.156C598.349,804.411 598.346,804.409 594.31,801.719C595.234,788.782 596.132,776.212 597.029,763.656C606.988,762.054 616.564,760.932 626.654,760.406C632.031,760.342 632.008,760.344 637.279,760.281C642.5,760.07 645.119,759.946 647.56,760.031ZM484.092,762.625C491.808,762.439 498.314,762.785 504.623,769.094C510.987,787.462 510.989,787.476 510.06,807.156C505.532,807.272 500.995,807.267 496.467,807.156C495.543,806.232 494.645,805.334 493.748,804.438C488.484,804.31 483.231,804.336 477.967,804.438C467.72,804.637 460.333,804.232 450.279,801.719C449.355,793.403 448.457,785.321 447.56,777.25C446.636,786.49 445.738,795.469 444.842,804.438C440.124,804.523 440.123,804.509 435.498,804.594C426.317,805.554 426.31,805.567 423.092,801.719C422.705,791.485 422.019,781.462 425.81,771.812C430.559,765.538 432.914,763.827 440.81,762.656C443.546,762.665 446.186,762.679 448.842,762.688C451.821,762.689 454.731,762.685 457.623,762.688C460.733,762.733 463.73,762.769 466.748,762.812C471.383,762.799 471.392,762.795 475.935,762.781C478.808,762.8 481.519,762.687 484.092,762.625Z" style="fill-rule:nonzero;"/>
            </g>
            <path d="M512,440.443C512,440.443 542.08,441.738 573.09,441.626C604.101,441.515 640.134,428.215 640.134,428.215C640.134,428.215 614.872,460.189 614.532,460.161" style="fill-rule:nonzero;"/>
        </g>
    </g>
</svg>
