<?xml version="1.0" encoding="UTF-8" standalone="no"?>
<svg
   width="100%"
   height="100%"
   viewBox="0 0 1230 1230"
   version="1.1"
   xml:space="preserve"
   style="fill-rule:evenodd;clip-rule:evenodd;stroke-linejoin:round;stroke-miterlimit:2;"
   id="svg3"
   xmlns="http://www.w3.org/2000/svg"
   xmlns:svg="http://www.w3.org/2000/svg">
  <defs><clipPath id="body-clip"><use href="#body"/></clipPath></defs><defs
   id="defs3" />
    <g
   id="g1">
        <rect
   id="bg-rect"
   x="0"
   y="0"
   width="1230"
   height="1230"
   style="fill:rgb(51,65,85);fill-rule:nonzero;" />
        <path id="body" d="M572,1149C581,1148 593,1147 598,1146C605,1146 609,1144 611,1143C612,1142 614,1140 615,1139C616,1137 616,1132 616,1118C615,1108 614,1098 614,1094C613,1090 611,1084 610,1080C608,1076 605,1070 603,1067C602,1064 598,1059 595,1057C593,1055 588,1052 586,1050C583,1049 577,1047 572,1045C567,1044 557,1040 550,1037C542,1033 532,1027 527,1024C521,1020 518,1017 519,1017C520,1017 527,1018 535,1020C542,1022 553,1024 560,1025C566,1026 577,1028 586,1029C595,1030 609,1031 618,1032C627,1033 642,1033 655,1033C667,1032 681,1032 687,1031C693,1030 706,1029 716,1027C726,1025 739,1023 745,1021C752,1019 762,1016 769,1013C776,1011 785,1007 789,1005C793,1002 799,998 802,995C806,991 808,988 811,980C814,975 816,968 817,962C818,954 818,942 818,906C818,873 818,857 817,850C817,844 815,833 814,824C813,816 812,809 812,808C813,808 815,814 817,821C819,828 822,837 822,840C823,843 823,845 823,846C824,846 825,850 825,855C826,859 827,869 827,878C828,887 829,909 829,928L830,962L833,961C835,961 840,959 845,957C851,954 854,952 857,948C859,945 862,940 863,937C865,934 867,927 868,922C870,914 870,910 870,894C869,883 868,873 867,865C866,859 863,848 862,840C860,833 855,819 852,810C849,801 844,786 841,777C837,769 834,760 833,758C832,757 829,752 827,747C824,743 821,739 820,739C819,739 817,740 816,742C814,743 813,744 813,744C812,744 811,737 809,729C808,722 807,715 806,715C806,714 805,714 805,714C804,714 796,716 787,718C777,721 765,724 759,725C753,727 742,729 736,730C730,731 719,733 712,734C704,735 689,737 678,738C667,739 650,740 641,741C632,742 599,742 568,742C515,742 511,742 508,744C506,745 504,748 503,752C501,755 498,762 496,768C495,773 492,783 491,789C489,795 488,805 487,810C486,816 486,835 486,852C486,870 487,899 488,916C489,938 489,950 488,958C487,969 487,972 484,979C482,983 479,989 477,992C475,995 470,1001 465,1006C460,1011 452,1019 446,1024C441,1028 436,1033 435,1034C434,1036 433,1039 432,1041C431,1043 430,1052 429,1061C428,1070 427,1086 426,1099C426,1115 426,1123 427,1126C428,1128 429,1131 430,1132C432,1134 437,1136 442,1138C448,1140 455,1142 457,1143C459,1143 466,1145 472,1145C477,1146 486,1147 492,1148C502,1148 502,1148 502,1146C503,1145 504,1135 504,1125C505,1114 506,1106 506,1105C507,1104 509,1104 511,1104C513,1104 514,1104 512,1105C511,1105 510,1106 509,1106C508,1107 508,1109 508,1114C509,1117 510,1126 511,1132C512,1139 513,1145 514,1147C515,1149 516,1149 522,1149C525,1149 535,1150 542,1150C549,1150 563,1150 572,1149ZM749,1144C750,1143 750,1135 751,1123C751,1113 752,1104 752,1104C752,1105 753,1108 754,1112C755,1116 757,1125 759,1131C760,1137 762,1143 762,1144C763,1145 766,1145 772,1145C778,1145 788,1145 795,1144C802,1143 814,1142 820,1141C827,1139 836,1137 840,1136C844,1135 849,1133 851,1131C855,1129 857,1127 858,1124C859,1122 859,1119 859,1115C858,1111 857,1104 856,1100C855,1095 853,1087 851,1082C850,1078 847,1071 845,1066C843,1062 839,1055 837,1051C835,1048 831,1041 828,1038C826,1034 820,1028 817,1024C813,1020 809,1017 808,1017C807,1017 804,1018 802,1019C799,1021 794,1023 790,1025C786,1026 778,1029 773,1031C768,1033 757,1036 748,1038C739,1040 728,1043 722,1044C716,1045 705,1048 698,1050C692,1051 685,1054 683,1054C682,1055 679,1058 677,1060C675,1062 672,1066 671,1068C670,1070 669,1074 668,1078C667,1082 665,1090 664,1096C664,1102 663,1111 663,1117C663,1124 663,1127 665,1129C666,1131 668,1133 671,1134C673,1135 682,1137 689,1138C697,1140 704,1141 706,1141C708,1141 710,1142 711,1142C713,1143 718,1144 722,1144C727,1144 735,1145 740,1145C745,1145 748,1145 749,1144ZM449,972C453,971 457,969 459,967C461,965 463,962 465,959C466,957 468,952 468,949C470,943 470,930 471,883C472,850 472,816 473,808C473,799 474,787 474,781C474,776 473,767 472,762C472,757 470,751 468,747C466,743 464,740 463,739C462,738 460,736 458,735C455,734 452,733 450,733C447,733 444,734 442,735C439,736 437,738 436,739C434,740 431,743 428,746C426,750 421,756 419,760C416,764 411,772 408,779C405,785 400,797 397,804C394,811 390,824 388,832C386,840 383,853 381,861C379,874 379,878 379,897C379,914 379,920 380,926C381,930 383,936 385,939C386,943 389,949 392,952C394,956 399,961 401,964C404,966 409,969 412,971C415,972 419,973 421,974C424,975 429,975 434,974C439,974 445,973 449,972ZM700,707C713,706 730,704 739,704C748,703 763,701 773,699C783,698 797,696 804,694C812,693 822,691 828,689C833,688 842,686 848,684C854,682 864,679 870,676C876,674 885,670 889,668C894,666 899,662 902,659C905,657 907,653 908,651C909,648 909,641 909,623C908,609 907,587 907,575C906,563 904,543 903,531C902,519 900,503 899,496C899,488 897,475 895,466C894,457 891,445 889,438C888,430 884,419 882,413C880,406 876,397 874,392C872,387 867,377 864,371C861,365 856,356 853,351C850,347 845,341 842,337C838,334 832,329 829,327C826,325 821,322 818,321C816,319 809,317 804,315C799,314 790,311 784,310C776,309 770,309 758,309C750,310 741,310 739,311C737,312 734,313 732,314C730,316 730,317 730,322C731,325 733,334 734,341C736,349 739,357 740,360C741,364 743,366 744,367C744,367 748,366 752,365C755,363 762,361 766,360C770,359 777,359 785,359C795,359 799,359 806,361C811,363 818,365 821,367C825,369 830,372 834,374C837,377 842,381 844,383C848,387 849,389 849,392C849,394 848,395 847,396C846,396 841,394 834,390C827,387 818,383 813,382C809,380 802,378 798,378C794,377 786,377 781,377C775,378 769,379 764,380C759,382 754,384 753,385C752,385 751,387 751,389C751,390 754,398 757,406C760,415 766,428 769,436C772,444 777,455 779,462C782,469 783,475 784,480C784,485 784,489 782,497C781,502 779,510 777,515C775,519 773,525 772,526C772,528 769,531 767,533C765,535 761,539 757,541C753,542 746,545 741,547C736,548 729,550 725,551C721,552 713,553 701,554C691,555 676,555 669,555C662,554 648,553 639,551C630,550 619,548 614,547C610,546 605,544 604,543C603,542 601,540 600,538C599,537 598,532 597,528C597,525 595,513 594,503C593,493 591,473 590,460C589,446 587,430 587,425C586,420 586,409 585,402C585,392 584,387 583,386C582,384 580,382 578,381C576,381 572,379 568,378C564,378 558,377 553,377C549,377 541,378 537,378C532,379 525,381 521,383C517,384 510,387 505,390C500,392 493,396 490,399C486,402 481,405 479,408C475,411 475,411 472,410C470,410 469,409 469,406C469,404 470,401 471,398C472,396 476,391 479,388C482,385 489,380 493,377C498,374 505,370 509,368C512,366 519,364 524,362C532,360 534,360 552,359L570,359L570,356C570,354 569,350 567,347C566,344 562,339 559,337C557,334 551,330 548,328C544,326 538,324 533,323C526,321 523,321 502,321C483,321 478,321 467,323C460,324 448,327 441,329C434,330 428,333 427,333C426,334 423,335 421,336C418,337 416,338 415,338C415,337 415,336 416,334C417,333 420,329 423,325C426,321 432,316 436,313C440,310 445,306 448,305C450,304 456,301 462,298C469,295 478,291 484,289C490,286 500,283 506,281C512,279 523,276 529,274C535,272 546,270 554,269C561,267 572,265 580,264C587,263 599,261 607,261C615,260 630,259 640,258C651,257 673,257 698,257C727,258 742,258 752,259C759,260 771,262 777,263C783,264 794,266 800,268C807,269 823,273 836,276C849,279 861,282 862,282C864,282 865,281 866,280C867,279 867,277 867,270C866,265 864,253 863,244C861,235 858,222 856,214C854,206 852,201 851,200C850,199 847,197 844,196C841,196 835,194 831,192C825,190 822,189 817,189C812,189 810,189 808,187C807,186 805,183 803,181C801,178 799,176 797,175C795,174 794,174 791,177C790,179 785,182 782,183C777,186 776,188 772,193C770,197 767,202 765,204L761,208L765,198C768,193 770,187 771,186C771,184 775,181 778,178C781,176 784,173 785,171C785,170 786,167 786,166C786,165 786,163 786,161C786,160 784,156 780,153C777,149 774,145 773,142C773,139 772,133 772,127C772,119 772,117 769,112C767,107 766,106 768,107C769,107 770,109 771,110C772,111 773,113 774,114C775,116 776,122 776,128C777,136 778,139 780,143C782,147 784,150 788,152C793,156 794,156 795,163C796,169 797,170 804,177C812,184 812,185 817,185C820,186 827,187 831,189C835,191 840,192 842,192C844,192 846,191 847,190L849,188L844,173C841,164 837,153 834,148C832,142 828,134 826,129C823,125 819,119 817,117C814,114 810,110 807,108C804,106 797,103 793,102C789,100 778,97 768,96C759,94 741,91 728,89C715,87 696,84 686,83C671,82 658,82 622,82C593,82 573,82 565,83C558,84 546,85 538,86C531,87 517,90 508,92C498,94 484,97 475,99C466,101 455,104 449,106C444,108 438,109 438,110C437,111 433,112 429,113C426,115 416,118 409,121C402,125 391,129 386,132C381,135 373,140 368,143C364,146 358,150 357,152C355,154 352,158 352,160C351,162 349,169 348,176C346,184 345,195 344,202C343,208 342,225 341,240C340,256 340,295 339,346C339,395 339,452 340,492C341,541 341,558 342,562C343,564 345,568 347,570C348,572 352,576 355,578C358,581 364,584 368,586C371,588 376,589 378,590C382,590 384,590 390,587C394,585 399,581 401,579C403,577 404,575 404,572C404,570 403,567 401,564C398,561 398,559 398,557C399,555 399,552 400,550C401,548 401,548 402,553C402,557 403,559 405,562C407,563 408,567 409,569C410,572 410,574 411,575C411,575 412,577 414,578C416,579 417,580 417,580C417,581 415,581 413,581C409,581 408,582 404,585C401,587 397,591 394,593C391,595 388,598 387,599C386,600 386,604 387,611C388,617 389,627 390,634C391,641 393,648 394,651C395,653 398,656 400,658C401,660 406,663 410,665C413,667 420,670 425,672C429,674 437,678 442,679C448,681 459,685 468,688C476,690 485,693 488,694C490,694 499,696 508,698C517,700 531,702 540,703C549,704 563,705 572,706C580,707 590,707 592,707C594,708 615,708 637,708C663,708 686,707 700,707L700,707ZM706,642C704,642 697,641 691,640C685,640 675,638 669,636C663,635 653,632 646,630C639,627 627,622 620,619C610,614 605,611 605,610C605,609 605,607 606,607C606,607 610,607 614,608C619,609 628,611 636,612C643,614 654,616 661,616C667,617 680,618 689,619C698,620 711,620 718,620C724,620 736,619 745,618C754,617 763,615 766,615C770,614 776,613 780,612C785,611 789,610 789,611C790,611 789,613 787,616C786,619 782,624 778,627C775,630 770,634 767,635C764,637 757,639 752,640C746,641 739,642 727,642C718,643 709,643 706,642L706,642ZM644,507C653,505 659,504 664,504C669,504 686,503 703,502C720,502 738,501 744,500C749,499 757,498 761,497C765,496 769,495 771,493C773,492 774,489 775,487C776,484 776,481 775,478C775,475 773,468 771,463C769,458 764,444 759,432C754,420 746,398 741,382C736,367 729,347 726,338C723,329 720,316 718,308C716,301 713,293 711,291C710,288 707,285 705,283C703,282 699,281 695,280C691,279 682,279 674,279C667,279 655,279 649,280C643,281 634,282 629,283C623,284 617,287 612,289C609,291 604,293 603,294C601,295 599,298 598,300C597,302 597,305 599,318C599,327 601,339 602,346C602,353 603,362 604,366C605,371 606,383 607,392C608,402 611,423 613,438C615,453 618,473 619,482C621,491 623,500 623,502C624,504 625,507 627,508C628,509 630,510 631,510C631,510 637,509 644,507L644,507Z" style="fill:rgb(71,66,57);fill-rule:nonzero;"/>
        <path id="shadow" d="M584,1147C589,1146 597,1145 601,1145C607,1144 609,1143 611,1141C614,1138 615,1138 615,1126C615,1120 615,1110 614,1105C613,1100 612,1092 611,1088C610,1084 607,1077 605,1072C602,1066 600,1063 595,1059C592,1056 587,1052 584,1051C581,1049 575,1048 571,1047C568,1046 560,1045 553,1044C547,1043 536,1043 528,1043C520,1043 509,1043 503,1044C497,1045 489,1046 484,1047C480,1047 475,1049 472,1050C470,1051 466,1054 464,1056C462,1058 459,1061 458,1064C457,1066 456,1072 455,1078C454,1084 454,1096 454,1104C454,1113 454,1125 455,1130C456,1135 457,1140 457,1141C458,1142 464,1143 471,1144C477,1145 487,1146 492,1146C500,1147 501,1147 501,1145C502,1144 502,1135 503,1126C504,1116 505,1107 505,1105C506,1104 507,1103 514,1103C519,1102 525,1101 528,1100C532,1100 534,1099 535,1099C535,1100 533,1101 530,1103C526,1104 521,1105 518,1106C515,1106 511,1107 510,1107C509,1108 509,1110 511,1120C511,1127 513,1135 513,1139C514,1143 515,1146 515,1147C516,1148 525,1148 545,1148C561,1148 579,1148 584,1147L584,1147ZM748,1143C748,1142 749,1132 750,1122C750,1110 751,1102 752,1102C752,1102 755,1110 758,1122C760,1132 763,1142 763,1143C764,1144 767,1144 779,1144C788,1143 799,1143 804,1142C808,1141 817,1140 823,1139C828,1138 836,1136 840,1135C845,1133 850,1131 852,1129C854,1128 856,1125 857,1123C858,1121 858,1118 858,1116C857,1113 856,1107 855,1101C854,1095 851,1086 849,1081C847,1075 843,1065 840,1059C837,1053 831,1044 828,1039C824,1034 818,1028 815,1024C812,1021 808,1018 808,1018C807,1018 804,1020 802,1021C799,1023 793,1027 788,1031C783,1034 775,1038 770,1040C765,1042 756,1046 750,1049C743,1052 735,1056 731,1058C727,1059 722,1063 719,1065C716,1067 713,1071 711,1074C709,1078 708,1081 708,1085C708,1088 709,1097 709,1105C710,1112 711,1124 712,1130C712,1136 713,1141 713,1142C714,1142 719,1143 724,1143C730,1143 737,1144 741,1144C745,1144 747,1144 748,1143ZM692,1012C699,1011 710,1009 717,1008C724,1006 735,1003 742,1001C750,999 760,995 765,992C771,990 780,985 785,981C791,978 797,972 800,969C803,966 807,961 808,959C810,956 812,951 814,947C816,941 816,939 817,912C818,891 818,878 817,866C816,856 815,840 813,830C812,820 809,803 808,792C806,781 803,769 802,765C801,761 800,757 799,757C798,756 796,757 792,758C788,760 782,762 778,763C775,764 767,766 762,767C758,768 748,770 741,771C735,772 723,774 715,774C707,775 691,776 680,777C667,778 650,778 636,778C624,777 609,777 603,776C597,775 585,775 576,774C567,773 554,773 540,774C526,775 518,775 516,776C514,777 512,779 511,780C510,781 508,783 508,785C507,787 505,793 505,799C503,807 503,818 503,844C503,862 503,885 504,894C505,903 506,914 506,918C507,923 508,931 510,936C511,942 514,950 516,954C517,959 521,965 523,969C525,972 530,978 535,982C539,986 545,991 549,993C553,995 561,999 567,1001C573,1003 582,1006 587,1008C593,1009 604,1011 611,1011C618,1012 627,1013 630,1013C633,1014 645,1014 658,1013C670,1013 685,1012 692,1012L692,1012ZM455,968C457,967 460,964 462,962C463,959 466,955 466,952C468,948 468,942 469,930C469,922 469,890 470,860C471,807 471,806 469,799C468,794 465,788 463,785C461,782 458,778 457,777C454,775 452,774 446,774C439,774 438,775 434,778C432,779 429,783 426,787C424,790 420,797 417,802C415,807 412,815 410,819C408,824 406,832 404,837C403,842 401,851 401,857C400,863 399,875 398,884C398,896 398,904 399,912C400,919 402,927 404,931C405,936 408,942 410,945C412,949 416,954 419,957C422,961 426,964 431,966C437,970 439,970 445,970C450,970 453,969 455,968ZM854,949C857,946 860,941 862,938C863,935 865,929 866,925C868,919 868,915 868,899C868,886 868,877 867,870C866,863 863,851 860,842C858,832 854,817 851,808C848,799 842,784 838,774C834,764 830,755 828,753C827,750 825,748 824,748C822,747 822,747 820,749C819,750 817,754 816,758C815,763 815,768 815,772C816,776 817,788 819,798C821,807 823,827 825,842C827,857 828,874 829,881C829,888 831,900 832,908C834,917 836,928 837,934C839,939 841,946 841,948C842,950 844,952 844,953C845,953 846,954 848,954C849,954 851,952 854,949ZM696,706C710,705 729,703 738,702C746,702 762,700 772,698C782,697 798,694 807,693C817,691 831,687 840,685C848,683 859,679 864,677C869,675 878,671 884,669C891,666 897,662 900,660C903,658 905,655 906,652C908,648 908,646 908,625C907,612 906,591 905,578C905,565 903,543 901,528C900,513 898,496 897,489C897,482 895,470 893,462C892,454 890,443 888,436C886,430 883,420 881,414C879,408 875,398 873,392C870,386 865,376 862,370C859,363 855,356 853,353C851,350 847,344 843,341C839,337 834,332 830,330C827,327 822,324 818,322C815,321 808,318 803,316C798,315 790,313 786,312C782,311 771,311 762,311C753,311 744,311 741,312C737,313 734,314 733,315C731,317 731,318 731,322C732,324 733,331 735,337C736,343 738,351 740,356C741,360 743,364 743,365C744,366 747,365 755,362C761,360 769,359 775,358C782,357 787,357 794,358C799,358 807,360 811,362C816,363 823,367 828,369C832,372 839,377 843,381C851,388 851,389 851,392C850,394 849,396 849,397C847,398 845,397 834,392C827,388 817,384 812,383C808,381 800,379 795,379C788,378 783,378 777,379C772,379 766,381 763,382C760,383 756,384 754,385C752,387 752,388 752,390C753,392 756,400 759,409C763,418 768,432 772,439C775,446 779,457 781,464C784,473 785,476 785,482C785,487 784,494 783,499C782,503 780,511 778,516C776,522 773,528 770,531C766,537 764,538 757,542C752,544 744,547 738,549C729,551 725,553 720,556C717,558 711,561 708,562C704,563 698,565 694,565C690,566 679,566 666,566C651,566 641,566 633,565C627,564 618,562 613,561C609,560 602,558 600,556C596,555 593,552 591,550C589,547 586,542 584,539C582,535 580,528 579,523C578,516 578,510 578,501C579,494 580,480 580,470C581,460 582,438 583,421C583,397 583,389 582,387C581,385 579,383 577,382C575,381 569,380 564,379C556,378 553,378 544,379C537,380 529,381 524,383C519,385 512,387 509,389C505,391 499,394 495,397C491,399 485,404 481,407C478,410 474,412 473,412C472,412 471,411 470,410C469,409 468,407 468,405C468,403 469,400 470,398C471,396 475,391 477,388C480,385 485,381 489,378C493,375 500,371 505,369C510,366 518,363 522,362C527,360 536,359 541,358C548,357 555,357 560,358C565,358 569,358 569,358C570,358 569,355 568,352C567,349 565,344 563,342C561,340 558,337 556,335C553,333 550,330 548,329C545,328 541,326 537,325C533,324 526,323 521,322C514,321 505,321 496,321C487,322 474,323 466,324C458,326 447,328 440,330C434,332 429,334 428,334C427,335 427,340 428,359C429,371 430,391 431,403C431,415 433,431 434,438C434,445 435,454 436,458C437,462 439,475 442,488C444,502 448,522 450,532C452,544 456,562 459,573C461,584 467,608 471,626C476,645 481,666 483,675C485,684 487,691 487,692C488,692 494,694 502,695C509,697 517,698 520,699C524,700 533,701 542,702C551,703 565,704 574,705C584,706 594,706 597,706C600,707 618,707 636,707C656,707 681,706 696,706ZM703,643C701,643 693,642 686,641C680,640 669,638 663,636C657,635 647,632 642,630C636,627 626,623 620,620C613,617 606,613 605,612C604,611 603,610 603,609C603,609 604,608 604,607C606,605 606,605 617,607C623,609 633,611 639,612C645,613 656,615 662,615C668,616 683,617 695,618C713,619 720,619 731,618C739,617 751,616 758,615C765,614 774,612 779,611C784,610 788,609 789,609C791,609 791,609 791,612C790,613 788,617 786,620C784,623 781,627 778,629C776,631 770,635 766,637C763,638 756,641 752,642C747,643 738,643 726,643C716,644 705,644 703,643L703,643ZM698,502C715,501 732,500 736,499C739,499 746,498 750,498C755,497 761,496 764,495C767,494 770,493 771,491C774,488 774,487 774,482C774,478 773,473 771,466C769,461 765,450 762,442C758,434 752,416 747,403C742,390 736,370 732,360C729,351 723,332 720,320C716,307 712,295 711,292C710,290 707,287 706,286C704,284 701,282 699,282C696,281 687,281 671,281C652,281 645,281 636,283C630,284 622,286 619,287L614,289L615,295C615,298 617,309 618,318C620,328 623,341 624,348C626,354 628,364 630,370C631,375 634,388 636,398C638,407 640,420 641,424C642,429 646,447 651,464C655,482 659,497 659,499C660,503 660,503 664,503C666,503 681,502 698,502ZM465,296C472,292 482,288 486,286C491,284 499,281 506,280C512,278 521,275 526,274C531,272 542,270 550,268C558,266 571,264 578,263C585,262 595,261 600,260C605,259 617,258 628,258C639,257 659,256 673,255C688,255 707,255 720,256C733,257 749,258 758,259C766,260 779,262 786,263C794,265 814,269 831,274C848,278 862,281 863,281C864,281 865,280 866,278C866,277 866,273 866,269C865,266 864,258 863,252C862,245 859,232 856,222C854,209 851,202 850,201C849,200 846,198 843,197C839,197 834,195 831,193C827,192 823,191 817,190L809,190L803,183C799,178 797,176 795,176C794,176 793,177 792,178C791,180 788,182 784,184C781,185 778,188 777,189C776,190 774,193 773,195C771,198 768,202 766,205C764,207 761,209 760,209C760,209 759,209 759,209C759,208 761,204 763,199C766,194 768,189 769,186C770,184 773,181 777,178C780,175 784,172 784,170C785,169 785,166 785,164C785,161 784,159 780,154C777,150 774,146 773,144C772,143 771,136 771,129C770,118 770,116 768,111C766,109 764,105 763,104C762,103 762,102 763,102C764,102 766,104 769,107C772,109 775,113 776,114C776,116 778,122 778,128C778,134 779,140 780,141C781,143 782,145 783,146C784,147 787,150 790,152C795,156 795,156 796,162C797,168 798,169 805,176C813,183 813,184 819,184C822,185 827,186 830,187C834,189 838,190 839,190C840,191 842,191 844,190C846,190 847,189 847,187C847,186 845,178 842,170C839,162 835,151 832,145C829,139 825,131 823,127C820,123 816,117 813,114C810,111 805,108 801,106C798,105 792,102 788,101C784,100 775,98 768,97C760,95 751,93 746,93C741,92 731,90 724,89C716,88 703,86 696,86C688,85 673,84 662,83C650,82 630,82 610,82C590,83 570,84 562,84C554,85 543,87 537,88C532,88 519,91 509,93C500,94 482,99 470,101C459,104 447,108 444,109L438,110L439,123C439,130 439,142 440,150C441,158 442,184 444,207C446,230 447,256 448,265C449,274 449,285 450,291C450,297 451,302 451,302C451,302 458,299 465,296L465,296Z" style="fill:rgb(211,198,167);fill-rule:nonzero;" clip-path="url(#body-clip)"/>
        <path
   id="outline"
   d="M508,1168C498,1168 484,1166 477,1166C470,1165 455,1163 443,1162C431,1162 407,1160 390,1158C373,1157 355,1156 350,1155C345,1154 338,1154 334,1153C329,1152 318,1151 309,1150C300,1149 288,1147 283,1146C278,1146 263,1143 250,1141C238,1139 220,1136 210,1134C201,1133 189,1130 183,1129C177,1127 167,1125 161,1123C155,1121 147,1119 144,1118C141,1117 135,1114 132,1112C128,1110 123,1107 122,1105C120,1103 118,1100 117,1099C117,1097 117,1095 117,1094C118,1092 119,1089 121,1088C123,1085 127,1083 132,1081C136,1080 144,1077 148,1076C153,1075 163,1073 170,1072C178,1071 192,1069 202,1069C211,1068 226,1067 234,1066C243,1065 254,1065 260,1064C265,1064 281,1063 295,1062C309,1062 334,1061 351,1060C367,1060 381,1059 382,1059C382,1059 383,1052 384,1044C385,1037 387,1023 389,1014C391,1005 392,996 392,994C392,992 391,990 386,986C383,984 378,980 376,977C373,975 369,970 367,967C365,964 362,959 360,956C359,952 356,947 356,945C355,942 353,935 352,930C350,922 350,916 350,902C350,892 350,881 351,874C352,867 354,856 356,849C357,842 359,832 361,826C362,821 364,813 365,810C366,806 369,797 372,789C375,782 381,768 386,758C391,748 399,734 404,727C408,719 416,708 419,703C423,698 426,694 426,693C425,693 422,691 418,690C415,688 408,685 402,682C397,679 391,675 388,672C384,668 381,665 379,660C377,656 374,651 374,647C373,644 371,635 371,628C370,621 369,613 369,611C369,607 369,607 360,603C355,600 348,596 344,594C341,591 337,587 335,585C333,582 330,577 328,574C326,570 325,565 324,562C323,560 323,531 322,499C321,464 321,406 321,354C322,306 322,257 323,245C324,233 324,217 325,208C326,200 327,189 328,182C328,176 330,169 331,165C332,161 334,156 335,152C337,149 340,144 343,141C345,138 353,132 359,128C366,123 377,117 384,114C392,110 403,105 410,102C418,99 429,96 435,94C441,92 454,88 464,86C473,83 488,80 496,78C504,76 516,74 522,73C528,72 539,70 546,70C553,69 564,68 571,67C579,66 598,66 620,66C639,66 662,66 670,67C679,67 690,69 696,69C702,70 713,71 722,72C731,73 745,75 754,77C764,79 776,81 782,82C787,83 794,85 798,86C802,87 807,90 810,91C814,93 819,96 822,98C825,100 830,106 833,110C836,114 840,121 843,126C845,130 849,139 852,146C855,153 859,165 861,172C864,180 868,192 869,199C871,207 875,221 877,231C879,241 882,254 882,260C883,266 884,273 884,275C884,277 883,281 883,284C882,287 879,294 875,299C872,304 869,312 868,315C866,321 866,324 866,330C867,338 867,339 877,359C882,370 890,386 893,394C896,403 900,414 902,419C904,424 907,436 909,445C910,454 913,470 914,481C916,492 918,513 919,528C921,544 923,568 923,582C924,595 925,616 926,627C926,641 926,648 925,653C924,657 922,661 920,665C917,669 913,673 909,676C905,679 898,683 894,685C890,687 882,690 876,693C869,695 859,698 852,700C846,702 838,705 835,705C832,706 829,708 829,708C829,709 832,715 836,722C840,730 846,742 849,750C852,757 856,768 858,772C860,777 865,788 867,796C870,804 875,817 877,824C880,832 883,842 884,846C885,850 887,858 888,864C889,871 890,880 891,886C892,892 892,902 891,907C891,912 890,919 890,922C889,926 888,931 887,935C886,939 883,945 881,950C878,955 874,960 868,966C861,974 858,975 849,980C843,983 838,985 837,985C837,985 836,986 835,986C835,987 833,993 832,999C830,1005 829,1010 829,1011C829,1011 832,1014 836,1018C839,1022 845,1029 848,1034C851,1038 856,1048 859,1054C862,1061 866,1070 867,1074C869,1079 871,1086 872,1090C872,1093 874,1101 875,1106C875,1110 876,1119 876,1124C876,1131 876,1133 874,1137C873,1139 870,1143 867,1145C865,1146 859,1149 855,1151C850,1153 842,1155 837,1157C832,1158 824,1160 818,1160C812,1161 802,1162 795,1163C788,1164 770,1164 755,1164C739,1164 722,1163 712,1162C703,1162 691,1160 686,1159C681,1159 673,1157 668,1156C661,1154 658,1154 644,1155C634,1155 629,1156 626,1157C625,1158 620,1159 616,1161C613,1162 604,1164 598,1165C592,1166 578,1167 566,1168C556,1169 542,1169 536,1169C530,1169 517,1168 508,1168ZM572,1149C581,1148 593,1147 598,1146C605,1146 609,1144 611,1143C612,1142 614,1140 615,1139C616,1137 616,1132 616,1118C615,1108 614,1098 614,1094C613,1090 611,1084 610,1080C608,1076 605,1070 603,1067C602,1064 598,1059 595,1057C593,1055 588,1052 586,1050C583,1049 577,1047 572,1045C567,1044 557,1040 550,1037C542,1033 532,1027 527,1024C521,1020 518,1017 519,1017C520,1017 527,1018 535,1020C542,1022 553,1024 560,1025C566,1026 577,1028 586,1029C595,1030 609,1031 618,1032C627,1033 642,1033 655,1033C667,1032 681,1032 687,1031C693,1030 706,1029 716,1027C726,1025 739,1023 745,1021C752,1019 762,1016 769,1013C776,1011 785,1007 789,1005C793,1002 799,998 802,995C806,991 808,988 811,980C814,975 816,968 817,962C818,954 818,942 818,906C818,873 818,857 817,850C817,844 810,741 811,741C811,741 815,734 816,742C817,749 825,850 825,855C826,859 827,869 827,878C828,887 829,909 829,928L830,962L833,961C835,961 840,959 845,957C851,954 854,952 857,948C859,945 862,940 863,937C865,934 867,927 868,922C870,914 870,910 870,894C869,883 868,873 867,865C866,859 863,848 862,840C860,833 855,819 852,810C849,801 844,786 841,777C837,769 834,760 833,758C832,757 829,752 827,747C824,743 821,739 820,739C819,739 817,740 816,742C814,743 811,741 811,741C810,741 811,737 809,729C808,722 807,715 806,715C806,714 805,714 805,714C804,714 796,716 787,718C777,721 765,724 759,725C753,727 742,729 736,730C730,731 719,733 712,734C704,735 689,737 678,738C667,739 650,740 641,741C632,742 599,742 568,742C515,742 511,742 508,744C506,745 504,748 503,752C501,755 498,762 496,768C495,773 492,783 491,789C489,795 488,805 487,810C486,816 486,835 486,852C486,870 487,899 488,916C489,938 489,950 488,958C487,969 487,972 484,979C482,983 479,989 477,992C475,995 470,1001 465,1006C460,1011 452,1019 446,1024C441,1028 436,1033 435,1034C434,1036 433,1039 432,1041C431,1043 430,1052 429,1061C428,1070 427,1086 426,1099C426,1115 426,1123 427,1126C428,1128 429,1131 430,1132C432,1134 437,1136 442,1138C448,1140 455,1142 457,1143C459,1143 466,1145 472,1145C477,1146 486,1147 492,1148C502,1148 502,1148 502,1146C503,1145 504,1135 504,1125C505,1114 506,1106 506,1105C507,1104 509,1104 511,1104C513,1104 514,1104 512,1105C511,1105 510,1106 509,1106C508,1107 508,1109 508,1114C509,1117 510,1126 511,1132C512,1139 513,1145 514,1147C515,1149 516,1149 522,1149C525,1149 535,1150 542,1150C549,1150 563,1150 572,1149ZM749,1144C750,1143 750,1135 751,1123C751,1113 752,1104 752,1104C752,1105 753,1108 754,1112C755,1116 757,1125 759,1131C760,1137 762,1143 762,1144C763,1145 766,1145 772,1145C778,1145 788,1145 795,1144C802,1143 814,1142 820,1141C827,1139 836,1137 840,1136C844,1135 849,1133 851,1131C855,1129 857,1127 858,1124C859,1122 859,1119 859,1115C858,1111 857,1104 856,1100C855,1095 853,1087 851,1082C850,1078 847,1071 845,1066C843,1062 839,1055 837,1051C835,1048 831,1041 828,1038C826,1034 820,1028 817,1024C813,1020 809,1017 808,1017C807,1017 804,1018 802,1019C799,1021 794,1023 790,1025C786,1026 778,1029 773,1031C768,1033 757,1036 748,1038C739,1040 728,1043 722,1044C716,1045 705,1048 698,1050C692,1051 685,1054 683,1054C682,1055 679,1058 677,1060C675,1062 672,1066 671,1068C670,1070 669,1074 668,1078C667,1082 665,1090 664,1096C664,1102 663,1111 663,1117C663,1124 663,1127 665,1129C666,1131 668,1133 671,1134C673,1135 682,1137 689,1138C697,1140 704,1141 706,1141C708,1141 710,1142 711,1142C713,1143 718,1144 722,1144C727,1144 735,1145 740,1145C745,1145 748,1145 749,1144ZM449,972C453,971 457,969 459,967C461,965 463,962 465,959C466,957 468,952 468,949C470,943 470,930 471,883C472,850 472,816 473,808C473,799 474,787 474,781C474,776 473,767 472,762C472,757 470,751 468,747C466,743 464,740 463,739C462,738 460,736 458,735C455,734 452,733 450,733C447,733 444,734 442,735C439,736 437,738 436,739C434,740 431,743 428,746C426,750 421,756 419,760C416,764 411,772 408,779C405,785 400,797 397,804C394,811 390,824 388,832C386,840 383,853 381,861C379,874 379,878 379,897C379,914 379,920 380,926C381,930 383,936 385,939C386,943 389,949 392,952C394,956 399,961 401,964C404,966 409,969 412,971C415,972 419,973 421,974C424,975 429,975 434,974C439,974 445,973 449,972ZM700,707C713,706 730,704 739,704C748,703 763,701 773,699C783,698 797,696 804,694C812,693 822,691 828,689C833,688 842,686 848,684C854,682 864,679 870,676C876,674 885,670 889,668C894,666 899,662 902,659C905,657 907,653 908,651C909,648 909,641 909,623C908,609 907,587 907,575C906,563 904,543 903,531C902,519 900,503 899,496C899,488 897,475 895,466C894,457 891,445 889,438C888,430 884,419 882,413C880,406 876,397 874,392C872,387 867,377 864,371C861,365 856,356 853,351C850,347 845,341 842,337C838,334 832,329 829,327C826,325 821,322 818,321C816,319 809,317 804,315C799,314 790,311 784,310C776,309 770,309 758,309C750,310 741,310 739,311C737,312 734,313 732,314C730,316 730,317 730,322C731,325 733,334 734,341C736,349 739,357 740,360C741,364 743,366 744,367C744,367 748,366 752,365C755,363 762,361 766,360C770,359 777,359 785,359C795,359 799,359 806,361C811,363 818,365 821,367C825,369 830,372 834,374C837,377 842,381 844,383C848,387 849,389 849,392C849,394 848,395 847,396C846,396 841,394 834,390C827,387 818,383 813,382C809,380 802,378 798,378C794,377 786,377 781,377C775,378 769,379 764,380C759,382 754,384 753,385C752,385 751,387 751,389C751,390 754,398 757,406C760,415 766,428 769,436C772,444 777,455 779,462C782,469 783,475 784,480C784,485 784,489 782,497C781,502 779,510 777,515C775,519 773,525 772,526C772,528 769,531 767,533C765,535 761,539 757,541C753,542 746,545 741,547C736,548 729,550 725,551C721,552 713,553 701,554C691,555 676,555 669,555C662,554 648,553 639,551C630,550 619,548 614,547C610,546 605,544 604,543C603,542 601,540 600,538C599,537 598,532 597,528C597,525 595,513 594,503C593,493 591,473 590,460C589,446 587,430 587,425C586,420 586,409 585,402C585,392 584,387 583,386C582,384 580,382 578,381C576,381 572,379 568,378C564,378 558,377 553,377C549,377 541,378 537,378C532,379 525,381 521,383C517,384 510,387 505,390C500,392 493,396 490,399C486,402 481,405 479,408C475,411 475,411 472,410C470,410 469,409 469,406C469,404 470,401 471,398C472,396 476,391 479,388C482,385 489,380 493,377C498,374 505,370 509,368C512,366 519,364 524,362C532,360 534,360 552,359L570,359L570,356C570,354 569,350 567,347C566,344 562,339 559,337C557,334 551,330 548,328C544,326 538,324 533,323C526,321 523,321 502,321C483,321 478,321 467,323C460,324 448,327 441,329C434,330 428,333 427,333C426,334 423,335 421,336C418,337 416,338 415,338C415,337 415,336 416,334C417,333 420,329 423,325C426,321 432,316 436,313C440,310 445,306 448,305C450,304 456,301 462,298C469,295 478,291 484,289C490,286 500,283 506,281C512,279 523,276 529,274C535,272 546,270 554,269C561,267 572,265 580,264C587,263 599,261 607,261C615,260 630,259 640,258C651,257 673,257 698,257C727,258 742,258 752,259C759,260 771,262 777,263C783,264 794,266 800,268C807,269 823,273 836,276C849,279 861,282 862,282C864,282 865,281 866,280C867,279 867,277 867,270C866,265 864,253 863,244C861,235 858,222 856,214C854,206 852,201 851,200C850,199 847,197 844,196C841,196 835,194 831,192C825,190 822,189 817,189C812,189 810,189 808,187C807,186 805,183 803,181C801,178 799,176 797,175C795,174 794,174 791,177C790,179 785,182 782,183C777,186 776,188 772,193C770,197 767,202 765,204L761,208L765,198C768,193 770,187 771,186C771,184 775,181 778,178C781,176 784,173 785,171C785,170 786,167 786,166C786,165 786,163 786,161C786,160 784,156 780,153C777,149 774,145 773,142C773,139 772,133 772,127C772,119 772,117 769,112C767,107 766,106 768,107C769,107 770,109 771,110C772,111 773,113 774,114C775,116 776,122 776,128C777,136 778,139 780,143C782,147 784,150 788,152C793,156 794,156 795,163C796,169 797,170 804,177C812,184 812,185 817,185C820,186 827,187 831,189C835,191 840,192 842,192C844,192 846,191 847,190L849,188L844,173C841,164 837,153 834,148C832,142 828,134 826,129C823,125 819,119 817,117C814,114 810,110 807,108C804,106 797,103 793,102C789,100 778,97 768,96C759,94 741,91 728,89C715,87 696,84 686,83C671,82 658,82 622,82C593,82 573,82 565,83C558,84 546,85 538,86C531,87 517,90 508,92C498,94 484,97 475,99C466,101 455,104 449,106C444,108 438,109 438,110C437,111 433,112 429,113C426,115 416,118 409,121C402,125 391,129 386,132C381,135 373,140 368,143C364,146 358,150 357,152C355,154 352,158 352,160C351,162 349,169 348,176C346,184 345,195 344,202C343,208 342,225 341,240C340,256 340,295 339,346C339,395 339,452 340,492C341,541 341,558 342,562C343,564 345,568 347,570C348,572 352,576 355,578C358,581 364,584 368,586C371,588 376,589 378,590C382,590 384,590 390,587C394,585 399,581 401,579C403,577 404,575 404,572C404,570 403,567 401,564C398,561 398,559 398,557C399,555 399,552 400,550C401,548 401,548 402,553C402,557 403,559 405,562C407,563 408,567 409,569C410,572 410,574 411,575C411,575 412,577 414,578C416,579 417,580 417,580C417,581 415,581 413,581C409,581 408,582 404,585C401,587 397,591 394,593C391,595 388,598 387,599C386,600 386,604 387,611C388,617 389,627 390,634C391,641 393,648 394,651C395,653 398,656 400,658C401,660 406,663 410,665C413,667 420,670 425,672C429,674 437,678 442,679C448,681 459,685 468,688C476,690 485,693 488,694C490,694 499,696 508,698C517,700 531,702 540,703C549,704 563,705 572,706C580,707 590,707 592,707C594,708 615,708 637,708C663,708 686,707 700,707L700,707ZM706,642C704,642 697,641 691,640C685,640 675,638 669,636C663,635 653,632 646,630C639,627 627,622 620,619C610,614 605,611 605,610C605,609 605,607 606,607C606,607 610,607 614,608C619,609 628,611 636,612C643,614 654,616 661,616C667,617 680,618 689,619C698,620 711,620 718,620C724,620 736,619 745,618C754,617 763,615 766,615C770,614 776,613 780,612C785,611 789,610 789,611C790,611 789,613 787,616C786,619 782,624 778,627C775,630 770,634 767,635C764,637 757,639 752,640C746,641 739,642 727,642C718,643 709,643 706,642L706,642ZM644,507C653,505 659,504 664,504C669,504 686,503 703,502C720,502 738,501 744,500C749,499 757,498 761,497C765,496 769,495 771,493C773,492 774,489 775,487C776,484 776,481 775,478C775,475 773,468 771,463C769,458 764,444 759,432C754,420 746,398 741,382C736,367 729,347 726,338C723,329 720,316 718,308C716,301 713,293 711,291C710,288 707,285 705,283C703,282 699,281 695,280C691,279 682,279 674,279C667,279 655,279 649,280C643,281 634,282 629,283C623,284 617,287 612,289C609,291 604,293 603,294C601,295 599,298 598,300C597,302 597,305 599,318C599,327 601,339 602,346C602,353 603,362 604,366C605,371 606,383 607,392C608,402 611,423 613,438C615,453 618,473 619,482C621,491 623,500 623,502C624,504 625,507 627,508C628,509 630,510 631,510C631,510 637,509 644,507L644,507Z"
   style="fill:rgb(7,8,9);fill-rule:nonzero;" />
    <path d="M933 -120v220q-91 0 -142 25.5t-44 101.5l31 295q12 112 -24.5 181t-111 105.5t-175.5 51.5q107 16 181 52t108 104t22 182l-31 295q-7 76 44 101.5t142 25.5v220q-276 0 -387.5 -83.5t-90.5 -285.5l30 -286q8 -76 -25.5 -119t-98.5 -60.5t-150 -17.5v-256
q84 0 149 -17.5t99 -60.5t26 -119l-30 -284q-22 -206 90 -288.5t388 -82.5z" fill="#b45309" transform="translate(497.54,839.60) scale(0.045128)"/>
<path d="M1054 604v247h-908v-247h908zM1054 1025v245h-908v-245h908z" fill="#b45309" transform="translate(551.69,839.60) scale(0.045128)"/>
<path d="M150 1560v-212h140v-640h-140v-210h381l58 239q57 -137 145.5 -204t216.5 -67q54 0 96 8.5t79 23.5l-59 444h-198v-196q-90 16 -158 97.5t-105 200.5v304h210v212h-666z" fill="#0891b2" transform="translate(605.85,839.60) scale(0.045128)"/>
<path d="M600 463q164 0 279 70t176 196.5t61 296.5q0 266 -136 417t-380 151t-380 -149t-136 -417q0 -169 61.5 -296t177 -198t277.5 -71zM600 696q-97 0 -143.5 79.5t-46.5 252.5q0 176 46.5 255t143.5 79t143.5 -79t46.5 -257q0 -172 -46.5 -251t-143.5 -79z" fill="#0891b2" transform="translate(660.00,839.60) scale(0.045128)"/>
<path d="M509 463q163 0 261 120l14 -85h276v1505l-316 -33v-499q-46 55 -112 89t-160 34q-136 0 -222 -70.5t-126 -198t-40 -299.5q0 -164 49.5 -291t144.5 -199.5t231 -72.5zM592 694q-87 0 -134.5 77.5t-47.5 256.5q0 131 20 203t56.5 100.5t85.5 28.5q55 0 97 -32t75 -89v-458
q-31 -41 -67 -64t-85 -23z" fill="#0891b2" transform="translate(714.15,839.60) scale(0.045128)"/>
<path d="M267 -120q276 0 387.5 83t90.5 286l-30 286q-8 76 26 119t98.5 60.5t149.5 17.5v256q-84 0 -149 17.5t-99 60.5t-26 119l30 284q23 205 -89.5 288t-388.5 83v-220q92 0 143 -25.5t43 -101.5l-31 -295q-12 -113 24.5 -181.5t111.5 -105t176 -51.5q-107 -16 -181.5 -52
t-108.5 -104.5t-22 -181.5l31 -295q8 -76 -43.5 -101.5t-142.5 -25.5v-220z" fill="#b45309" transform="translate(768.31,839.60) scale(0.045128)"/>
    </g>
</svg>
